<?xml version="1.0" encoding="utf-8" standalone="no"?>
<!DOCTYPE svg PUBLIC "-//W3C//DTD SVG 1.1//EN"
  "http://www.w3.org/Graphics/SVG/1.1/DTD/svg11.dtd">
<svg xmlns:xlink="http://www.w3.org/1999/xlink" width="186.802672pt" height="794.885pt" viewBox="0 0 186.802672 794.885" xmlns="http://www.w3.org/2000/svg" version="1.1">
 <metadata>
  <rdf:RDF xmlns:dc="http://purl.org/dc/elements/1.1/" xmlns:cc="http://creativecommons.org/ns#" xmlns:rdf="http://www.w3.org/1999/02/22-rdf-syntax-ns#">
   <cc:Work>
    <dc:type rdf:resource="http://purl.org/dc/dcmitype/StillImage"/>
    <dc:date>2023-02-02T10:38:17.300168</dc:date>
    <dc:format>image/svg+xml</dc:format>
    <dc:creator>
     <cc:Agent>
      <dc:title>Matplotlib v3.6.2, https://matplotlib.org/</dc:title>
     </cc:Agent>
    </dc:creator>
   </cc:Work>
  </rdf:RDF>
 </metadata>
 <defs>
  <style type="text/css">*{stroke-linejoin: round; stroke-linecap: butt}</style>
 </defs>
 <g id="figure_1">
  <g id="patch_1">
   <path d="M 0 794.885 
L 186.802672 794.885 
L 186.802672 0 
L 0 0 
z
" style="fill: #ffffff"/>
  </g>
  <g id="axes_1">
   <g id="patch_2">
    <path d="M 18.41775 49.432418 
L 93.20275 49.432418 
L 93.20275 16.318125 
L 18.41775 16.318125 
L 18.41775 49.432418 
z
" style="fill: none"/>
   </g>
   <g id="matplotlib.axis_1">
    <g id="xtick_1"/>
    <g id="xtick_2"/>
    <g id="xtick_3"/>
    <g id="xtick_4"/>
   </g>
   <g id="matplotlib.axis_2"/>
   <g id="patch_3">
    <path d="M 20.287375 49.432418 
L 35.244375 49.432418 
L 35.244375 17.894996 
L 20.287375 17.894996 
z
" style="fill: #e68193; opacity: 0.5; stroke: #ffffff; stroke-linejoin: miter"/>
   </g>
   <g id="patch_4">
    <path d="M 38.983625 49.432418 
L 53.940625 49.432418 
L 53.940625 46.663432 
L 38.983625 46.663432 
z
" style="fill: #e68193; opacity: 0.5; stroke: #ffffff; stroke-linejoin: miter"/>
   </g>
   <g id="patch_5">
    <path d="M 57.679875 49.432418 
L 72.636875 49.432418 
L 72.636875 36.078212 
L 57.679875 36.078212 
z
" style="fill: #e68193; opacity: 0.5; stroke: #ffffff; stroke-linejoin: miter"/>
   </g>
   <g id="patch_6">
    <path d="M 76.376125 49.432418 
L 91.333125 49.432418 
L 91.333125 34.018188 
L 76.376125 34.018188 
z
" style="fill: #e68193; opacity: 0.5; stroke: #ffffff; stroke-linejoin: miter"/>
   </g>
   <g id="patch_7">
    <path d="M 20.287375 49.432418 
L 35.244375 49.432418 
L 35.244375 48.454758 
L 20.287375 48.454758 
z
" style="fill: #e68193; stroke: #ffffff; stroke-linejoin: miter"/>
   </g>
   <g id="patch_8">
    <path d="M 38.983625 49.432418 
L 53.940625 49.432418 
L 53.940625 49.36682 
L 38.983625 49.36682 
z
" style="fill: #e68193; stroke: #ffffff; stroke-linejoin: miter"/>
   </g>
   <g id="patch_9">
    <path d="M 57.679875 49.432418 
L 72.636875 49.432418 
L 72.636875 49.229317 
L 57.679875 49.229317 
z
" style="fill: #e68193; stroke: #ffffff; stroke-linejoin: miter"/>
   </g>
   <g id="patch_10">
    <path d="M 76.376125 49.432418 
L 91.333125 49.432418 
L 91.333125 49.41728 
L 76.376125 49.41728 
z
" style="fill: #e68193; stroke: #ffffff; stroke-linejoin: miter"/>
   </g>
   <g id="line2d_1">
    <path d="M 18.41775 49.432418 
L 93.20275 49.432418 
" style="fill: none; stroke: #f77189; stroke-width: 0.5; stroke-linecap: round"/>
   </g>
   <g id="text_1">
    <!-- 1 -->
    <g style="fill: #262626" transform="translate(7.2 45.567831) scale(0.09996 -0.09996)">
     <defs>
      <path id="DejaVuSans-31" d="M 794 531 
L 1825 531 
L 1825 4091 
L 703 3866 
L 703 4441 
L 1819 4666 
L 2450 4666 
L 2450 531 
L 3481 531 
L 3481 0 
L 794 0 
L 794 531 
z
" transform="scale(0.015625)"/>
     </defs>
     <use xlink:href="#DejaVuSans-31"/>
    </g>
   </g>
   <g id="text_2">
    <!-- 1000   775   225 -->
    <g style="fill: #262626" transform="translate(96.942 45.567831) scale(0.09996 -0.09996)">
     <defs>
      <path id="DejaVuSans-30" d="M 2034 4250 
Q 1547 4250 1301 3770 
Q 1056 3291 1056 2328 
Q 1056 1369 1301 889 
Q 1547 409 2034 409 
Q 2525 409 2770 889 
Q 3016 1369 3016 2328 
Q 3016 3291 2770 3770 
Q 2525 4250 2034 4250 
z
M 2034 4750 
Q 2819 4750 3233 4129 
Q 3647 3509 3647 2328 
Q 3647 1150 3233 529 
Q 2819 -91 2034 -91 
Q 1250 -91 836 529 
Q 422 1150 422 2328 
Q 422 3509 836 4129 
Q 1250 4750 2034 4750 
z
" transform="scale(0.015625)"/>
      <path id="DejaVuSans-20" transform="scale(0.015625)"/>
      <path id="DejaVuSans-37" d="M 525 4666 
L 3525 4666 
L 3525 4397 
L 1831 0 
L 1172 0 
L 2766 4134 
L 525 4134 
L 525 4666 
z
" transform="scale(0.015625)"/>
      <path id="DejaVuSans-35" d="M 691 4666 
L 3169 4666 
L 3169 4134 
L 1269 4134 
L 1269 2991 
Q 1406 3038 1543 3061 
Q 1681 3084 1819 3084 
Q 2600 3084 3056 2656 
Q 3513 2228 3513 1497 
Q 3513 744 3044 326 
Q 2575 -91 1722 -91 
Q 1428 -91 1123 -41 
Q 819 9 494 109 
L 494 744 
Q 775 591 1075 516 
Q 1375 441 1709 441 
Q 2250 441 2565 725 
Q 2881 1009 2881 1497 
Q 2881 1984 2565 2268 
Q 2250 2553 1709 2553 
Q 1456 2553 1204 2497 
Q 953 2441 691 2322 
L 691 4666 
z
" transform="scale(0.015625)"/>
      <path id="DejaVuSans-32" d="M 1228 531 
L 3431 531 
L 3431 0 
L 469 0 
L 469 531 
Q 828 903 1448 1529 
Q 2069 2156 2228 2338 
Q 2531 2678 2651 2914 
Q 2772 3150 2772 3378 
Q 2772 3750 2511 3984 
Q 2250 4219 1831 4219 
Q 1534 4219 1204 4116 
Q 875 4013 500 3803 
L 500 4441 
Q 881 4594 1212 4672 
Q 1544 4750 1819 4750 
Q 2544 4750 2975 4387 
Q 3406 4025 3406 3419 
Q 3406 3131 3298 2873 
Q 3191 2616 2906 2266 
Q 2828 2175 2409 1742 
Q 1991 1309 1228 531 
z
" transform="scale(0.015625)"/>
     </defs>
     <use xlink:href="#DejaVuSans-31"/>
     <use xlink:href="#DejaVuSans-30" x="63.623047"/>
     <use xlink:href="#DejaVuSans-30" x="127.246094"/>
     <use xlink:href="#DejaVuSans-30" x="190.869141"/>
     <use xlink:href="#DejaVuSans-20" x="254.492188"/>
     <use xlink:href="#DejaVuSans-20" x="286.279297"/>
     <use xlink:href="#DejaVuSans-20" x="318.066406"/>
     <use xlink:href="#DejaVuSans-37" x="349.853516"/>
     <use xlink:href="#DejaVuSans-37" x="413.476562"/>
     <use xlink:href="#DejaVuSans-35" x="477.099609"/>
     <use xlink:href="#DejaVuSans-20" x="540.722656"/>
     <use xlink:href="#DejaVuSans-20" x="572.509766"/>
     <use xlink:href="#DejaVuSans-20" x="604.296875"/>
     <use xlink:href="#DejaVuSans-32" x="636.083984"/>
     <use xlink:href="#DejaVuSans-32" x="699.707031"/>
     <use xlink:href="#DejaVuSans-35" x="763.330078"/>
    </g>
   </g>
  </g>
  <g id="axes_2">
   <g id="patch_11">
    <path d="M 18.41775 82.381139 
L 93.20275 82.381139 
L 93.20275 49.266846 
L 18.41775 49.266846 
L 18.41775 82.381139 
z
" style="fill: none"/>
   </g>
   <g id="matplotlib.axis_3">
    <g id="xtick_5"/>
    <g id="xtick_6"/>
    <g id="xtick_7"/>
    <g id="xtick_8"/>
   </g>
   <g id="matplotlib.axis_4"/>
   <g id="patch_12">
    <path d="M 20.287375 82.381139 
L 35.244375 82.381139 
L 35.244375 50.843718 
L 20.287375 50.843718 
z
" style="fill: #e28164; opacity: 0.5; stroke: #ffffff; stroke-linejoin: miter"/>
   </g>
   <g id="patch_13">
    <path d="M 38.983625 82.381139 
L 53.940625 82.381139 
L 53.940625 79.591265 
L 38.983625 79.591265 
z
" style="fill: #e28164; opacity: 0.5; stroke: #ffffff; stroke-linejoin: miter"/>
   </g>
   <g id="patch_14">
    <path d="M 57.679875 82.381139 
L 72.636875 82.381139 
L 72.636875 68.809308 
L 57.679875 68.809308 
z
" style="fill: #e28164; opacity: 0.5; stroke: #ffffff; stroke-linejoin: miter"/>
   </g>
   <g id="patch_15">
    <path d="M 76.376125 82.381139 
L 91.333125 82.381139 
L 91.333125 66.489403 
L 76.376125 66.489403 
z
" style="fill: #e28164; opacity: 0.5; stroke: #ffffff; stroke-linejoin: miter"/>
   </g>
   <g id="patch_16">
    <path d="M 20.287375 82.381139 
L 35.244375 82.381139 
L 35.244375 81.419069 
L 20.287375 81.419069 
z
" style="fill: #e28164; stroke: #ffffff; stroke-linejoin: miter"/>
   </g>
   <g id="patch_17">
    <path d="M 38.983625 82.381139 
L 53.940625 82.381139 
L 53.940625 82.3538 
L 38.983625 82.3538 
z
" style="fill: #e28164; stroke: #ffffff; stroke-linejoin: miter"/>
   </g>
   <g id="patch_18">
    <path d="M 57.679875 82.381139 
L 72.636875 82.381139 
L 72.636875 82.084317 
L 57.679875 82.084317 
z
" style="fill: #e28164; stroke: #ffffff; stroke-linejoin: miter"/>
   </g>
   <g id="patch_19">
    <path d="M 76.376125 82.381139 
L 91.333125 82.381139 
L 91.333125 82.365517 
L 76.376125 82.365517 
z
" style="fill: #e28164; stroke: #ffffff; stroke-linejoin: miter"/>
   </g>
   <g id="line2d_2">
    <path d="M 18.41775 82.381139 
L 93.20275 82.381139 
" style="fill: none; stroke: #f7754f; stroke-width: 0.5; stroke-linecap: round"/>
   </g>
   <g id="text_3">
    <!-- 2 -->
    <g style="fill: #262626" transform="translate(7.2 78.516552) scale(0.09996 -0.09996)">
     <use xlink:href="#DejaVuSans-32"/>
    </g>
   </g>
   <g id="text_4">
    <!-- 1000   739   261 -->
    <g style="fill: #262626" transform="translate(96.942 78.516552) scale(0.09996 -0.09996)">
     <defs>
      <path id="DejaVuSans-33" d="M 2597 2516 
Q 3050 2419 3304 2112 
Q 3559 1806 3559 1356 
Q 3559 666 3084 287 
Q 2609 -91 1734 -91 
Q 1441 -91 1130 -33 
Q 819 25 488 141 
L 488 750 
Q 750 597 1062 519 
Q 1375 441 1716 441 
Q 2309 441 2620 675 
Q 2931 909 2931 1356 
Q 2931 1769 2642 2001 
Q 2353 2234 1838 2234 
L 1294 2234 
L 1294 2753 
L 1863 2753 
Q 2328 2753 2575 2939 
Q 2822 3125 2822 3475 
Q 2822 3834 2567 4026 
Q 2313 4219 1838 4219 
Q 1578 4219 1281 4162 
Q 984 4106 628 3988 
L 628 4550 
Q 988 4650 1302 4700 
Q 1616 4750 1894 4750 
Q 2613 4750 3031 4423 
Q 3450 4097 3450 3541 
Q 3450 3153 3228 2886 
Q 3006 2619 2597 2516 
z
" transform="scale(0.015625)"/>
      <path id="DejaVuSans-39" d="M 703 97 
L 703 672 
Q 941 559 1184 500 
Q 1428 441 1663 441 
Q 2288 441 2617 861 
Q 2947 1281 2994 2138 
Q 2813 1869 2534 1725 
Q 2256 1581 1919 1581 
Q 1219 1581 811 2004 
Q 403 2428 403 3163 
Q 403 3881 828 4315 
Q 1253 4750 1959 4750 
Q 2769 4750 3195 4129 
Q 3622 3509 3622 2328 
Q 3622 1225 3098 567 
Q 2575 -91 1691 -91 
Q 1453 -91 1209 -44 
Q 966 3 703 97 
z
M 1959 2075 
Q 2384 2075 2632 2365 
Q 2881 2656 2881 3163 
Q 2881 3666 2632 3958 
Q 2384 4250 1959 4250 
Q 1534 4250 1286 3958 
Q 1038 3666 1038 3163 
Q 1038 2656 1286 2365 
Q 1534 2075 1959 2075 
z
" transform="scale(0.015625)"/>
      <path id="DejaVuSans-36" d="M 2113 2584 
Q 1688 2584 1439 2293 
Q 1191 2003 1191 1497 
Q 1191 994 1439 701 
Q 1688 409 2113 409 
Q 2538 409 2786 701 
Q 3034 994 3034 1497 
Q 3034 2003 2786 2293 
Q 2538 2584 2113 2584 
z
M 3366 4563 
L 3366 3988 
Q 3128 4100 2886 4159 
Q 2644 4219 2406 4219 
Q 1781 4219 1451 3797 
Q 1122 3375 1075 2522 
Q 1259 2794 1537 2939 
Q 1816 3084 2150 3084 
Q 2853 3084 3261 2657 
Q 3669 2231 3669 1497 
Q 3669 778 3244 343 
Q 2819 -91 2113 -91 
Q 1303 -91 875 529 
Q 447 1150 447 2328 
Q 447 3434 972 4092 
Q 1497 4750 2381 4750 
Q 2619 4750 2861 4703 
Q 3103 4656 3366 4563 
z
" transform="scale(0.015625)"/>
     </defs>
     <use xlink:href="#DejaVuSans-31"/>
     <use xlink:href="#DejaVuSans-30" x="63.623047"/>
     <use xlink:href="#DejaVuSans-30" x="127.246094"/>
     <use xlink:href="#DejaVuSans-30" x="190.869141"/>
     <use xlink:href="#DejaVuSans-20" x="254.492188"/>
     <use xlink:href="#DejaVuSans-20" x="286.279297"/>
     <use xlink:href="#DejaVuSans-20" x="318.066406"/>
     <use xlink:href="#DejaVuSans-37" x="349.853516"/>
     <use xlink:href="#DejaVuSans-33" x="413.476562"/>
     <use xlink:href="#DejaVuSans-39" x="477.099609"/>
     <use xlink:href="#DejaVuSans-20" x="540.722656"/>
     <use xlink:href="#DejaVuSans-20" x="572.509766"/>
     <use xlink:href="#DejaVuSans-20" x="604.296875"/>
     <use xlink:href="#DejaVuSans-32" x="636.083984"/>
     <use xlink:href="#DejaVuSans-36" x="699.707031"/>
     <use xlink:href="#DejaVuSans-31" x="763.330078"/>
    </g>
   </g>
  </g>
  <g id="axes_3">
   <g id="patch_20">
    <path d="M 18.41775 115.329861 
L 93.20275 115.329861 
L 93.20275 82.215568 
L 18.41775 82.215568 
L 18.41775 115.329861 
z
" style="fill: none"/>
   </g>
   <g id="matplotlib.axis_5">
    <g id="xtick_9"/>
    <g id="xtick_10"/>
    <g id="xtick_11"/>
    <g id="xtick_12"/>
   </g>
   <g id="matplotlib.axis_6"/>
   <g id="patch_21">
    <path d="M 20.287375 115.329861 
L 35.244375 115.329861 
L 35.244375 83.792439 
L 20.287375 83.792439 
z
" style="fill: #c68847; opacity: 0.5; stroke: #ffffff; stroke-linejoin: miter"/>
   </g>
   <g id="patch_22">
    <path d="M 38.983625 115.329861 
L 53.940625 115.329861 
L 53.940625 112.480401 
L 38.983625 112.480401 
z
" style="fill: #c68847; opacity: 0.5; stroke: #ffffff; stroke-linejoin: miter"/>
   </g>
   <g id="patch_23">
    <path d="M 57.679875 115.329861 
L 72.636875 115.329861 
L 72.636875 101.637146 
L 57.679875 101.637146 
z
" style="fill: #c68847; opacity: 0.5; stroke: #ffffff; stroke-linejoin: miter"/>
   </g>
   <g id="patch_24">
    <path d="M 76.376125 115.329861 
L 91.333125 115.329861 
L 91.333125 98.954196 
L 76.376125 98.954196 
z
" style="fill: #c68847; opacity: 0.5; stroke: #ffffff; stroke-linejoin: miter"/>
   </g>
   <g id="patch_25">
    <path d="M 20.287375 115.329861 
L 35.244375 115.329861 
L 35.244375 114.478514 
L 20.287375 114.478514 
z
" style="fill: #c68847; stroke: #ffffff; stroke-linejoin: miter"/>
   </g>
   <g id="patch_26">
    <path d="M 38.983625 115.329861 
L 53.940625 115.329861 
L 53.940625 115.24392 
L 38.983625 115.24392 
z
" style="fill: #c68847; stroke: #ffffff; stroke-linejoin: miter"/>
   </g>
   <g id="patch_27">
    <path d="M 57.679875 115.329861 
L 72.636875 115.329861 
L 72.636875 114.928358 
L 57.679875 114.928358 
z
" style="fill: #c68847; stroke: #ffffff; stroke-linejoin: miter"/>
   </g>
   <g id="patch_28">
    <path d="M 76.376125 115.329861 
L 91.333125 115.329861 
L 91.333125 115.325832 
L 76.376125 115.325832 
z
" style="fill: #c68847; stroke: #ffffff; stroke-linejoin: miter"/>
   </g>
   <g id="line2d_3">
    <path d="M 18.41775 115.329861 
L 93.20275 115.329861 
" style="fill: none; stroke: #dc8932; stroke-width: 0.5; stroke-linecap: round"/>
   </g>
   <g id="text_5">
    <!-- 3 -->
    <g style="fill: #262626" transform="translate(7.2 111.465273) scale(0.09996 -0.09996)">
     <use xlink:href="#DejaVuSans-33"/>
    </g>
   </g>
   <g id="text_6">
    <!-- 1000   634   366 -->
    <g style="fill: #262626" transform="translate(96.942 111.465273) scale(0.09996 -0.09996)">
     <defs>
      <path id="DejaVuSans-34" d="M 2419 4116 
L 825 1625 
L 2419 1625 
L 2419 4116 
z
M 2253 4666 
L 3047 4666 
L 3047 1625 
L 3713 1625 
L 3713 1100 
L 3047 1100 
L 3047 0 
L 2419 0 
L 2419 1100 
L 313 1100 
L 313 1709 
L 2253 4666 
z
" transform="scale(0.015625)"/>
     </defs>
     <use xlink:href="#DejaVuSans-31"/>
     <use xlink:href="#DejaVuSans-30" x="63.623047"/>
     <use xlink:href="#DejaVuSans-30" x="127.246094"/>
     <use xlink:href="#DejaVuSans-30" x="190.869141"/>
     <use xlink:href="#DejaVuSans-20" x="254.492188"/>
     <use xlink:href="#DejaVuSans-20" x="286.279297"/>
     <use xlink:href="#DejaVuSans-20" x="318.066406"/>
     <use xlink:href="#DejaVuSans-36" x="349.853516"/>
     <use xlink:href="#DejaVuSans-33" x="413.476562"/>
     <use xlink:href="#DejaVuSans-34" x="477.099609"/>
     <use xlink:href="#DejaVuSans-20" x="540.722656"/>
     <use xlink:href="#DejaVuSans-20" x="572.509766"/>
     <use xlink:href="#DejaVuSans-20" x="604.296875"/>
     <use xlink:href="#DejaVuSans-33" x="636.083984"/>
     <use xlink:href="#DejaVuSans-36" x="699.707031"/>
     <use xlink:href="#DejaVuSans-36" x="763.330078"/>
    </g>
   </g>
  </g>
  <g id="axes_4">
   <g id="patch_29">
    <path d="M 18.41775 148.278582 
L 93.20275 148.278582 
L 93.20275 115.164289 
L 18.41775 115.164289 
L 18.41775 148.278582 
z
" style="fill: none"/>
   </g>
   <g id="matplotlib.axis_7">
    <g id="xtick_13"/>
    <g id="xtick_14"/>
    <g id="xtick_15"/>
    <g id="xtick_16"/>
   </g>
   <g id="matplotlib.axis_8"/>
   <g id="patch_30">
    <path d="M 20.287375 148.278582 
L 35.244375 148.278582 
L 35.244375 116.74116 
L 20.287375 116.74116 
z
" style="fill: #b08e44; opacity: 0.5; stroke: #ffffff; stroke-linejoin: miter"/>
   </g>
   <g id="patch_31">
    <path d="M 38.983625 148.278582 
L 53.940625 148.278582 
L 53.940625 145.438393 
L 38.983625 145.438393 
z
" style="fill: #b08e44; opacity: 0.5; stroke: #ffffff; stroke-linejoin: miter"/>
   </g>
   <g id="patch_32">
    <path d="M 57.679875 148.278582 
L 72.636875 148.278582 
L 72.636875 134.618622 
L 57.679875 134.618622 
z
" style="fill: #b08e44; opacity: 0.5; stroke: #ffffff; stroke-linejoin: miter"/>
   </g>
   <g id="patch_33">
    <path d="M 76.376125 148.278582 
L 91.333125 148.278582 
L 91.333125 131.452736 
L 76.376125 131.452736 
z
" style="fill: #b08e44; opacity: 0.5; stroke: #ffffff; stroke-linejoin: miter"/>
   </g>
   <g id="patch_34">
    <path d="M 20.287375 148.278582 
L 35.244375 148.278582 
L 35.244375 147.407756 
L 20.287375 147.407756 
z
" style="fill: #b08e44; stroke: #ffffff; stroke-linejoin: miter"/>
   </g>
   <g id="patch_35">
    <path d="M 38.983625 148.278582 
L 53.940625 148.278582 
L 53.940625 148.181977 
L 38.983625 148.181977 
z
" style="fill: #b08e44; stroke: #ffffff; stroke-linejoin: miter"/>
   </g>
   <g id="patch_36">
    <path d="M 57.679875 148.278582 
L 72.636875 148.278582 
L 72.636875 147.875601 
L 57.679875 147.875601 
z
" style="fill: #b08e44; stroke: #ffffff; stroke-linejoin: miter"/>
   </g>
   <g id="patch_37">
    <path d="M 76.376125 148.278582 
L 91.333125 148.278582 
L 91.333125 148.268922 
L 76.376125 148.268922 
z
" style="fill: #b08e44; stroke: #ffffff; stroke-linejoin: miter"/>
   </g>
   <g id="line2d_4">
    <path d="M 18.41775 148.278582 
L 93.20275 148.278582 
" style="fill: none; stroke: #c39532; stroke-width: 0.5; stroke-linecap: round"/>
   </g>
   <g id="text_7">
    <!-- 4 -->
    <g style="fill: #262626" transform="translate(7.2 144.413995) scale(0.09996 -0.09996)">
     <use xlink:href="#DejaVuSans-34"/>
    </g>
   </g>
   <g id="text_8">
    <!-- 1000   631   369 -->
    <g style="fill: #262626" transform="translate(96.942 144.413995) scale(0.09996 -0.09996)">
     <use xlink:href="#DejaVuSans-31"/>
     <use xlink:href="#DejaVuSans-30" x="63.623047"/>
     <use xlink:href="#DejaVuSans-30" x="127.246094"/>
     <use xlink:href="#DejaVuSans-30" x="190.869141"/>
     <use xlink:href="#DejaVuSans-20" x="254.492188"/>
     <use xlink:href="#DejaVuSans-20" x="286.279297"/>
     <use xlink:href="#DejaVuSans-20" x="318.066406"/>
     <use xlink:href="#DejaVuSans-36" x="349.853516"/>
     <use xlink:href="#DejaVuSans-33" x="413.476562"/>
     <use xlink:href="#DejaVuSans-31" x="477.099609"/>
     <use xlink:href="#DejaVuSans-20" x="540.722656"/>
     <use xlink:href="#DejaVuSans-20" x="572.509766"/>
     <use xlink:href="#DejaVuSans-20" x="604.296875"/>
     <use xlink:href="#DejaVuSans-33" x="636.083984"/>
     <use xlink:href="#DejaVuSans-36" x="699.707031"/>
     <use xlink:href="#DejaVuSans-39" x="763.330078"/>
    </g>
   </g>
  </g>
  <g id="axes_5">
   <g id="patch_38">
    <path d="M 18.41775 181.227304 
L 93.20275 181.227304 
L 93.20275 148.113011 
L 18.41775 148.113011 
L 18.41775 181.227304 
z
" style="fill: none"/>
   </g>
   <g id="matplotlib.axis_9">
    <g id="xtick_17"/>
    <g id="xtick_18"/>
    <g id="xtick_19"/>
    <g id="xtick_20"/>
   </g>
   <g id="matplotlib.axis_10"/>
   <g id="patch_39">
    <path d="M 20.287375 181.227304 
L 35.244375 181.227304 
L 35.244375 149.689882 
L 20.287375 149.689882 
z
" style="fill: #9e9241; opacity: 0.5; stroke: #ffffff; stroke-linejoin: miter"/>
   </g>
   <g id="patch_40">
    <path d="M 38.983625 181.227304 
L 53.940625 181.227304 
L 53.940625 178.405811 
L 38.983625 178.405811 
z
" style="fill: #9e9241; opacity: 0.5; stroke: #ffffff; stroke-linejoin: miter"/>
   </g>
   <g id="patch_41">
    <path d="M 57.679875 181.227304 
L 72.636875 181.227304 
L 72.636875 167.593872 
L 57.679875 167.593872 
z
" style="fill: #9e9241; opacity: 0.5; stroke: #ffffff; stroke-linejoin: miter"/>
   </g>
   <g id="patch_42">
    <path d="M 76.376125 181.227304 
L 91.333125 181.227304 
L 91.333125 163.933596 
L 76.376125 163.933596 
z
" style="fill: #9e9241; opacity: 0.5; stroke: #ffffff; stroke-linejoin: miter"/>
   </g>
   <g id="patch_43">
    <path d="M 20.287375 181.227304 
L 35.244375 181.227304 
L 35.244375 180.340265 
L 20.287375 180.340265 
z
" style="fill: #9e9241; stroke: #ffffff; stroke-linejoin: miter"/>
   </g>
   <g id="patch_44">
    <path d="M 38.983625 181.227304 
L 53.940625 181.227304 
L 53.940625 181.149244 
L 38.983625 181.149244 
z
" style="fill: #9e9241; stroke: #ffffff; stroke-linejoin: miter"/>
   </g>
   <g id="patch_45">
    <path d="M 57.679875 181.227304 
L 72.636875 181.227304 
L 72.636875 180.842684 
L 57.679875 180.842684 
z
" style="fill: #9e9241; stroke: #ffffff; stroke-linejoin: miter"/>
   </g>
   <g id="patch_46">
    <path d="M 76.376125 181.227304 
L 91.333125 181.227304 
L 91.333125 181.15776 
L 76.376125 181.15776 
z
" style="fill: #9e9241; stroke: #ffffff; stroke-linejoin: miter"/>
   </g>
   <g id="line2d_5">
    <path d="M 18.41775 181.227304 
L 93.20275 181.227304 
" style="fill: none; stroke: #ae9d31; stroke-width: 0.5; stroke-linecap: round"/>
   </g>
   <g id="text_9">
    <!-- 5 -->
    <g style="fill: #262626" transform="translate(7.2 177.362716) scale(0.09996 -0.09996)">
     <use xlink:href="#DejaVuSans-35"/>
    </g>
   </g>
   <g id="text_10">
    <!-- 1000   625   375 -->
    <g style="fill: #262626" transform="translate(96.942 177.362716) scale(0.09996 -0.09996)">
     <use xlink:href="#DejaVuSans-31"/>
     <use xlink:href="#DejaVuSans-30" x="63.623047"/>
     <use xlink:href="#DejaVuSans-30" x="127.246094"/>
     <use xlink:href="#DejaVuSans-30" x="190.869141"/>
     <use xlink:href="#DejaVuSans-20" x="254.492188"/>
     <use xlink:href="#DejaVuSans-20" x="286.279297"/>
     <use xlink:href="#DejaVuSans-20" x="318.066406"/>
     <use xlink:href="#DejaVuSans-36" x="349.853516"/>
     <use xlink:href="#DejaVuSans-32" x="413.476562"/>
     <use xlink:href="#DejaVuSans-35" x="477.099609"/>
     <use xlink:href="#DejaVuSans-20" x="540.722656"/>
     <use xlink:href="#DejaVuSans-20" x="572.509766"/>
     <use xlink:href="#DejaVuSans-20" x="604.296875"/>
     <use xlink:href="#DejaVuSans-33" x="636.083984"/>
     <use xlink:href="#DejaVuSans-37" x="699.707031"/>
     <use xlink:href="#DejaVuSans-35" x="763.330078"/>
    </g>
   </g>
  </g>
  <g id="axes_6">
   <g id="patch_47">
    <path d="M 18.41775 214.176025 
L 93.20275 214.176025 
L 93.20275 181.061732 
L 18.41775 181.061732 
L 18.41775 214.176025 
z
" style="fill: none"/>
   </g>
   <g id="matplotlib.axis_11">
    <g id="xtick_21"/>
    <g id="xtick_22"/>
    <g id="xtick_23"/>
    <g id="xtick_24"/>
   </g>
   <g id="matplotlib.axis_12"/>
   <g id="patch_48">
    <path d="M 20.287375 214.176025 
L 35.244375 214.176025 
L 35.244375 182.638603 
L 20.287375 182.638603 
z
" style="fill: #8c9540; opacity: 0.5; stroke: #ffffff; stroke-linejoin: miter"/>
   </g>
   <g id="patch_49">
    <path d="M 38.983625 214.176025 
L 53.940625 214.176025 
L 53.940625 211.353195 
L 38.983625 211.353195 
z
" style="fill: #8c9540; opacity: 0.5; stroke: #ffffff; stroke-linejoin: miter"/>
   </g>
   <g id="patch_50">
    <path d="M 57.679875 214.176025 
L 72.636875 214.176025 
L 72.636875 200.543786 
L 57.679875 200.543786 
z
" style="fill: #8c9540; opacity: 0.5; stroke: #ffffff; stroke-linejoin: miter"/>
   </g>
   <g id="patch_51">
    <path d="M 76.376125 214.176025 
L 91.333125 214.176025 
L 91.333125 196.453384 
L 76.376125 196.453384 
z
" style="fill: #8c9540; opacity: 0.5; stroke: #ffffff; stroke-linejoin: miter"/>
   </g>
   <g id="patch_52">
    <path d="M 20.287375 214.176025 
L 35.244375 214.176025 
L 35.244375 213.388904 
L 20.287375 213.388904 
z
" style="fill: #8c9540; stroke: #ffffff; stroke-linejoin: miter"/>
   </g>
   <g id="patch_53">
    <path d="M 38.983625 214.176025 
L 53.940625 214.176025 
L 53.940625 214.127834 
L 38.983625 214.127834 
z
" style="fill: #8c9540; stroke: #ffffff; stroke-linejoin: miter"/>
   </g>
   <g id="patch_54">
    <path d="M 57.679875 214.176025 
L 72.636875 214.176025 
L 72.636875 213.594811 
L 57.679875 213.594811 
z
" style="fill: #8c9540; stroke: #ffffff; stroke-linejoin: miter"/>
   </g>
   <g id="patch_55">
    <path d="M 76.376125 214.176025 
L 91.333125 214.176025 
L 91.333125 214.132215 
L 76.376125 214.132215 
z
" style="fill: #8c9540; stroke: #ffffff; stroke-linejoin: miter"/>
   </g>
   <g id="line2d_6">
    <path d="M 18.41775 214.176025 
L 93.20275 214.176025 
" style="fill: none; stroke: #97a431; stroke-width: 0.5; stroke-linecap: round"/>
   </g>
   <g id="text_11">
    <!-- 6 -->
    <g style="fill: #262626" transform="translate(7.2 210.311438) scale(0.09996 -0.09996)">
     <use xlink:href="#DejaVuSans-36"/>
    </g>
   </g>
   <g id="text_12">
    <!-- 1000   539   461 -->
    <g style="fill: #262626" transform="translate(96.942 210.311438) scale(0.09996 -0.09996)">
     <use xlink:href="#DejaVuSans-31"/>
     <use xlink:href="#DejaVuSans-30" x="63.623047"/>
     <use xlink:href="#DejaVuSans-30" x="127.246094"/>
     <use xlink:href="#DejaVuSans-30" x="190.869141"/>
     <use xlink:href="#DejaVuSans-20" x="254.492188"/>
     <use xlink:href="#DejaVuSans-20" x="286.279297"/>
     <use xlink:href="#DejaVuSans-20" x="318.066406"/>
     <use xlink:href="#DejaVuSans-35" x="349.853516"/>
     <use xlink:href="#DejaVuSans-33" x="413.476562"/>
     <use xlink:href="#DejaVuSans-39" x="477.099609"/>
     <use xlink:href="#DejaVuSans-20" x="540.722656"/>
     <use xlink:href="#DejaVuSans-20" x="572.509766"/>
     <use xlink:href="#DejaVuSans-20" x="604.296875"/>
     <use xlink:href="#DejaVuSans-34" x="636.083984"/>
     <use xlink:href="#DejaVuSans-36" x="699.707031"/>
     <use xlink:href="#DejaVuSans-31" x="763.330078"/>
    </g>
   </g>
  </g>
  <g id="axes_7">
   <g id="patch_56">
    <path d="M 18.41775 247.124746 
L 93.20275 247.124746 
L 93.20275 214.010454 
L 18.41775 214.010454 
L 18.41775 247.124746 
z
" style="fill: none"/>
   </g>
   <g id="matplotlib.axis_13">
    <g id="xtick_25"/>
    <g id="xtick_26"/>
    <g id="xtick_27"/>
    <g id="xtick_28"/>
   </g>
   <g id="matplotlib.axis_14"/>
   <g id="patch_57">
    <path d="M 20.287375 247.124746 
L 35.244375 247.124746 
L 35.244375 215.587325 
L 20.287375 215.587325 
z
" style="fill: #759c40; opacity: 0.5; stroke: #ffffff; stroke-linejoin: miter"/>
   </g>
   <g id="patch_58">
    <path d="M 38.983625 247.124746 
L 53.940625 247.124746 
L 53.940625 244.279085 
L 38.983625 244.279085 
z
" style="fill: #759c40; opacity: 0.5; stroke: #ffffff; stroke-linejoin: miter"/>
   </g>
   <g id="patch_59">
    <path d="M 57.679875 247.124746 
L 72.636875 247.124746 
L 72.636875 233.739652 
L 57.679875 233.739652 
z
" style="fill: #759c40; opacity: 0.5; stroke: #ffffff; stroke-linejoin: miter"/>
   </g>
   <g id="patch_60">
    <path d="M 76.376125 247.124746 
L 91.333125 247.124746 
L 91.333125 228.993387 
L 76.376125 228.993387 
z
" style="fill: #759c40; opacity: 0.5; stroke: #ffffff; stroke-linejoin: miter"/>
   </g>
   <g id="patch_61">
    <path d="M 20.287375 247.124746 
L 35.244375 247.124746 
L 35.244375 246.220126 
L 20.287375 246.220126 
z
" style="fill: #759c40; stroke: #ffffff; stroke-linejoin: miter"/>
   </g>
   <g id="patch_62">
    <path d="M 38.983625 247.124746 
L 53.940625 247.124746 
L 53.940625 247.094792 
L 38.983625 247.094792 
z
" style="fill: #759c40; stroke: #ffffff; stroke-linejoin: miter"/>
   </g>
   <g id="patch_63">
    <path d="M 57.679875 247.124746 
L 72.636875 247.124746 
L 72.636875 246.634993 
L 57.679875 246.634993 
z
" style="fill: #759c40; stroke: #ffffff; stroke-linejoin: miter"/>
   </g>
   <g id="patch_64">
    <path d="M 76.376125 247.124746 
L 91.333125 247.124746 
L 91.333125 247.051358 
L 76.376125 247.051358 
z
" style="fill: #759c40; stroke: #ffffff; stroke-linejoin: miter"/>
   </g>
   <g id="line2d_7">
    <path d="M 18.41775 247.124746 
L 93.20275 247.124746 
" style="fill: none; stroke: #77ab31; stroke-width: 0.5; stroke-linecap: round"/>
   </g>
   <g id="text_13">
    <!-- 7 -->
    <g style="fill: #262626" transform="translate(7.2 243.260159) scale(0.09996 -0.09996)">
     <use xlink:href="#DejaVuSans-37"/>
    </g>
   </g>
   <g id="text_14">
    <!-- 1000   604   396 -->
    <g style="fill: #262626" transform="translate(96.942 243.260159) scale(0.09996 -0.09996)">
     <use xlink:href="#DejaVuSans-31"/>
     <use xlink:href="#DejaVuSans-30" x="63.623047"/>
     <use xlink:href="#DejaVuSans-30" x="127.246094"/>
     <use xlink:href="#DejaVuSans-30" x="190.869141"/>
     <use xlink:href="#DejaVuSans-20" x="254.492188"/>
     <use xlink:href="#DejaVuSans-20" x="286.279297"/>
     <use xlink:href="#DejaVuSans-20" x="318.066406"/>
     <use xlink:href="#DejaVuSans-36" x="349.853516"/>
     <use xlink:href="#DejaVuSans-30" x="413.476562"/>
     <use xlink:href="#DejaVuSans-34" x="477.099609"/>
     <use xlink:href="#DejaVuSans-20" x="540.722656"/>
     <use xlink:href="#DejaVuSans-20" x="572.509766"/>
     <use xlink:href="#DejaVuSans-20" x="604.296875"/>
     <use xlink:href="#DejaVuSans-33" x="636.083984"/>
     <use xlink:href="#DejaVuSans-39" x="699.707031"/>
     <use xlink:href="#DejaVuSans-36" x="763.330078"/>
    </g>
   </g>
  </g>
  <g id="axes_8">
   <g id="patch_65">
    <path d="M 18.41775 280.073468 
L 93.20275 280.073468 
L 93.20275 246.959175 
L 18.41775 246.959175 
L 18.41775 280.073468 
z
" style="fill: none"/>
   </g>
   <g id="matplotlib.axis_15">
    <g id="xtick_29"/>
    <g id="xtick_30"/>
    <g id="xtick_31"/>
    <g id="xtick_32"/>
   </g>
   <g id="matplotlib.axis_16"/>
   <g id="patch_66">
    <path d="M 20.287375 280.073468 
L 35.244375 280.073468 
L 35.244375 248.536046 
L 20.287375 248.536046 
z
" style="fill: #41a34b; opacity: 0.5; stroke: #ffffff; stroke-linejoin: miter"/>
   </g>
   <g id="patch_67">
    <path d="M 38.983625 280.073468 
L 53.940625 280.073468 
L 53.940625 277.174609 
L 38.983625 277.174609 
z
" style="fill: #41a34b; opacity: 0.5; stroke: #ffffff; stroke-linejoin: miter"/>
   </g>
   <g id="patch_68">
    <path d="M 57.679875 280.073468 
L 72.636875 280.073468 
L 72.636875 266.797313 
L 57.679875 266.797313 
z
" style="fill: #41a34b; opacity: 0.5; stroke: #ffffff; stroke-linejoin: miter"/>
   </g>
   <g id="patch_69">
    <path d="M 76.376125 280.073468 
L 91.333125 280.073468 
L 91.333125 261.482225 
L 76.376125 261.482225 
z
" style="fill: #41a34b; opacity: 0.5; stroke: #ffffff; stroke-linejoin: miter"/>
   </g>
   <g id="patch_70">
    <path d="M 20.287375 280.073468 
L 35.244375 280.073468 
L 35.244375 279.290159 
L 20.287375 279.290159 
z
" style="fill: #41a34b; stroke: #ffffff; stroke-linejoin: miter"/>
   </g>
   <g id="patch_71">
    <path d="M 38.983625 280.073468 
L 53.940625 280.073468 
L 53.940625 280.007164 
L 38.983625 280.007164 
z
" style="fill: #41a34b; stroke: #ffffff; stroke-linejoin: miter"/>
   </g>
   <g id="patch_72">
    <path d="M 57.679875 280.073468 
L 72.636875 280.073468 
L 72.636875 279.482903 
L 57.679875 279.482903 
z
" style="fill: #41a34b; stroke: #ffffff; stroke-linejoin: miter"/>
   </g>
   <g id="patch_73">
    <path d="M 76.376125 280.073468 
L 91.333125 280.073468 
L 91.333125 279.971699 
L 76.376125 279.971699 
z
" style="fill: #41a34b; stroke: #ffffff; stroke-linejoin: miter"/>
   </g>
   <g id="line2d_8">
    <path d="M 18.41775 280.073468 
L 93.20275 280.073468 
" style="fill: none; stroke: #31b33e; stroke-width: 0.5; stroke-linecap: round"/>
   </g>
   <g id="text_15">
    <!-- 8 -->
    <g style="fill: #262626" transform="translate(7.2 276.208881) scale(0.09996 -0.09996)">
     <defs>
      <path id="DejaVuSans-38" d="M 2034 2216 
Q 1584 2216 1326 1975 
Q 1069 1734 1069 1313 
Q 1069 891 1326 650 
Q 1584 409 2034 409 
Q 2484 409 2743 651 
Q 3003 894 3003 1313 
Q 3003 1734 2745 1975 
Q 2488 2216 2034 2216 
z
M 1403 2484 
Q 997 2584 770 2862 
Q 544 3141 544 3541 
Q 544 4100 942 4425 
Q 1341 4750 2034 4750 
Q 2731 4750 3128 4425 
Q 3525 4100 3525 3541 
Q 3525 3141 3298 2862 
Q 3072 2584 2669 2484 
Q 3125 2378 3379 2068 
Q 3634 1759 3634 1313 
Q 3634 634 3220 271 
Q 2806 -91 2034 -91 
Q 1263 -91 848 271 
Q 434 634 434 1313 
Q 434 1759 690 2068 
Q 947 2378 1403 2484 
z
M 1172 3481 
Q 1172 3119 1398 2916 
Q 1625 2713 2034 2713 
Q 2441 2713 2670 2916 
Q 2900 3119 2900 3481 
Q 2900 3844 2670 4047 
Q 2441 4250 2034 4250 
Q 1625 4250 1398 4047 
Q 1172 3844 1172 3481 
z
" transform="scale(0.015625)"/>
     </defs>
     <use xlink:href="#DejaVuSans-38"/>
    </g>
   </g>
   <g id="text_16">
    <!-- 1000   508   492 -->
    <g style="fill: #262626" transform="translate(96.942 276.208881) scale(0.09996 -0.09996)">
     <use xlink:href="#DejaVuSans-31"/>
     <use xlink:href="#DejaVuSans-30" x="63.623047"/>
     <use xlink:href="#DejaVuSans-30" x="127.246094"/>
     <use xlink:href="#DejaVuSans-30" x="190.869141"/>
     <use xlink:href="#DejaVuSans-20" x="254.492188"/>
     <use xlink:href="#DejaVuSans-20" x="286.279297"/>
     <use xlink:href="#DejaVuSans-20" x="318.066406"/>
     <use xlink:href="#DejaVuSans-35" x="349.853516"/>
     <use xlink:href="#DejaVuSans-30" x="413.476562"/>
     <use xlink:href="#DejaVuSans-38" x="477.099609"/>
     <use xlink:href="#DejaVuSans-20" x="540.722656"/>
     <use xlink:href="#DejaVuSans-20" x="572.509766"/>
     <use xlink:href="#DejaVuSans-20" x="604.296875"/>
     <use xlink:href="#DejaVuSans-34" x="636.083984"/>
     <use xlink:href="#DejaVuSans-39" x="699.707031"/>
     <use xlink:href="#DejaVuSans-32" x="763.330078"/>
    </g>
   </g>
  </g>
  <g id="axes_9">
   <g id="patch_74">
    <path d="M 18.41775 313.022189 
L 93.20275 313.022189 
L 93.20275 279.907896 
L 18.41775 279.907896 
L 18.41775 313.022189 
z
" style="fill: none"/>
   </g>
   <g id="matplotlib.axis_17">
    <g id="xtick_33"/>
    <g id="xtick_34"/>
    <g id="xtick_35"/>
    <g id="xtick_36"/>
   </g>
   <g id="matplotlib.axis_18"/>
   <g id="patch_75">
    <path d="M 20.287375 313.022189 
L 35.244375 313.022189 
L 35.244375 281.484768 
L 20.287375 281.484768 
z
" style="fill: #43a178; opacity: 0.5; stroke: #ffffff; stroke-linejoin: miter"/>
   </g>
   <g id="patch_76">
    <path d="M 38.983625 313.022189 
L 53.940625 313.022189 
L 53.940625 310.117489 
L 38.983625 310.117489 
z
" style="fill: #43a178; opacity: 0.5; stroke: #ffffff; stroke-linejoin: miter"/>
   </g>
   <g id="patch_77">
    <path d="M 57.679875 313.022189 
L 72.636875 313.022189 
L 72.636875 300.013497 
L 57.679875 300.013497 
z
" style="fill: #43a178; opacity: 0.5; stroke: #ffffff; stroke-linejoin: miter"/>
   </g>
   <g id="patch_78">
    <path d="M 76.376125 313.022189 
L 91.333125 313.022189 
L 91.333125 294.061787 
L 76.376125 294.061787 
z
" style="fill: #43a178; opacity: 0.5; stroke: #ffffff; stroke-linejoin: miter"/>
   </g>
   <g id="patch_79">
    <path d="M 20.287375 313.022189 
L 35.244375 313.022189 
L 35.244375 312.253717 
L 20.287375 312.253717 
z
" style="fill: #43a178; stroke: #ffffff; stroke-linejoin: miter"/>
   </g>
   <g id="patch_80">
    <path d="M 38.983625 313.022189 
L 53.940625 313.022189 
L 53.940625 312.908342 
L 38.983625 312.908342 
z
" style="fill: #43a178; stroke: #ffffff; stroke-linejoin: miter"/>
   </g>
   <g id="patch_81">
    <path d="M 57.679875 313.022189 
L 72.636875 313.022189 
L 72.636875 312.424488 
L 57.679875 312.424488 
z
" style="fill: #43a178; stroke: #ffffff; stroke-linejoin: miter"/>
   </g>
   <g id="patch_82">
    <path d="M 76.376125 313.022189 
L 91.333125 313.022189 
L 91.333125 312.920991 
L 76.376125 312.920991 
z
" style="fill: #43a178; stroke: #ffffff; stroke-linejoin: miter"/>
   </g>
   <g id="line2d_9">
    <path d="M 18.41775 313.022189 
L 93.20275 313.022189 
" style="fill: none; stroke: #33b07a; stroke-width: 0.5; stroke-linecap: round"/>
   </g>
   <g id="text_17">
    <!-- 9 -->
    <g style="fill: #262626" transform="translate(7.2 309.157602) scale(0.09996 -0.09996)">
     <use xlink:href="#DejaVuSans-39"/>
    </g>
   </g>
   <g id="text_18">
    <!-- 1000   486   514 -->
    <g style="fill: #262626" transform="translate(96.942 309.157602) scale(0.09996 -0.09996)">
     <use xlink:href="#DejaVuSans-31"/>
     <use xlink:href="#DejaVuSans-30" x="63.623047"/>
     <use xlink:href="#DejaVuSans-30" x="127.246094"/>
     <use xlink:href="#DejaVuSans-30" x="190.869141"/>
     <use xlink:href="#DejaVuSans-20" x="254.492188"/>
     <use xlink:href="#DejaVuSans-20" x="286.279297"/>
     <use xlink:href="#DejaVuSans-20" x="318.066406"/>
     <use xlink:href="#DejaVuSans-34" x="349.853516"/>
     <use xlink:href="#DejaVuSans-38" x="413.476562"/>
     <use xlink:href="#DejaVuSans-36" x="477.099609"/>
     <use xlink:href="#DejaVuSans-20" x="540.722656"/>
     <use xlink:href="#DejaVuSans-20" x="572.509766"/>
     <use xlink:href="#DejaVuSans-20" x="604.296875"/>
     <use xlink:href="#DejaVuSans-35" x="636.083984"/>
     <use xlink:href="#DejaVuSans-31" x="699.707031"/>
     <use xlink:href="#DejaVuSans-34" x="763.330078"/>
    </g>
   </g>
  </g>
  <g id="axes_10">
   <g id="patch_83">
    <path d="M 18.41775 345.970911 
L 93.20275 345.970911 
L 93.20275 312.856618 
L 18.41775 312.856618 
L 18.41775 345.970911 
z
" style="fill: none"/>
   </g>
   <g id="matplotlib.axis_19">
    <g id="xtick_37"/>
    <g id="xtick_38"/>
    <g id="xtick_39"/>
    <g id="xtick_40"/>
   </g>
   <g id="matplotlib.axis_20"/>
   <g id="patch_84">
    <path d="M 20.287375 345.970911 
L 35.244375 345.970911 
L 35.244375 314.433489 
L 20.287375 314.433489 
z
" style="fill: #449f8b; opacity: 0.5; stroke: #ffffff; stroke-linejoin: miter"/>
   </g>
   <g id="patch_85">
    <path d="M 38.983625 345.970911 
L 53.940625 345.970911 
L 53.940625 343.110355 
L 38.983625 343.110355 
z
" style="fill: #449f8b; opacity: 0.5; stroke: #ffffff; stroke-linejoin: miter"/>
   </g>
   <g id="patch_86">
    <path d="M 57.679875 345.970911 
L 72.636875 345.970911 
L 72.636875 333.249947 
L 57.679875 333.249947 
z
" style="fill: #449f8b; opacity: 0.5; stroke: #ffffff; stroke-linejoin: miter"/>
   </g>
   <g id="patch_87">
    <path d="M 76.376125 345.970911 
L 91.333125 345.970911 
L 91.333125 326.640687 
L 76.376125 326.640687 
z
" style="fill: #449f8b; opacity: 0.5; stroke: #ffffff; stroke-linejoin: miter"/>
   </g>
   <g id="patch_88">
    <path d="M 20.287375 345.970911 
L 35.244375 345.970911 
L 35.244375 345.254556 
L 20.287375 345.254556 
z
" style="fill: #449f8b; stroke: #ffffff; stroke-linejoin: miter"/>
   </g>
   <g id="patch_89">
    <path d="M 38.983625 345.970911 
L 53.940625 345.970911 
L 53.940625 345.850978 
L 38.983625 345.850978 
z
" style="fill: #449f8b; stroke: #ffffff; stroke-linejoin: miter"/>
   </g>
   <g id="patch_90">
    <path d="M 57.679875 345.970911 
L 72.636875 345.970911 
L 72.636875 345.358282 
L 57.679875 345.358282 
z
" style="fill: #449f8b; stroke: #ffffff; stroke-linejoin: miter"/>
   </g>
   <g id="patch_91">
    <path d="M 76.376125 345.970911 
L 91.333125 345.970911 
L 91.333125 345.799115 
L 76.376125 345.799115 
z
" style="fill: #449f8b; stroke: #ffffff; stroke-linejoin: miter"/>
   </g>
   <g id="line2d_10">
    <path d="M 18.41775 345.970911 
L 93.20275 345.970911 
" style="fill: none; stroke: #35ae93; stroke-width: 0.5; stroke-linecap: round"/>
   </g>
   <g id="text_19">
    <!-- 10 -->
    <g style="fill: #262626" transform="translate(7.2 342.106323) scale(0.09996 -0.09996)">
     <use xlink:href="#DejaVuSans-31"/>
     <use xlink:href="#DejaVuSans-30" x="63.623047"/>
    </g>
   </g>
   <g id="text_20">
    <!-- 1000   442   558 -->
    <g style="fill: #262626" transform="translate(96.942 342.106323) scale(0.09996 -0.09996)">
     <use xlink:href="#DejaVuSans-31"/>
     <use xlink:href="#DejaVuSans-30" x="63.623047"/>
     <use xlink:href="#DejaVuSans-30" x="127.246094"/>
     <use xlink:href="#DejaVuSans-30" x="190.869141"/>
     <use xlink:href="#DejaVuSans-20" x="254.492188"/>
     <use xlink:href="#DejaVuSans-20" x="286.279297"/>
     <use xlink:href="#DejaVuSans-20" x="318.066406"/>
     <use xlink:href="#DejaVuSans-34" x="349.853516"/>
     <use xlink:href="#DejaVuSans-34" x="413.476562"/>
     <use xlink:href="#DejaVuSans-32" x="477.099609"/>
     <use xlink:href="#DejaVuSans-20" x="540.722656"/>
     <use xlink:href="#DejaVuSans-20" x="572.509766"/>
     <use xlink:href="#DejaVuSans-20" x="604.296875"/>
     <use xlink:href="#DejaVuSans-35" x="636.083984"/>
     <use xlink:href="#DejaVuSans-35" x="699.707031"/>
     <use xlink:href="#DejaVuSans-38" x="763.330078"/>
    </g>
   </g>
  </g>
  <g id="axes_11">
   <g id="patch_92">
    <path d="M 18.41775 378.919632 
L 93.20275 378.919632 
L 93.20275 345.805339 
L 18.41775 345.805339 
L 18.41775 378.919632 
z
" style="fill: none"/>
   </g>
   <g id="matplotlib.axis_21">
    <g id="xtick_41"/>
    <g id="xtick_42"/>
    <g id="xtick_43"/>
    <g id="xtick_44"/>
   </g>
   <g id="matplotlib.axis_22"/>
   <g id="patch_93">
    <path d="M 20.287375 378.919632 
L 35.244375 378.919632 
L 35.244375 347.38221 
L 20.287375 347.38221 
z
" style="fill: #459e97; opacity: 0.5; stroke: #ffffff; stroke-linejoin: miter"/>
   </g>
   <g id="patch_94">
    <path d="M 38.983625 378.919632 
L 53.940625 378.919632 
L 53.940625 376.115311 
L 38.983625 376.115311 
z
" style="fill: #459e97; opacity: 0.5; stroke: #ffffff; stroke-linejoin: miter"/>
   </g>
   <g id="patch_95">
    <path d="M 57.679875 378.919632 
L 72.636875 378.919632 
L 72.636875 366.529872 
L 57.679875 366.529872 
z
" style="fill: #459e97; opacity: 0.5; stroke: #ffffff; stroke-linejoin: miter"/>
   </g>
   <g id="patch_96">
    <path d="M 76.376125 378.919632 
L 91.333125 378.919632 
L 91.333125 359.315916 
L 76.376125 359.315916 
z
" style="fill: #459e97; opacity: 0.5; stroke: #ffffff; stroke-linejoin: miter"/>
   </g>
   <g id="patch_97">
    <path d="M 20.287375 378.919632 
L 35.244375 378.919632 
L 35.244375 377.966063 
L 20.287375 377.966063 
z
" style="fill: #459e97; stroke: #ffffff; stroke-linejoin: miter"/>
   </g>
   <g id="patch_98">
    <path d="M 38.983625 378.919632 
L 53.940625 378.919632 
L 53.940625 378.77867 
L 38.983625 378.77867 
z
" style="fill: #459e97; stroke: #ffffff; stroke-linejoin: miter"/>
   </g>
   <g id="patch_99">
    <path d="M 57.679875 378.919632 
L 72.636875 378.919632 
L 72.636875 378.518304 
L 57.679875 378.518304 
z
" style="fill: #459e97; stroke: #ffffff; stroke-linejoin: miter"/>
   </g>
   <g id="patch_100">
    <path d="M 76.376125 378.919632 
L 91.333125 378.919632 
L 91.333125 378.757111 
L 76.376125 378.757111 
z
" style="fill: #459e97; stroke: #ffffff; stroke-linejoin: miter"/>
   </g>
   <g id="line2d_11">
    <path d="M 18.41775 378.919632 
L 93.20275 378.919632 
" style="fill: none; stroke: #36ada4; stroke-width: 0.5; stroke-linecap: round"/>
   </g>
   <g id="text_21">
    <!-- 11 -->
    <g style="fill: #262626" transform="translate(7.2 375.055045) scale(0.09996 -0.09996)">
     <use xlink:href="#DejaVuSans-31"/>
     <use xlink:href="#DejaVuSans-31" x="63.623047"/>
    </g>
   </g>
   <g id="text_22">
    <!-- 1000   575   425 -->
    <g style="fill: #262626" transform="translate(96.942 375.055045) scale(0.09996 -0.09996)">
     <use xlink:href="#DejaVuSans-31"/>
     <use xlink:href="#DejaVuSans-30" x="63.623047"/>
     <use xlink:href="#DejaVuSans-30" x="127.246094"/>
     <use xlink:href="#DejaVuSans-30" x="190.869141"/>
     <use xlink:href="#DejaVuSans-20" x="254.492188"/>
     <use xlink:href="#DejaVuSans-20" x="286.279297"/>
     <use xlink:href="#DejaVuSans-20" x="318.066406"/>
     <use xlink:href="#DejaVuSans-35" x="349.853516"/>
     <use xlink:href="#DejaVuSans-37" x="413.476562"/>
     <use xlink:href="#DejaVuSans-35" x="477.099609"/>
     <use xlink:href="#DejaVuSans-20" x="540.722656"/>
     <use xlink:href="#DejaVuSans-20" x="572.509766"/>
     <use xlink:href="#DejaVuSans-20" x="604.296875"/>
     <use xlink:href="#DejaVuSans-34" x="636.083984"/>
     <use xlink:href="#DejaVuSans-32" x="699.707031"/>
     <use xlink:href="#DejaVuSans-35" x="763.330078"/>
    </g>
   </g>
  </g>
  <g id="axes_12">
   <g id="patch_101">
    <path d="M 18.41775 411.868354 
L 93.20275 411.868354 
L 93.20275 378.754061 
L 18.41775 378.754061 
L 18.41775 411.868354 
z
" style="fill: none"/>
   </g>
   <g id="matplotlib.axis_23">
    <g id="xtick_45"/>
    <g id="xtick_46"/>
    <g id="xtick_47"/>
    <g id="xtick_48"/>
   </g>
   <g id="matplotlib.axis_24"/>
   <g id="patch_102">
    <path d="M 20.287375 411.868354 
L 35.244375 411.868354 
L 35.244375 380.330932 
L 20.287375 380.330932 
z
" style="fill: #469ea4; opacity: 0.5; stroke: #ffffff; stroke-linejoin: miter"/>
   </g>
   <g id="patch_103">
    <path d="M 38.983625 411.868354 
L 53.940625 411.868354 
L 53.940625 409.121954 
L 38.983625 409.121954 
z
" style="fill: #469ea4; opacity: 0.5; stroke: #ffffff; stroke-linejoin: miter"/>
   </g>
   <g id="patch_104">
    <path d="M 57.679875 411.868354 
L 72.636875 411.868354 
L 72.636875 399.506136 
L 57.679875 399.506136 
z
" style="fill: #469ea4; opacity: 0.5; stroke: #ffffff; stroke-linejoin: miter"/>
   </g>
   <g id="patch_105">
    <path d="M 76.376125 411.868354 
L 91.333125 411.868354 
L 91.333125 391.821005 
L 76.376125 391.821005 
z
" style="fill: #469ea4; opacity: 0.5; stroke: #ffffff; stroke-linejoin: miter"/>
   </g>
   <g id="patch_106">
    <path d="M 20.287375 411.868354 
L 35.244375 411.868354 
L 35.244375 411.20142 
L 20.287375 411.20142 
z
" style="fill: #469ea4; stroke: #ffffff; stroke-linejoin: miter"/>
   </g>
   <g id="patch_107">
    <path d="M 38.983625 411.868354 
L 53.940625 411.868354 
L 53.940625 411.748648 
L 38.983625 411.748648 
z
" style="fill: #469ea4; stroke: #ffffff; stroke-linejoin: miter"/>
   </g>
   <g id="patch_108">
    <path d="M 57.679875 411.868354 
L 72.636875 411.868354 
L 72.636875 411.198 
L 57.679875 411.198 
z
" style="fill: #469ea4; stroke: #ffffff; stroke-linejoin: miter"/>
   </g>
   <g id="patch_109">
    <path d="M 76.376125 411.868354 
L 91.333125 411.868354 
L 91.333125 411.615261 
L 76.376125 411.615261 
z
" style="fill: #469ea4; stroke: #ffffff; stroke-linejoin: miter"/>
   </g>
   <g id="line2d_12">
    <path d="M 18.41775 411.868354 
L 93.20275 411.868354 
" style="fill: none; stroke: #37abb4; stroke-width: 0.5; stroke-linecap: round"/>
   </g>
   <g id="text_23">
    <!-- 12 -->
    <g style="fill: #262626" transform="translate(7.2 408.003766) scale(0.09996 -0.09996)">
     <use xlink:href="#DejaVuSans-31"/>
     <use xlink:href="#DejaVuSans-32" x="63.623047"/>
    </g>
   </g>
   <g id="text_24">
    <!-- 1000   390   610 -->
    <g style="fill: #262626" transform="translate(96.942 408.003766) scale(0.09996 -0.09996)">
     <use xlink:href="#DejaVuSans-31"/>
     <use xlink:href="#DejaVuSans-30" x="63.623047"/>
     <use xlink:href="#DejaVuSans-30" x="127.246094"/>
     <use xlink:href="#DejaVuSans-30" x="190.869141"/>
     <use xlink:href="#DejaVuSans-20" x="254.492188"/>
     <use xlink:href="#DejaVuSans-20" x="286.279297"/>
     <use xlink:href="#DejaVuSans-20" x="318.066406"/>
     <use xlink:href="#DejaVuSans-33" x="349.853516"/>
     <use xlink:href="#DejaVuSans-39" x="413.476562"/>
     <use xlink:href="#DejaVuSans-30" x="477.099609"/>
     <use xlink:href="#DejaVuSans-20" x="540.722656"/>
     <use xlink:href="#DejaVuSans-20" x="572.509766"/>
     <use xlink:href="#DejaVuSans-20" x="604.296875"/>
     <use xlink:href="#DejaVuSans-36" x="636.083984"/>
     <use xlink:href="#DejaVuSans-31" x="699.707031"/>
     <use xlink:href="#DejaVuSans-30" x="763.330078"/>
    </g>
   </g>
  </g>
  <g id="axes_13">
   <g id="patch_110">
    <path d="M 18.41775 444.817075 
L 93.20275 444.817075 
L 93.20275 411.702782 
L 18.41775 411.702782 
L 18.41775 444.817075 
z
" style="fill: none"/>
   </g>
   <g id="matplotlib.axis_25">
    <g id="xtick_49"/>
    <g id="xtick_50"/>
    <g id="xtick_51"/>
    <g id="xtick_52"/>
   </g>
   <g id="matplotlib.axis_26"/>
   <g id="patch_111">
    <path d="M 20.287375 444.817075 
L 35.244375 444.817075 
L 35.244375 413.279653 
L 20.287375 413.279653 
z
" style="fill: #4a9eb4; opacity: 0.5; stroke: #ffffff; stroke-linejoin: miter"/>
   </g>
   <g id="patch_112">
    <path d="M 38.983625 444.817075 
L 53.940625 444.817075 
L 53.940625 442.133634 
L 38.983625 442.133634 
z
" style="fill: #4a9eb4; opacity: 0.5; stroke: #ffffff; stroke-linejoin: miter"/>
   </g>
   <g id="patch_113">
    <path d="M 57.679875 444.817075 
L 72.636875 444.817075 
L 72.636875 432.872617 
L 57.679875 432.872617 
z
" style="fill: #4a9eb4; opacity: 0.5; stroke: #ffffff; stroke-linejoin: miter"/>
   </g>
   <g id="patch_114">
    <path d="M 76.376125 444.817075 
L 91.333125 444.817075 
L 91.333125 424.59518 
L 76.376125 424.59518 
z
" style="fill: #4a9eb4; opacity: 0.5; stroke: #ffffff; stroke-linejoin: miter"/>
   </g>
   <g id="patch_115">
    <path d="M 20.287375 444.817075 
L 35.244375 444.817075 
L 35.244375 444.118262 
L 20.287375 444.118262 
z
" style="fill: #4a9eb4; stroke: #ffffff; stroke-linejoin: miter"/>
   </g>
   <g id="patch_116">
    <path d="M 38.983625 444.817075 
L 53.940625 444.817075 
L 53.940625 444.610925 
L 38.983625 444.610925 
z
" style="fill: #4a9eb4; stroke: #ffffff; stroke-linejoin: miter"/>
   </g>
   <g id="patch_117">
    <path d="M 57.679875 444.817075 
L 72.636875 444.817075 
L 72.636875 444.387305 
L 57.679875 444.387305 
z
" style="fill: #4a9eb4; stroke: #ffffff; stroke-linejoin: miter"/>
   </g>
   <g id="patch_118">
    <path d="M 76.376125 444.817075 
L 91.333125 444.817075 
L 91.333125 444.404775 
L 76.376125 444.404775 
z
" style="fill: #4a9eb4; stroke: #ffffff; stroke-linejoin: miter"/>
   </g>
   <g id="line2d_13">
    <path d="M 18.41775 444.817075 
L 93.20275 444.817075 
" style="fill: none; stroke: #38a9c5; stroke-width: 0.5; stroke-linecap: round"/>
   </g>
   <g id="text_25">
    <!-- 13 -->
    <g style="fill: #262626" transform="translate(7.2 440.952488) scale(0.09996 -0.09996)">
     <use xlink:href="#DejaVuSans-31"/>
     <use xlink:href="#DejaVuSans-33" x="63.623047"/>
    </g>
   </g>
   <g id="text_26">
    <!-- 1000   400   600 -->
    <g style="fill: #262626" transform="translate(96.942 440.952488) scale(0.09996 -0.09996)">
     <use xlink:href="#DejaVuSans-31"/>
     <use xlink:href="#DejaVuSans-30" x="63.623047"/>
     <use xlink:href="#DejaVuSans-30" x="127.246094"/>
     <use xlink:href="#DejaVuSans-30" x="190.869141"/>
     <use xlink:href="#DejaVuSans-20" x="254.492188"/>
     <use xlink:href="#DejaVuSans-20" x="286.279297"/>
     <use xlink:href="#DejaVuSans-20" x="318.066406"/>
     <use xlink:href="#DejaVuSans-34" x="349.853516"/>
     <use xlink:href="#DejaVuSans-30" x="413.476562"/>
     <use xlink:href="#DejaVuSans-30" x="477.099609"/>
     <use xlink:href="#DejaVuSans-20" x="540.722656"/>
     <use xlink:href="#DejaVuSans-20" x="572.509766"/>
     <use xlink:href="#DejaVuSans-20" x="604.296875"/>
     <use xlink:href="#DejaVuSans-36" x="636.083984"/>
     <use xlink:href="#DejaVuSans-30" x="699.707031"/>
     <use xlink:href="#DejaVuSans-30" x="763.330078"/>
    </g>
   </g>
  </g>
  <g id="axes_14">
   <g id="patch_119">
    <path d="M 18.41775 477.765796 
L 93.20275 477.765796 
L 93.20275 444.651504 
L 18.41775 444.651504 
L 18.41775 477.765796 
z
" style="fill: none"/>
   </g>
   <g id="matplotlib.axis_27">
    <g id="xtick_53"/>
    <g id="xtick_54"/>
    <g id="xtick_55"/>
    <g id="xtick_56"/>
   </g>
   <g id="matplotlib.axis_28"/>
   <g id="patch_120">
    <path d="M 20.287375 477.765796 
L 35.244375 477.765796 
L 35.244375 446.228375 
L 20.287375 446.228375 
z
" style="fill: #4f9fca; opacity: 0.5; stroke: #ffffff; stroke-linejoin: miter"/>
   </g>
   <g id="patch_121">
    <path d="M 38.983625 477.765796 
L 53.940625 477.765796 
L 53.940625 475.232369 
L 38.983625 475.232369 
z
" style="fill: #4f9fca; opacity: 0.5; stroke: #ffffff; stroke-linejoin: miter"/>
   </g>
   <g id="patch_122">
    <path d="M 57.679875 477.765796 
L 72.636875 477.765796 
L 72.636875 465.990182 
L 57.679875 465.990182 
z
" style="fill: #4f9fca; opacity: 0.5; stroke: #ffffff; stroke-linejoin: miter"/>
   </g>
   <g id="patch_123">
    <path d="M 76.376125 477.765796 
L 91.333125 477.765796 
L 91.333125 457.507309 
L 76.376125 457.507309 
z
" style="fill: #4f9fca; opacity: 0.5; stroke: #ffffff; stroke-linejoin: miter"/>
   </g>
   <g id="patch_124">
    <path d="M 20.287375 477.765796 
L 35.244375 477.765796 
L 35.244375 477.115467 
L 20.287375 477.115467 
z
" style="fill: #4f9fca; stroke: #ffffff; stroke-linejoin: miter"/>
   </g>
   <g id="patch_125">
    <path d="M 38.983625 477.765796 
L 53.940625 477.765796 
L 53.940625 477.646093 
L 38.983625 477.646093 
z
" style="fill: #4f9fca; stroke: #ffffff; stroke-linejoin: miter"/>
   </g>
   <g id="patch_126">
    <path d="M 57.679875 477.765796 
L 72.636875 477.765796 
L 72.636875 477.192291 
L 57.679875 477.192291 
z
" style="fill: #4f9fca; stroke: #ffffff; stroke-linejoin: miter"/>
   </g>
   <g id="patch_127">
    <path d="M 76.376125 477.765796 
L 91.333125 477.765796 
L 91.333125 477.322715 
L 76.376125 477.322715 
z
" style="fill: #4f9fca; stroke: #ffffff; stroke-linejoin: miter"/>
   </g>
   <g id="line2d_14">
    <path d="M 18.41775 477.765796 
L 93.20275 477.765796 
" style="fill: none; stroke: #3aa5df; stroke-width: 0.5; stroke-linecap: round"/>
   </g>
   <g id="text_27">
    <!-- 14 -->
    <g style="fill: #262626" transform="translate(7.2 473.901209) scale(0.09996 -0.09996)">
     <use xlink:href="#DejaVuSans-31"/>
     <use xlink:href="#DejaVuSans-34" x="63.623047"/>
    </g>
   </g>
   <g id="text_28">
    <!-- 1000   364   636 -->
    <g style="fill: #262626" transform="translate(96.942 473.901209) scale(0.09996 -0.09996)">
     <use xlink:href="#DejaVuSans-31"/>
     <use xlink:href="#DejaVuSans-30" x="63.623047"/>
     <use xlink:href="#DejaVuSans-30" x="127.246094"/>
     <use xlink:href="#DejaVuSans-30" x="190.869141"/>
     <use xlink:href="#DejaVuSans-20" x="254.492188"/>
     <use xlink:href="#DejaVuSans-20" x="286.279297"/>
     <use xlink:href="#DejaVuSans-20" x="318.066406"/>
     <use xlink:href="#DejaVuSans-33" x="349.853516"/>
     <use xlink:href="#DejaVuSans-36" x="413.476562"/>
     <use xlink:href="#DejaVuSans-34" x="477.099609"/>
     <use xlink:href="#DejaVuSans-20" x="540.722656"/>
     <use xlink:href="#DejaVuSans-20" x="572.509766"/>
     <use xlink:href="#DejaVuSans-20" x="604.296875"/>
     <use xlink:href="#DejaVuSans-36" x="636.083984"/>
     <use xlink:href="#DejaVuSans-33" x="699.707031"/>
     <use xlink:href="#DejaVuSans-36" x="763.330078"/>
    </g>
   </g>
  </g>
  <g id="axes_15">
   <g id="patch_128">
    <path d="M 18.41775 510.714518 
L 93.20275 510.714518 
L 93.20275 477.600225 
L 18.41775 477.600225 
L 18.41775 510.714518 
z
" style="fill: none"/>
   </g>
   <g id="matplotlib.axis_29">
    <g id="xtick_57"/>
    <g id="xtick_58"/>
    <g id="xtick_59"/>
    <g id="xtick_60"/>
   </g>
   <g id="matplotlib.axis_30"/>
   <g id="patch_129">
    <path d="M 20.287375 510.714518 
L 35.244375 510.714518 
L 35.244375 479.177096 
L 20.287375 479.177096 
z
" style="fill: #7fa0e4; opacity: 0.5; stroke: #ffffff; stroke-linejoin: miter"/>
   </g>
   <g id="patch_130">
    <path d="M 38.983625 510.714518 
L 53.940625 510.714518 
L 53.940625 508.249973 
L 38.983625 508.249973 
z
" style="fill: #7fa0e4; opacity: 0.5; stroke: #ffffff; stroke-linejoin: miter"/>
   </g>
   <g id="patch_131">
    <path d="M 57.679875 510.714518 
L 72.636875 510.714518 
L 72.636875 499.276547 
L 57.679875 499.276547 
z
" style="fill: #7fa0e4; opacity: 0.5; stroke: #ffffff; stroke-linejoin: miter"/>
   </g>
   <g id="patch_132">
    <path d="M 76.376125 510.714518 
L 91.333125 510.714518 
L 91.333125 490.481897 
L 76.376125 490.481897 
z
" style="fill: #7fa0e4; opacity: 0.5; stroke: #ffffff; stroke-linejoin: miter"/>
   </g>
   <g id="patch_133">
    <path d="M 20.287375 510.714518 
L 35.244375 510.714518 
L 35.244375 510.183665 
L 20.287375 510.183665 
z
" style="fill: #7fa0e4; stroke: #ffffff; stroke-linejoin: miter"/>
   </g>
   <g id="patch_134">
    <path d="M 38.983625 510.714518 
L 53.940625 510.714518 
L 53.940625 510.510203 
L 38.983625 510.510203 
z
" style="fill: #7fa0e4; stroke: #ffffff; stroke-linejoin: miter"/>
   </g>
   <g id="patch_135">
    <path d="M 57.679875 510.714518 
L 72.636875 510.714518 
L 72.636875 510.114344 
L 57.679875 510.114344 
z
" style="fill: #7fa0e4; stroke: #ffffff; stroke-linejoin: miter"/>
   </g>
   <g id="patch_136">
    <path d="M 76.376125 510.714518 
L 91.333125 510.714518 
L 91.333125 510.225622 
L 76.376125 510.225622 
z
" style="fill: #7fa0e4; stroke: #ffffff; stroke-linejoin: miter"/>
   </g>
   <g id="line2d_15">
    <path d="M 18.41775 510.714518 
L 93.20275 510.714518 
" style="fill: none; stroke: #6e9bf4; stroke-width: 0.5; stroke-linecap: round"/>
   </g>
   <g id="text_29">
    <!-- 15 -->
    <g style="fill: #262626" transform="translate(7.2 506.849931) scale(0.09996 -0.09996)">
     <use xlink:href="#DejaVuSans-31"/>
     <use xlink:href="#DejaVuSans-35" x="63.623047"/>
    </g>
   </g>
   <g id="text_30">
    <!-- 1000   291   709 -->
    <g style="fill: #262626" transform="translate(96.942 506.849931) scale(0.09996 -0.09996)">
     <use xlink:href="#DejaVuSans-31"/>
     <use xlink:href="#DejaVuSans-30" x="63.623047"/>
     <use xlink:href="#DejaVuSans-30" x="127.246094"/>
     <use xlink:href="#DejaVuSans-30" x="190.869141"/>
     <use xlink:href="#DejaVuSans-20" x="254.492188"/>
     <use xlink:href="#DejaVuSans-20" x="286.279297"/>
     <use xlink:href="#DejaVuSans-20" x="318.066406"/>
     <use xlink:href="#DejaVuSans-32" x="349.853516"/>
     <use xlink:href="#DejaVuSans-39" x="413.476562"/>
     <use xlink:href="#DejaVuSans-31" x="477.099609"/>
     <use xlink:href="#DejaVuSans-20" x="540.722656"/>
     <use xlink:href="#DejaVuSans-20" x="572.509766"/>
     <use xlink:href="#DejaVuSans-20" x="604.296875"/>
     <use xlink:href="#DejaVuSans-37" x="636.083984"/>
     <use xlink:href="#DejaVuSans-30" x="699.707031"/>
     <use xlink:href="#DejaVuSans-39" x="763.330078"/>
    </g>
   </g>
  </g>
  <g id="axes_16">
   <g id="patch_137">
    <path d="M 18.41775 543.663239 
L 93.20275 543.663239 
L 93.20275 510.548946 
L 18.41775 510.548946 
L 18.41775 543.663239 
z
" style="fill: none"/>
   </g>
   <g id="matplotlib.axis_31">
    <g id="xtick_61"/>
    <g id="xtick_62"/>
    <g id="xtick_63"/>
    <g id="xtick_64"/>
   </g>
   <g id="matplotlib.axis_32"/>
   <g id="patch_138">
    <path d="M 20.287375 543.663239 
L 35.244375 543.663239 
L 35.244375 512.125817 
L 20.287375 512.125817 
z
" style="fill: #ab99e7; opacity: 0.5; stroke: #ffffff; stroke-linejoin: miter"/>
   </g>
   <g id="patch_139">
    <path d="M 38.983625 543.663239 
L 53.940625 543.663239 
L 53.940625 541.364312 
L 38.983625 541.364312 
z
" style="fill: #ab99e7; opacity: 0.5; stroke: #ffffff; stroke-linejoin: miter"/>
   </g>
   <g id="patch_140">
    <path d="M 57.679875 543.663239 
L 72.636875 543.663239 
L 72.636875 532.639893 
L 57.679875 532.639893 
z
" style="fill: #ab99e7; opacity: 0.5; stroke: #ffffff; stroke-linejoin: miter"/>
   </g>
   <g id="patch_141">
    <path d="M 76.376125 543.663239 
L 91.333125 543.663239 
L 91.333125 523.581489 
L 76.376125 523.581489 
z
" style="fill: #ab99e7; opacity: 0.5; stroke: #ffffff; stroke-linejoin: miter"/>
   </g>
   <g id="patch_142">
    <path d="M 20.287375 543.663239 
L 35.244375 543.663239 
L 35.244375 543.045368 
L 20.287375 543.045368 
z
" style="fill: #ab99e7; stroke: #ffffff; stroke-linejoin: miter"/>
   </g>
   <g id="patch_143">
    <path d="M 38.983625 543.663239 
L 53.940625 543.663239 
L 53.940625 543.522224 
L 38.983625 543.522224 
z
" style="fill: #ab99e7; stroke: #ffffff; stroke-linejoin: miter"/>
   </g>
   <g id="patch_144">
    <path d="M 57.679875 543.663239 
L 72.636875 543.663239 
L 72.636875 543.023102 
L 57.679875 543.023102 
z
" style="fill: #ab99e7; stroke: #ffffff; stroke-linejoin: miter"/>
   </g>
   <g id="patch_145">
    <path d="M 76.376125 543.663239 
L 91.333125 543.663239 
L 91.333125 543.206794 
L 76.376125 543.206794 
z
" style="fill: #ab99e7; stroke: #ffffff; stroke-linejoin: miter"/>
   </g>
   <g id="line2d_16">
    <path d="M 18.41775 543.663239 
L 93.20275 543.663239 
" style="fill: none; stroke: #a48cf4; stroke-width: 0.5; stroke-linecap: round"/>
   </g>
   <g id="text_31">
    <!-- 16 -->
    <g style="fill: #262626" transform="translate(7.2 539.798652) scale(0.09996 -0.09996)">
     <use xlink:href="#DejaVuSans-31"/>
     <use xlink:href="#DejaVuSans-36" x="63.623047"/>
    </g>
   </g>
   <g id="text_32">
    <!-- 1000   333   667 -->
    <g style="fill: #262626" transform="translate(96.942 539.798652) scale(0.09996 -0.09996)">
     <use xlink:href="#DejaVuSans-31"/>
     <use xlink:href="#DejaVuSans-30" x="63.623047"/>
     <use xlink:href="#DejaVuSans-30" x="127.246094"/>
     <use xlink:href="#DejaVuSans-30" x="190.869141"/>
     <use xlink:href="#DejaVuSans-20" x="254.492188"/>
     <use xlink:href="#DejaVuSans-20" x="286.279297"/>
     <use xlink:href="#DejaVuSans-20" x="318.066406"/>
     <use xlink:href="#DejaVuSans-33" x="349.853516"/>
     <use xlink:href="#DejaVuSans-33" x="413.476562"/>
     <use xlink:href="#DejaVuSans-33" x="477.099609"/>
     <use xlink:href="#DejaVuSans-20" x="540.722656"/>
     <use xlink:href="#DejaVuSans-20" x="572.509766"/>
     <use xlink:href="#DejaVuSans-20" x="604.296875"/>
     <use xlink:href="#DejaVuSans-36" x="636.083984"/>
     <use xlink:href="#DejaVuSans-36" x="699.707031"/>
     <use xlink:href="#DejaVuSans-37" x="763.330078"/>
    </g>
   </g>
  </g>
  <g id="axes_17">
   <g id="patch_146">
    <path d="M 18.41775 576.611961 
L 93.20275 576.611961 
L 93.20275 543.497668 
L 18.41775 543.497668 
L 18.41775 576.611961 
z
" style="fill: none"/>
   </g>
   <g id="matplotlib.axis_33">
    <g id="xtick_65"/>
    <g id="xtick_66"/>
    <g id="xtick_67"/>
    <g id="xtick_68"/>
   </g>
   <g id="matplotlib.axis_34"/>
   <g id="patch_147">
    <path d="M 20.287375 576.611961 
L 35.244375 576.611961 
L 35.244375 545.074539 
L 20.287375 545.074539 
z
" style="fill: #c789e5; opacity: 0.5; stroke: #ffffff; stroke-linejoin: miter"/>
   </g>
   <g id="patch_148">
    <path d="M 38.983625 576.611961 
L 53.940625 576.611961 
L 53.940625 574.410927 
L 38.983625 574.410927 
z
" style="fill: #c789e5; opacity: 0.5; stroke: #ffffff; stroke-linejoin: miter"/>
   </g>
   <g id="patch_149">
    <path d="M 57.679875 576.611961 
L 72.636875 576.611961 
L 72.636875 566.021261 
L 57.679875 566.021261 
z
" style="fill: #c789e5; opacity: 0.5; stroke: #ffffff; stroke-linejoin: miter"/>
   </g>
   <g id="patch_150">
    <path d="M 76.376125 576.611961 
L 91.333125 576.611961 
L 91.333125 556.594479 
L 76.376125 556.594479 
z
" style="fill: #c789e5; opacity: 0.5; stroke: #ffffff; stroke-linejoin: miter"/>
   </g>
   <g id="patch_151">
    <path d="M 20.287375 576.611961 
L 35.244375 576.611961 
L 35.244375 575.765992 
L 20.287375 575.765992 
z
" style="fill: #c789e5; stroke: #ffffff; stroke-linejoin: miter"/>
   </g>
   <g id="patch_152">
    <path d="M 38.983625 576.611961 
L 53.940625 576.611961 
L 53.940625 576.451094 
L 38.983625 576.451094 
z
" style="fill: #c789e5; stroke: #ffffff; stroke-linejoin: miter"/>
   </g>
   <g id="patch_153">
    <path d="M 57.679875 576.611961 
L 72.636875 576.611961 
L 72.636875 576.165319 
L 57.679875 576.165319 
z
" style="fill: #c789e5; stroke: #ffffff; stroke-linejoin: miter"/>
   </g>
   <g id="patch_154">
    <path d="M 76.376125 576.611961 
L 91.333125 576.611961 
L 91.333125 576.17289 
L 76.376125 576.17289 
z
" style="fill: #c789e5; stroke: #ffffff; stroke-linejoin: miter"/>
   </g>
   <g id="line2d_17">
    <path d="M 18.41775 576.611961 
L 93.20275 576.611961 
" style="fill: none; stroke: #cc7af4; stroke-width: 0.5; stroke-linecap: round"/>
   </g>
   <g id="text_33">
    <!-- 17 -->
    <g style="fill: #262626" transform="translate(7.2 572.747373) scale(0.09996 -0.09996)">
     <use xlink:href="#DejaVuSans-31"/>
     <use xlink:href="#DejaVuSans-37" x="63.623047"/>
    </g>
   </g>
   <g id="text_34">
    <!-- 1000   447   553 -->
    <g style="fill: #262626" transform="translate(96.942 572.747373) scale(0.09996 -0.09996)">
     <use xlink:href="#DejaVuSans-31"/>
     <use xlink:href="#DejaVuSans-30" x="63.623047"/>
     <use xlink:href="#DejaVuSans-30" x="127.246094"/>
     <use xlink:href="#DejaVuSans-30" x="190.869141"/>
     <use xlink:href="#DejaVuSans-20" x="254.492188"/>
     <use xlink:href="#DejaVuSans-20" x="286.279297"/>
     <use xlink:href="#DejaVuSans-20" x="318.066406"/>
     <use xlink:href="#DejaVuSans-34" x="349.853516"/>
     <use xlink:href="#DejaVuSans-34" x="413.476562"/>
     <use xlink:href="#DejaVuSans-37" x="477.099609"/>
     <use xlink:href="#DejaVuSans-20" x="540.722656"/>
     <use xlink:href="#DejaVuSans-20" x="572.509766"/>
     <use xlink:href="#DejaVuSans-20" x="604.296875"/>
     <use xlink:href="#DejaVuSans-35" x="636.083984"/>
     <use xlink:href="#DejaVuSans-35" x="699.707031"/>
     <use xlink:href="#DejaVuSans-33" x="763.330078"/>
    </g>
   </g>
  </g>
  <g id="axes_18">
   <g id="patch_155">
    <path d="M 18.41775 609.560682 
L 93.20275 609.560682 
L 93.20275 576.446389 
L 18.41775 576.446389 
L 18.41775 609.560682 
z
" style="fill: none"/>
   </g>
   <g id="matplotlib.axis_35">
    <g id="xtick_69"/>
    <g id="xtick_70"/>
    <g id="xtick_71"/>
    <g id="xtick_72"/>
   </g>
   <g id="matplotlib.axis_36"/>
   <g id="patch_156">
    <path d="M 20.287375 609.560682 
L 35.244375 609.560682 
L 35.244375 578.02326 
L 20.287375 578.02326 
z
" style="fill: #e16fdf; opacity: 0.5; stroke: #ffffff; stroke-linejoin: miter"/>
   </g>
   <g id="patch_157">
    <path d="M 38.983625 609.560682 
L 53.940625 609.560682 
L 53.940625 607.464281 
L 38.983625 607.464281 
z
" style="fill: #e16fdf; opacity: 0.5; stroke: #ffffff; stroke-linejoin: miter"/>
   </g>
   <g id="patch_158">
    <path d="M 57.679875 609.560682 
L 72.636875 609.560682 
L 72.636875 599.137017 
L 57.679875 599.137017 
z
" style="fill: #e16fdf; opacity: 0.5; stroke: #ffffff; stroke-linejoin: miter"/>
   </g>
   <g id="patch_159">
    <path d="M 76.376125 609.560682 
L 91.333125 609.560682 
L 91.333125 589.442619 
L 76.376125 589.442619 
z
" style="fill: #e16fdf; opacity: 0.5; stroke: #ffffff; stroke-linejoin: miter"/>
   </g>
   <g id="patch_160">
    <path d="M 20.287375 609.560682 
L 35.244375 609.560682 
L 35.244375 608.722511 
L 20.287375 608.722511 
z
" style="fill: #e16fdf; stroke: #ffffff; stroke-linejoin: miter"/>
   </g>
   <g id="patch_161">
    <path d="M 38.983625 609.560682 
L 53.940625 609.560682 
L 53.940625 609.430386 
L 38.983625 609.430386 
z
" style="fill: #e16fdf; stroke: #ffffff; stroke-linejoin: miter"/>
   </g>
   <g id="patch_162">
    <path d="M 57.679875 609.560682 
L 72.636875 609.560682 
L 72.636875 609.082283 
L 57.679875 609.082283 
z
" style="fill: #e16fdf; stroke: #ffffff; stroke-linejoin: miter"/>
   </g>
   <g id="patch_163">
    <path d="M 76.376125 609.560682 
L 91.333125 609.560682 
L 91.333125 609.062835 
L 76.376125 609.062835 
z
" style="fill: #e16fdf; stroke: #ffffff; stroke-linejoin: miter"/>
   </g>
   <g id="line2d_18">
    <path d="M 18.41775 609.560682 
L 93.20275 609.560682 
" style="fill: none; stroke: #f45cf2; stroke-width: 0.5; stroke-linecap: round"/>
   </g>
   <g id="text_35">
    <!-- 18 -->
    <g style="fill: #262626" transform="translate(7.2 605.696095) scale(0.09996 -0.09996)">
     <use xlink:href="#DejaVuSans-31"/>
     <use xlink:href="#DejaVuSans-38" x="63.623047"/>
    </g>
   </g>
   <g id="text_36">
    <!-- 1000   431   569 -->
    <g style="fill: #262626" transform="translate(96.942 605.696095) scale(0.09996 -0.09996)">
     <use xlink:href="#DejaVuSans-31"/>
     <use xlink:href="#DejaVuSans-30" x="63.623047"/>
     <use xlink:href="#DejaVuSans-30" x="127.246094"/>
     <use xlink:href="#DejaVuSans-30" x="190.869141"/>
     <use xlink:href="#DejaVuSans-20" x="254.492188"/>
     <use xlink:href="#DejaVuSans-20" x="286.279297"/>
     <use xlink:href="#DejaVuSans-20" x="318.066406"/>
     <use xlink:href="#DejaVuSans-34" x="349.853516"/>
     <use xlink:href="#DejaVuSans-33" x="413.476562"/>
     <use xlink:href="#DejaVuSans-31" x="477.099609"/>
     <use xlink:href="#DejaVuSans-20" x="540.722656"/>
     <use xlink:href="#DejaVuSans-20" x="572.509766"/>
     <use xlink:href="#DejaVuSans-20" x="604.296875"/>
     <use xlink:href="#DejaVuSans-35" x="636.083984"/>
     <use xlink:href="#DejaVuSans-36" x="699.707031"/>
     <use xlink:href="#DejaVuSans-39" x="763.330078"/>
    </g>
   </g>
  </g>
  <g id="axes_19">
   <g id="patch_164">
    <path d="M 18.41775 642.509404 
L 93.20275 642.509404 
L 93.20275 609.395111 
L 18.41775 609.395111 
L 18.41775 642.509404 
z
" style="fill: none"/>
   </g>
   <g id="matplotlib.axis_37">
    <g id="xtick_73"/>
    <g id="xtick_74"/>
    <g id="xtick_75"/>
    <g id="xtick_76"/>
   </g>
   <g id="matplotlib.axis_38"/>
   <g id="patch_165">
    <path d="M 20.287375 642.509404 
L 35.244375 642.509404 
L 35.244375 610.971982 
L 20.287375 610.971982 
z
" style="fill: #e377c5; opacity: 0.5; stroke: #ffffff; stroke-linejoin: miter"/>
   </g>
   <g id="patch_166">
    <path d="M 38.983625 642.509404 
L 53.940625 642.509404 
L 53.940625 640.489618 
L 38.983625 640.489618 
z
" style="fill: #e377c5; opacity: 0.5; stroke: #ffffff; stroke-linejoin: miter"/>
   </g>
   <g id="patch_167">
    <path d="M 57.679875 642.509404 
L 72.636875 642.509404 
L 72.636875 632.292605 
L 57.679875 632.292605 
z
" style="fill: #e377c5; opacity: 0.5; stroke: #ffffff; stroke-linejoin: miter"/>
   </g>
   <g id="patch_168">
    <path d="M 76.376125 642.509404 
L 91.333125 642.509404 
L 91.333125 622.353503 
L 76.376125 622.353503 
z
" style="fill: #e377c5; opacity: 0.5; stroke: #ffffff; stroke-linejoin: miter"/>
   </g>
   <g id="patch_169">
    <path d="M 20.287375 642.509404 
L 35.244375 642.509404 
L 35.244375 641.680313 
L 20.287375 641.680313 
z
" style="fill: #e377c5; stroke: #ffffff; stroke-linejoin: miter"/>
   </g>
   <g id="patch_170">
    <path d="M 38.983625 642.509404 
L 53.940625 642.509404 
L 53.940625 642.425496 
L 38.983625 642.425496 
z
" style="fill: #e377c5; stroke: #ffffff; stroke-linejoin: miter"/>
   </g>
   <g id="patch_171">
    <path d="M 57.679875 642.509404 
L 72.636875 642.509404 
L 72.636875 641.987975 
L 57.679875 641.987975 
z
" style="fill: #e377c5; stroke: #ffffff; stroke-linejoin: miter"/>
   </g>
   <g id="patch_172">
    <path d="M 76.376125 642.509404 
L 91.333125 642.509404 
L 91.333125 641.946021 
L 76.376125 641.946021 
z
" style="fill: #e377c5; stroke: #ffffff; stroke-linejoin: miter"/>
   </g>
   <g id="line2d_19">
    <path d="M 18.41775 642.509404 
L 93.20275 642.509404 
" style="fill: none; stroke: #f565cc; stroke-width: 0.5; stroke-linecap: round"/>
   </g>
   <g id="text_37">
    <!-- 19 -->
    <g style="fill: #262626" transform="translate(7.2 638.644816) scale(0.09996 -0.09996)">
     <use xlink:href="#DejaVuSans-31"/>
     <use xlink:href="#DejaVuSans-39" x="63.623047"/>
    </g>
   </g>
   <g id="text_38">
    <!-- 1000   415   585 -->
    <g style="fill: #262626" transform="translate(96.942 638.644816) scale(0.09996 -0.09996)">
     <use xlink:href="#DejaVuSans-31"/>
     <use xlink:href="#DejaVuSans-30" x="63.623047"/>
     <use xlink:href="#DejaVuSans-30" x="127.246094"/>
     <use xlink:href="#DejaVuSans-30" x="190.869141"/>
     <use xlink:href="#DejaVuSans-20" x="254.492188"/>
     <use xlink:href="#DejaVuSans-20" x="286.279297"/>
     <use xlink:href="#DejaVuSans-20" x="318.066406"/>
     <use xlink:href="#DejaVuSans-34" x="349.853516"/>
     <use xlink:href="#DejaVuSans-31" x="413.476562"/>
     <use xlink:href="#DejaVuSans-35" x="477.099609"/>
     <use xlink:href="#DejaVuSans-20" x="540.722656"/>
     <use xlink:href="#DejaVuSans-20" x="572.509766"/>
     <use xlink:href="#DejaVuSans-20" x="604.296875"/>
     <use xlink:href="#DejaVuSans-35" x="636.083984"/>
     <use xlink:href="#DejaVuSans-38" x="699.707031"/>
     <use xlink:href="#DejaVuSans-35" x="763.330078"/>
    </g>
   </g>
  </g>
  <g id="axes_20">
   <g id="patch_173">
    <path d="M 18.41775 675.458125 
L 93.20275 675.458125 
L 93.20275 642.343832 
L 18.41775 642.343832 
L 18.41775 675.458125 
z
" style="fill: none"/>
   </g>
   <g id="matplotlib.axis_39">
    <g id="xtick_77">
     <g id="text_39">
      <!-- Yahoo Answers -->
      <g style="fill: #262626" transform="translate(30.801187 767.076562) rotate(-90) scale(0.11 -0.11)">
       <defs>
        <path id="DejaVuSans-59" d="M -13 4666 
L 666 4666 
L 1959 2747 
L 3244 4666 
L 3922 4666 
L 2272 2222 
L 2272 0 
L 1638 0 
L 1638 2222 
L -13 4666 
z
" transform="scale(0.015625)"/>
        <path id="DejaVuSans-61" d="M 2194 1759 
Q 1497 1759 1228 1600 
Q 959 1441 959 1056 
Q 959 750 1161 570 
Q 1363 391 1709 391 
Q 2188 391 2477 730 
Q 2766 1069 2766 1631 
L 2766 1759 
L 2194 1759 
z
M 3341 1997 
L 3341 0 
L 2766 0 
L 2766 531 
Q 2569 213 2275 61 
Q 1981 -91 1556 -91 
Q 1019 -91 701 211 
Q 384 513 384 1019 
Q 384 1609 779 1909 
Q 1175 2209 1959 2209 
L 2766 2209 
L 2766 2266 
Q 2766 2663 2505 2880 
Q 2244 3097 1772 3097 
Q 1472 3097 1187 3025 
Q 903 2953 641 2809 
L 641 3341 
Q 956 3463 1253 3523 
Q 1550 3584 1831 3584 
Q 2591 3584 2966 3190 
Q 3341 2797 3341 1997 
z
" transform="scale(0.015625)"/>
        <path id="DejaVuSans-68" d="M 3513 2113 
L 3513 0 
L 2938 0 
L 2938 2094 
Q 2938 2591 2744 2837 
Q 2550 3084 2163 3084 
Q 1697 3084 1428 2787 
Q 1159 2491 1159 1978 
L 1159 0 
L 581 0 
L 581 4863 
L 1159 4863 
L 1159 2956 
Q 1366 3272 1645 3428 
Q 1925 3584 2291 3584 
Q 2894 3584 3203 3211 
Q 3513 2838 3513 2113 
z
" transform="scale(0.015625)"/>
        <path id="DejaVuSans-6f" d="M 1959 3097 
Q 1497 3097 1228 2736 
Q 959 2375 959 1747 
Q 959 1119 1226 758 
Q 1494 397 1959 397 
Q 2419 397 2687 759 
Q 2956 1122 2956 1747 
Q 2956 2369 2687 2733 
Q 2419 3097 1959 3097 
z
M 1959 3584 
Q 2709 3584 3137 3096 
Q 3566 2609 3566 1747 
Q 3566 888 3137 398 
Q 2709 -91 1959 -91 
Q 1206 -91 779 398 
Q 353 888 353 1747 
Q 353 2609 779 3096 
Q 1206 3584 1959 3584 
z
" transform="scale(0.015625)"/>
        <path id="DejaVuSans-41" d="M 2188 4044 
L 1331 1722 
L 3047 1722 
L 2188 4044 
z
M 1831 4666 
L 2547 4666 
L 4325 0 
L 3669 0 
L 3244 1197 
L 1141 1197 
L 716 0 
L 50 0 
L 1831 4666 
z
" transform="scale(0.015625)"/>
        <path id="DejaVuSans-6e" d="M 3513 2113 
L 3513 0 
L 2938 0 
L 2938 2094 
Q 2938 2591 2744 2837 
Q 2550 3084 2163 3084 
Q 1697 3084 1428 2787 
Q 1159 2491 1159 1978 
L 1159 0 
L 581 0 
L 581 3500 
L 1159 3500 
L 1159 2956 
Q 1366 3272 1645 3428 
Q 1925 3584 2291 3584 
Q 2894 3584 3203 3211 
Q 3513 2838 3513 2113 
z
" transform="scale(0.015625)"/>
        <path id="DejaVuSans-73" d="M 2834 3397 
L 2834 2853 
Q 2591 2978 2328 3040 
Q 2066 3103 1784 3103 
Q 1356 3103 1142 2972 
Q 928 2841 928 2578 
Q 928 2378 1081 2264 
Q 1234 2150 1697 2047 
L 1894 2003 
Q 2506 1872 2764 1633 
Q 3022 1394 3022 966 
Q 3022 478 2636 193 
Q 2250 -91 1575 -91 
Q 1294 -91 989 -36 
Q 684 19 347 128 
L 347 722 
Q 666 556 975 473 
Q 1284 391 1588 391 
Q 1994 391 2212 530 
Q 2431 669 2431 922 
Q 2431 1156 2273 1281 
Q 2116 1406 1581 1522 
L 1381 1569 
Q 847 1681 609 1914 
Q 372 2147 372 2553 
Q 372 3047 722 3315 
Q 1072 3584 1716 3584 
Q 2034 3584 2315 3537 
Q 2597 3491 2834 3397 
z
" transform="scale(0.015625)"/>
        <path id="DejaVuSans-77" d="M 269 3500 
L 844 3500 
L 1563 769 
L 2278 3500 
L 2956 3500 
L 3675 769 
L 4391 3500 
L 4966 3500 
L 4050 0 
L 3372 0 
L 2619 2869 
L 1863 0 
L 1184 0 
L 269 3500 
z
" transform="scale(0.015625)"/>
        <path id="DejaVuSans-65" d="M 3597 1894 
L 3597 1613 
L 953 1613 
Q 991 1019 1311 708 
Q 1631 397 2203 397 
Q 2534 397 2845 478 
Q 3156 559 3463 722 
L 3463 178 
Q 3153 47 2828 -22 
Q 2503 -91 2169 -91 
Q 1331 -91 842 396 
Q 353 884 353 1716 
Q 353 2575 817 3079 
Q 1281 3584 2069 3584 
Q 2775 3584 3186 3129 
Q 3597 2675 3597 1894 
z
M 3022 2063 
Q 3016 2534 2758 2815 
Q 2500 3097 2075 3097 
Q 1594 3097 1305 2825 
Q 1016 2553 972 2059 
L 3022 2063 
z
" transform="scale(0.015625)"/>
        <path id="DejaVuSans-72" d="M 2631 2963 
Q 2534 3019 2420 3045 
Q 2306 3072 2169 3072 
Q 1681 3072 1420 2755 
Q 1159 2438 1159 1844 
L 1159 0 
L 581 0 
L 581 3500 
L 1159 3500 
L 1159 2956 
Q 1341 3275 1631 3429 
Q 1922 3584 2338 3584 
Q 2397 3584 2469 3576 
Q 2541 3569 2628 3553 
L 2631 2963 
z
" transform="scale(0.015625)"/>
       </defs>
       <use xlink:href="#DejaVuSans-59"/>
       <use xlink:href="#DejaVuSans-61" x="47.333984"/>
       <use xlink:href="#DejaVuSans-68" x="108.613281"/>
       <use xlink:href="#DejaVuSans-6f" x="171.992188"/>
       <use xlink:href="#DejaVuSans-6f" x="233.173828"/>
       <use xlink:href="#DejaVuSans-20" x="294.355469"/>
       <use xlink:href="#DejaVuSans-41" x="326.142578"/>
       <use xlink:href="#DejaVuSans-6e" x="394.550781"/>
       <use xlink:href="#DejaVuSans-73" x="457.929688"/>
       <use xlink:href="#DejaVuSans-77" x="510.029297"/>
       <use xlink:href="#DejaVuSans-65" x="591.816406"/>
       <use xlink:href="#DejaVuSans-72" x="653.339844"/>
       <use xlink:href="#DejaVuSans-73" x="694.453125"/>
      </g>
     </g>
    </g>
    <g id="xtick_78">
     <g id="text_40">
      <!-- Ag News -->
      <g style="fill: #262626" transform="translate(49.497437 732.686094) rotate(-90) scale(0.11 -0.11)">
       <defs>
        <path id="DejaVuSans-67" d="M 2906 1791 
Q 2906 2416 2648 2759 
Q 2391 3103 1925 3103 
Q 1463 3103 1205 2759 
Q 947 2416 947 1791 
Q 947 1169 1205 825 
Q 1463 481 1925 481 
Q 2391 481 2648 825 
Q 2906 1169 2906 1791 
z
M 3481 434 
Q 3481 -459 3084 -895 
Q 2688 -1331 1869 -1331 
Q 1566 -1331 1297 -1286 
Q 1028 -1241 775 -1147 
L 775 -588 
Q 1028 -725 1275 -790 
Q 1522 -856 1778 -856 
Q 2344 -856 2625 -561 
Q 2906 -266 2906 331 
L 2906 616 
Q 2728 306 2450 153 
Q 2172 0 1784 0 
Q 1141 0 747 490 
Q 353 981 353 1791 
Q 353 2603 747 3093 
Q 1141 3584 1784 3584 
Q 2172 3584 2450 3431 
Q 2728 3278 2906 2969 
L 2906 3500 
L 3481 3500 
L 3481 434 
z
" transform="scale(0.015625)"/>
        <path id="DejaVuSans-4e" d="M 628 4666 
L 1478 4666 
L 3547 763 
L 3547 4666 
L 4159 4666 
L 4159 0 
L 3309 0 
L 1241 3903 
L 1241 0 
L 628 0 
L 628 4666 
z
" transform="scale(0.015625)"/>
       </defs>
       <use xlink:href="#DejaVuSans-41"/>
       <use xlink:href="#DejaVuSans-67" x="68.408203"/>
       <use xlink:href="#DejaVuSans-20" x="131.884766"/>
       <use xlink:href="#DejaVuSans-4e" x="163.671875"/>
       <use xlink:href="#DejaVuSans-65" x="238.476562"/>
       <use xlink:href="#DejaVuSans-77" x="300"/>
       <use xlink:href="#DejaVuSans-73" x="381.787109"/>
      </g>
     </g>
    </g>
    <g id="xtick_79">
     <g id="text_41">
      <!-- Dbpedia 14 -->
      <g style="fill: #262626" transform="translate(68.193687 748.436719) rotate(-90) scale(0.11 -0.11)">
       <defs>
        <path id="DejaVuSans-44" d="M 1259 4147 
L 1259 519 
L 2022 519 
Q 2988 519 3436 956 
Q 3884 1394 3884 2338 
Q 3884 3275 3436 3711 
Q 2988 4147 2022 4147 
L 1259 4147 
z
M 628 4666 
L 1925 4666 
Q 3281 4666 3915 4102 
Q 4550 3538 4550 2338 
Q 4550 1131 3912 565 
Q 3275 0 1925 0 
L 628 0 
L 628 4666 
z
" transform="scale(0.015625)"/>
        <path id="DejaVuSans-62" d="M 3116 1747 
Q 3116 2381 2855 2742 
Q 2594 3103 2138 3103 
Q 1681 3103 1420 2742 
Q 1159 2381 1159 1747 
Q 1159 1113 1420 752 
Q 1681 391 2138 391 
Q 2594 391 2855 752 
Q 3116 1113 3116 1747 
z
M 1159 2969 
Q 1341 3281 1617 3432 
Q 1894 3584 2278 3584 
Q 2916 3584 3314 3078 
Q 3713 2572 3713 1747 
Q 3713 922 3314 415 
Q 2916 -91 2278 -91 
Q 1894 -91 1617 61 
Q 1341 213 1159 525 
L 1159 0 
L 581 0 
L 581 4863 
L 1159 4863 
L 1159 2969 
z
" transform="scale(0.015625)"/>
        <path id="DejaVuSans-70" d="M 1159 525 
L 1159 -1331 
L 581 -1331 
L 581 3500 
L 1159 3500 
L 1159 2969 
Q 1341 3281 1617 3432 
Q 1894 3584 2278 3584 
Q 2916 3584 3314 3078 
Q 3713 2572 3713 1747 
Q 3713 922 3314 415 
Q 2916 -91 2278 -91 
Q 1894 -91 1617 61 
Q 1341 213 1159 525 
z
M 3116 1747 
Q 3116 2381 2855 2742 
Q 2594 3103 2138 3103 
Q 1681 3103 1420 2742 
Q 1159 2381 1159 1747 
Q 1159 1113 1420 752 
Q 1681 391 2138 391 
Q 2594 391 2855 752 
Q 3116 1113 3116 1747 
z
" transform="scale(0.015625)"/>
        <path id="DejaVuSans-64" d="M 2906 2969 
L 2906 4863 
L 3481 4863 
L 3481 0 
L 2906 0 
L 2906 525 
Q 2725 213 2448 61 
Q 2172 -91 1784 -91 
Q 1150 -91 751 415 
Q 353 922 353 1747 
Q 353 2572 751 3078 
Q 1150 3584 1784 3584 
Q 2172 3584 2448 3432 
Q 2725 3281 2906 2969 
z
M 947 1747 
Q 947 1113 1208 752 
Q 1469 391 1925 391 
Q 2381 391 2643 752 
Q 2906 1113 2906 1747 
Q 2906 2381 2643 2742 
Q 2381 3103 1925 3103 
Q 1469 3103 1208 2742 
Q 947 2381 947 1747 
z
" transform="scale(0.015625)"/>
        <path id="DejaVuSans-69" d="M 603 3500 
L 1178 3500 
L 1178 0 
L 603 0 
L 603 3500 
z
M 603 4863 
L 1178 4863 
L 1178 4134 
L 603 4134 
L 603 4863 
z
" transform="scale(0.015625)"/>
       </defs>
       <use xlink:href="#DejaVuSans-44"/>
       <use xlink:href="#DejaVuSans-62" x="77.001953"/>
       <use xlink:href="#DejaVuSans-70" x="140.478516"/>
       <use xlink:href="#DejaVuSans-65" x="203.955078"/>
       <use xlink:href="#DejaVuSans-64" x="265.478516"/>
       <use xlink:href="#DejaVuSans-69" x="328.955078"/>
       <use xlink:href="#DejaVuSans-61" x="356.738281"/>
       <use xlink:href="#DejaVuSans-20" x="418.017578"/>
       <use xlink:href="#DejaVuSans-31" x="449.804688"/>
       <use xlink:href="#DejaVuSans-34" x="513.427734"/>
      </g>
     </g>
    </g>
    <g id="xtick_80">
     <g id="text_42">
      <!-- Yelp Review Full -->
      <g style="fill: #262626" transform="translate(86.889937 772.07125) rotate(-90) scale(0.11 -0.11)">
       <defs>
        <path id="DejaVuSans-6c" d="M 603 4863 
L 1178 4863 
L 1178 0 
L 603 0 
L 603 4863 
z
" transform="scale(0.015625)"/>
        <path id="DejaVuSans-52" d="M 2841 2188 
Q 3044 2119 3236 1894 
Q 3428 1669 3622 1275 
L 4263 0 
L 3584 0 
L 2988 1197 
Q 2756 1666 2539 1819 
Q 2322 1972 1947 1972 
L 1259 1972 
L 1259 0 
L 628 0 
L 628 4666 
L 2053 4666 
Q 2853 4666 3247 4331 
Q 3641 3997 3641 3322 
Q 3641 2881 3436 2590 
Q 3231 2300 2841 2188 
z
M 1259 4147 
L 1259 2491 
L 2053 2491 
Q 2509 2491 2742 2702 
Q 2975 2913 2975 3322 
Q 2975 3731 2742 3939 
Q 2509 4147 2053 4147 
L 1259 4147 
z
" transform="scale(0.015625)"/>
        <path id="DejaVuSans-76" d="M 191 3500 
L 800 3500 
L 1894 563 
L 2988 3500 
L 3597 3500 
L 2284 0 
L 1503 0 
L 191 3500 
z
" transform="scale(0.015625)"/>
        <path id="DejaVuSans-46" d="M 628 4666 
L 3309 4666 
L 3309 4134 
L 1259 4134 
L 1259 2759 
L 3109 2759 
L 3109 2228 
L 1259 2228 
L 1259 0 
L 628 0 
L 628 4666 
z
" transform="scale(0.015625)"/>
        <path id="DejaVuSans-75" d="M 544 1381 
L 544 3500 
L 1119 3500 
L 1119 1403 
Q 1119 906 1312 657 
Q 1506 409 1894 409 
Q 2359 409 2629 706 
Q 2900 1003 2900 1516 
L 2900 3500 
L 3475 3500 
L 3475 0 
L 2900 0 
L 2900 538 
Q 2691 219 2414 64 
Q 2138 -91 1772 -91 
Q 1169 -91 856 284 
Q 544 659 544 1381 
z
M 1991 3584 
L 1991 3584 
z
" transform="scale(0.015625)"/>
       </defs>
       <use xlink:href="#DejaVuSans-59"/>
       <use xlink:href="#DejaVuSans-65" x="47.833984"/>
       <use xlink:href="#DejaVuSans-6c" x="109.357422"/>
       <use xlink:href="#DejaVuSans-70" x="137.140625"/>
       <use xlink:href="#DejaVuSans-20" x="200.617188"/>
       <use xlink:href="#DejaVuSans-52" x="232.404297"/>
       <use xlink:href="#DejaVuSans-65" x="297.386719"/>
       <use xlink:href="#DejaVuSans-76" x="358.910156"/>
       <use xlink:href="#DejaVuSans-69" x="418.089844"/>
       <use xlink:href="#DejaVuSans-65" x="445.873047"/>
       <use xlink:href="#DejaVuSans-77" x="507.396484"/>
       <use xlink:href="#DejaVuSans-20" x="589.183594"/>
       <use xlink:href="#DejaVuSans-46" x="620.970703"/>
       <use xlink:href="#DejaVuSans-75" x="672.990234"/>
       <use xlink:href="#DejaVuSans-6c" x="736.369141"/>
       <use xlink:href="#DejaVuSans-6c" x="764.152344"/>
      </g>
     </g>
    </g>
    <g id="text_43">
     <!-- datasets -->
     <g style="fill: #262626" transform="translate(29.999937 785.189375) scale(0.12 -0.12)">
      <defs>
       <path id="DejaVuSans-74" d="M 1172 4494 
L 1172 3500 
L 2356 3500 
L 2356 3053 
L 1172 3053 
L 1172 1153 
Q 1172 725 1289 603 
Q 1406 481 1766 481 
L 2356 481 
L 2356 0 
L 1766 0 
Q 1100 0 847 248 
Q 594 497 594 1153 
L 594 3053 
L 172 3053 
L 172 3500 
L 594 3500 
L 594 4494 
L 1172 4494 
z
" transform="scale(0.015625)"/>
      </defs>
      <use xlink:href="#DejaVuSans-64"/>
      <use xlink:href="#DejaVuSans-61" x="63.476562"/>
      <use xlink:href="#DejaVuSans-74" x="124.755859"/>
      <use xlink:href="#DejaVuSans-61" x="163.964844"/>
      <use xlink:href="#DejaVuSans-73" x="225.244141"/>
      <use xlink:href="#DejaVuSans-65" x="277.34375"/>
      <use xlink:href="#DejaVuSans-74" x="338.867188"/>
      <use xlink:href="#DejaVuSans-73" x="378.076172"/>
     </g>
    </g>
   </g>
   <g id="matplotlib.axis_40"/>
   <g id="patch_174">
    <path d="M 20.287375 675.458125 
L 35.244375 675.458125 
L 35.244375 643.920703 
L 20.287375 643.920703 
z
" style="fill: #e57dae; opacity: 0.5; stroke: #ffffff; stroke-linejoin: miter"/>
   </g>
   <g id="patch_175">
    <path d="M 38.983625 675.458125 
L 53.940625 675.458125 
L 53.940625 673.469981 
L 38.983625 673.469981 
z
" style="fill: #e57dae; opacity: 0.5; stroke: #ffffff; stroke-linejoin: miter"/>
   </g>
   <g id="patch_176">
    <path d="M 57.679875 675.458125 
L 72.636875 675.458125 
L 72.636875 665.500991 
L 57.679875 665.500991 
z
" style="fill: #e57dae; opacity: 0.5; stroke: #ffffff; stroke-linejoin: miter"/>
   </g>
   <g id="patch_177">
    <path d="M 76.376125 675.458125 
L 91.333125 675.458125 
L 91.333125 655.33663 
L 76.376125 655.33663 
z
" style="fill: #e57dae; opacity: 0.5; stroke: #ffffff; stroke-linejoin: miter"/>
   </g>
   <g id="patch_178">
    <path d="M 20.287375 675.458125 
L 35.244375 675.458125 
L 35.244375 674.14911 
L 20.287375 674.14911 
z
" style="fill: #e57dae; stroke: #ffffff; stroke-linejoin: miter"/>
   </g>
   <g id="patch_179">
    <path d="M 38.983625 675.458125 
L 53.940625 675.458125 
L 53.940625 675.40478 
L 38.983625 675.40478 
z
" style="fill: #e57dae; stroke: #ffffff; stroke-linejoin: miter"/>
   </g>
   <g id="patch_180">
    <path d="M 57.679875 675.458125 
L 72.636875 675.458125 
L 72.636875 675.293985 
L 57.679875 675.293985 
z
" style="fill: #e57dae; stroke: #ffffff; stroke-linejoin: miter"/>
   </g>
   <g id="patch_181">
    <path d="M 76.376125 675.458125 
L 91.333125 675.458125 
L 91.333125 674.932877 
L 76.376125 674.932877 
z
" style="fill: #e57dae; stroke: #ffffff; stroke-linejoin: miter"/>
   </g>
   <g id="line2d_20">
    <path d="M 18.41775 675.458125 
L 93.20275 675.458125 
" style="fill: none; stroke: #f66bad; stroke-width: 0.5; stroke-linecap: round"/>
   </g>
   <g id="text_44">
    <!-- 20 -->
    <g style="fill: #262626" transform="translate(7.2 671.593538) scale(0.09996 -0.09996)">
     <use xlink:href="#DejaVuSans-32"/>
     <use xlink:href="#DejaVuSans-30" x="63.623047"/>
    </g>
   </g>
   <g id="text_45">
    <!-- 1000   638   362 -->
    <g style="fill: #262626" transform="translate(96.942 671.593538) scale(0.09996 -0.09996)">
     <use xlink:href="#DejaVuSans-31"/>
     <use xlink:href="#DejaVuSans-30" x="63.623047"/>
     <use xlink:href="#DejaVuSans-30" x="127.246094"/>
     <use xlink:href="#DejaVuSans-30" x="190.869141"/>
     <use xlink:href="#DejaVuSans-20" x="254.492188"/>
     <use xlink:href="#DejaVuSans-20" x="286.279297"/>
     <use xlink:href="#DejaVuSans-20" x="318.066406"/>
     <use xlink:href="#DejaVuSans-36" x="349.853516"/>
     <use xlink:href="#DejaVuSans-33" x="413.476562"/>
     <use xlink:href="#DejaVuSans-38" x="477.099609"/>
     <use xlink:href="#DejaVuSans-20" x="540.722656"/>
     <use xlink:href="#DejaVuSans-20" x="572.509766"/>
     <use xlink:href="#DejaVuSans-20" x="604.296875"/>
     <use xlink:href="#DejaVuSans-33" x="636.083984"/>
     <use xlink:href="#DejaVuSans-36" x="699.707031"/>
     <use xlink:href="#DejaVuSans-32" x="763.330078"/>
    </g>
   </g>
   <g id="text_46">
    <!-- Iteration -->
    <g style="fill: #262626" transform="translate(7.2 16.318125) scale(0.12 -0.12)">
     <defs>
      <path id="DejaVuSans-49" d="M 628 4666 
L 1259 4666 
L 1259 0 
L 628 0 
L 628 4666 
z
" transform="scale(0.015625)"/>
     </defs>
     <use xlink:href="#DejaVuSans-49"/>
     <use xlink:href="#DejaVuSans-74" x="29.492188"/>
     <use xlink:href="#DejaVuSans-65" x="68.701172"/>
     <use xlink:href="#DejaVuSans-72" x="130.224609"/>
     <use xlink:href="#DejaVuSans-61" x="171.337891"/>
     <use xlink:href="#DejaVuSans-74" x="232.617188"/>
     <use xlink:href="#DejaVuSans-69" x="271.826172"/>
     <use xlink:href="#DejaVuSans-6f" x="299.609375"/>
     <use xlink:href="#DejaVuSans-6e" x="360.791016"/>
    </g>
   </g>
   <g id="text_47">
    <!-- Size  In  Out -->
    <g style="fill: #262626" transform="translate(96.942 16.318125) scale(0.12 -0.12)">
     <defs>
      <path id="DejaVuSans-53" d="M 3425 4513 
L 3425 3897 
Q 3066 4069 2747 4153 
Q 2428 4238 2131 4238 
Q 1616 4238 1336 4038 
Q 1056 3838 1056 3469 
Q 1056 3159 1242 3001 
Q 1428 2844 1947 2747 
L 2328 2669 
Q 3034 2534 3370 2195 
Q 3706 1856 3706 1288 
Q 3706 609 3251 259 
Q 2797 -91 1919 -91 
Q 1588 -91 1214 -16 
Q 841 59 441 206 
L 441 856 
Q 825 641 1194 531 
Q 1563 422 1919 422 
Q 2459 422 2753 634 
Q 3047 847 3047 1241 
Q 3047 1584 2836 1778 
Q 2625 1972 2144 2069 
L 1759 2144 
Q 1053 2284 737 2584 
Q 422 2884 422 3419 
Q 422 4038 858 4394 
Q 1294 4750 2059 4750 
Q 2388 4750 2728 4690 
Q 3069 4631 3425 4513 
z
" transform="scale(0.015625)"/>
      <path id="DejaVuSans-7a" d="M 353 3500 
L 3084 3500 
L 3084 2975 
L 922 459 
L 3084 459 
L 3084 0 
L 275 0 
L 275 525 
L 2438 3041 
L 353 3041 
L 353 3500 
z
" transform="scale(0.015625)"/>
      <path id="DejaVuSans-4f" d="M 2522 4238 
Q 1834 4238 1429 3725 
Q 1025 3213 1025 2328 
Q 1025 1447 1429 934 
Q 1834 422 2522 422 
Q 3209 422 3611 934 
Q 4013 1447 4013 2328 
Q 4013 3213 3611 3725 
Q 3209 4238 2522 4238 
z
M 2522 4750 
Q 3503 4750 4090 4092 
Q 4678 3434 4678 2328 
Q 4678 1225 4090 567 
Q 3503 -91 2522 -91 
Q 1538 -91 948 565 
Q 359 1222 359 2328 
Q 359 3434 948 4092 
Q 1538 4750 2522 4750 
z
" transform="scale(0.015625)"/>
     </defs>
     <use xlink:href="#DejaVuSans-53"/>
     <use xlink:href="#DejaVuSans-69" x="63.476562"/>
     <use xlink:href="#DejaVuSans-7a" x="91.259766"/>
     <use xlink:href="#DejaVuSans-65" x="143.75"/>
     <use xlink:href="#DejaVuSans-20" x="205.273438"/>
     <use xlink:href="#DejaVuSans-20" x="237.060547"/>
     <use xlink:href="#DejaVuSans-49" x="268.847656"/>
     <use xlink:href="#DejaVuSans-6e" x="298.339844"/>
     <use xlink:href="#DejaVuSans-20" x="361.71875"/>
     <use xlink:href="#DejaVuSans-20" x="393.505859"/>
     <use xlink:href="#DejaVuSans-4f" x="425.292969"/>
     <use xlink:href="#DejaVuSans-75" x="504.003906"/>
     <use xlink:href="#DejaVuSans-74" x="567.382812"/>
    </g>
   </g>
  </g>
 </g>
</svg>
