<?xml version="1.0" encoding="utf-8" standalone="no"?>
<!DOCTYPE svg PUBLIC "-//W3C//DTD SVG 1.1//EN"
  "http://www.w3.org/Graphics/SVG/1.1/DTD/svg11.dtd">
<svg xmlns:xlink="http://www.w3.org/1999/xlink" width="853.194687pt" height="421.617812pt" viewBox="0 0 853.194687 421.617812" xmlns="http://www.w3.org/2000/svg" version="1.1">
 <metadata>
  <rdf:RDF xmlns:dc="http://purl.org/dc/elements/1.1/" xmlns:cc="http://creativecommons.org/ns#" xmlns:rdf="http://www.w3.org/1999/02/22-rdf-syntax-ns#">
   <cc:Work>
    <dc:type rdf:resource="http://purl.org/dc/dcmitype/StillImage"/>
    <dc:date>2023-02-02T13:54:06.748164</dc:date>
    <dc:format>image/svg+xml</dc:format>
    <dc:creator>
     <cc:Agent>
      <dc:title>Matplotlib v3.6.2, https://matplotlib.org/</dc:title>
     </cc:Agent>
    </dc:creator>
   </cc:Work>
  </rdf:RDF>
 </metadata>
 <defs>
  <style type="text/css">*{stroke-linejoin: round; stroke-linecap: butt}</style>
 </defs>
 <g id="figure_1">
  <g id="patch_1">
   <path d="M 0 421.617812 
L 853.194687 421.617812 
L 853.194687 0 
L 0 0 
z
" style="fill: #ffffff"/>
  </g>
  <g id="axes_1">
   <g id="patch_2">
    <path d="M 63.804688 176.538125 
L 431.384687 176.538125 
L 431.384687 22.318125 
L 63.804688 22.318125 
z
" style="fill: #ffffff"/>
   </g>
   <g id="matplotlib.axis_1">
    <g id="xtick_1">
     <g id="line2d_1">
      <path d="M 79.380111 176.538125 
L 79.380111 22.318125 
" clip-path="url(#p8b8162a0d3)" style="fill: none; stroke: #cccccc; stroke-linecap: round"/>
     </g>
     <g id="text_1">
      <!-- 2 -->
      <g style="fill: #262626" transform="translate(75.880736 194.396406) scale(0.11 -0.11)">
       <defs>
        <path id="DejaVuSans-32" d="M 1228 531 
L 3431 531 
L 3431 0 
L 469 0 
L 469 531 
Q 828 903 1448 1529 
Q 2069 2156 2228 2338 
Q 2531 2678 2651 2914 
Q 2772 3150 2772 3378 
Q 2772 3750 2511 3984 
Q 2250 4219 1831 4219 
Q 1534 4219 1204 4116 
Q 875 4013 500 3803 
L 500 4441 
Q 881 4594 1212 4672 
Q 1544 4750 1819 4750 
Q 2544 4750 2975 4387 
Q 3406 4025 3406 3419 
Q 3406 3131 3298 2873 
Q 3191 2616 2906 2266 
Q 2828 2175 2409 1742 
Q 1991 1309 1228 531 
z
" transform="scale(0.015625)"/>
       </defs>
       <use xlink:href="#DejaVuSans-32"/>
      </g>
     </g>
    </g>
    <g id="xtick_2">
     <g id="line2d_2">
      <path d="M 110.530959 176.538125 
L 110.530959 22.318125 
" clip-path="url(#p8b8162a0d3)" style="fill: none; stroke: #cccccc; stroke-linecap: round"/>
     </g>
     <g id="text_2">
      <!-- 4 -->
      <g style="fill: #262626" transform="translate(107.031584 194.396406) scale(0.11 -0.11)">
       <defs>
        <path id="DejaVuSans-34" d="M 2419 4116 
L 825 1625 
L 2419 1625 
L 2419 4116 
z
M 2253 4666 
L 3047 4666 
L 3047 1625 
L 3713 1625 
L 3713 1100 
L 3047 1100 
L 3047 0 
L 2419 0 
L 2419 1100 
L 313 1100 
L 313 1709 
L 2253 4666 
z
" transform="scale(0.015625)"/>
       </defs>
       <use xlink:href="#DejaVuSans-34"/>
      </g>
     </g>
    </g>
    <g id="xtick_3">
     <g id="line2d_3">
      <path d="M 141.681806 176.538125 
L 141.681806 22.318125 
" clip-path="url(#p8b8162a0d3)" style="fill: none; stroke: #cccccc; stroke-linecap: round"/>
     </g>
     <g id="text_3">
      <!-- 6 -->
      <g style="fill: #262626" transform="translate(138.182431 194.396406) scale(0.11 -0.11)">
       <defs>
        <path id="DejaVuSans-36" d="M 2113 2584 
Q 1688 2584 1439 2293 
Q 1191 2003 1191 1497 
Q 1191 994 1439 701 
Q 1688 409 2113 409 
Q 2538 409 2786 701 
Q 3034 994 3034 1497 
Q 3034 2003 2786 2293 
Q 2538 2584 2113 2584 
z
M 3366 4563 
L 3366 3988 
Q 3128 4100 2886 4159 
Q 2644 4219 2406 4219 
Q 1781 4219 1451 3797 
Q 1122 3375 1075 2522 
Q 1259 2794 1537 2939 
Q 1816 3084 2150 3084 
Q 2853 3084 3261 2657 
Q 3669 2231 3669 1497 
Q 3669 778 3244 343 
Q 2819 -91 2113 -91 
Q 1303 -91 875 529 
Q 447 1150 447 2328 
Q 447 3434 972 4092 
Q 1497 4750 2381 4750 
Q 2619 4750 2861 4703 
Q 3103 4656 3366 4563 
z
" transform="scale(0.015625)"/>
       </defs>
       <use xlink:href="#DejaVuSans-36"/>
      </g>
     </g>
    </g>
    <g id="xtick_4">
     <g id="line2d_4">
      <path d="M 172.832654 176.538125 
L 172.832654 22.318125 
" clip-path="url(#p8b8162a0d3)" style="fill: none; stroke: #cccccc; stroke-linecap: round"/>
     </g>
     <g id="text_4">
      <!-- 8 -->
      <g style="fill: #262626" transform="translate(169.333279 194.396406) scale(0.11 -0.11)">
       <defs>
        <path id="DejaVuSans-38" d="M 2034 2216 
Q 1584 2216 1326 1975 
Q 1069 1734 1069 1313 
Q 1069 891 1326 650 
Q 1584 409 2034 409 
Q 2484 409 2743 651 
Q 3003 894 3003 1313 
Q 3003 1734 2745 1975 
Q 2488 2216 2034 2216 
z
M 1403 2484 
Q 997 2584 770 2862 
Q 544 3141 544 3541 
Q 544 4100 942 4425 
Q 1341 4750 2034 4750 
Q 2731 4750 3128 4425 
Q 3525 4100 3525 3541 
Q 3525 3141 3298 2862 
Q 3072 2584 2669 2484 
Q 3125 2378 3379 2068 
Q 3634 1759 3634 1313 
Q 3634 634 3220 271 
Q 2806 -91 2034 -91 
Q 1263 -91 848 271 
Q 434 634 434 1313 
Q 434 1759 690 2068 
Q 947 2378 1403 2484 
z
M 1172 3481 
Q 1172 3119 1398 2916 
Q 1625 2713 2034 2713 
Q 2441 2713 2670 2916 
Q 2900 3119 2900 3481 
Q 2900 3844 2670 4047 
Q 2441 4250 2034 4250 
Q 1625 4250 1398 4047 
Q 1172 3844 1172 3481 
z
" transform="scale(0.015625)"/>
       </defs>
       <use xlink:href="#DejaVuSans-38"/>
      </g>
     </g>
    </g>
    <g id="xtick_5">
     <g id="line2d_5">
      <path d="M 203.983501 176.538125 
L 203.983501 22.318125 
" clip-path="url(#p8b8162a0d3)" style="fill: none; stroke: #cccccc; stroke-linecap: round"/>
     </g>
     <g id="text_5">
      <!-- 10 -->
      <g style="fill: #262626" transform="translate(196.984751 194.396406) scale(0.11 -0.11)">
       <defs>
        <path id="DejaVuSans-31" d="M 794 531 
L 1825 531 
L 1825 4091 
L 703 3866 
L 703 4441 
L 1819 4666 
L 2450 4666 
L 2450 531 
L 3481 531 
L 3481 0 
L 794 0 
L 794 531 
z
" transform="scale(0.015625)"/>
        <path id="DejaVuSans-30" d="M 2034 4250 
Q 1547 4250 1301 3770 
Q 1056 3291 1056 2328 
Q 1056 1369 1301 889 
Q 1547 409 2034 409 
Q 2525 409 2770 889 
Q 3016 1369 3016 2328 
Q 3016 3291 2770 3770 
Q 2525 4250 2034 4250 
z
M 2034 4750 
Q 2819 4750 3233 4129 
Q 3647 3509 3647 2328 
Q 3647 1150 3233 529 
Q 2819 -91 2034 -91 
Q 1250 -91 836 529 
Q 422 1150 422 2328 
Q 422 3509 836 4129 
Q 1250 4750 2034 4750 
z
" transform="scale(0.015625)"/>
       </defs>
       <use xlink:href="#DejaVuSans-31"/>
       <use xlink:href="#DejaVuSans-30" x="63.623047"/>
      </g>
     </g>
    </g>
    <g id="xtick_6">
     <g id="line2d_6">
      <path d="M 235.134349 176.538125 
L 235.134349 22.318125 
" clip-path="url(#p8b8162a0d3)" style="fill: none; stroke: #cccccc; stroke-linecap: round"/>
     </g>
     <g id="text_6">
      <!-- 12 -->
      <g style="fill: #262626" transform="translate(228.135599 194.396406) scale(0.11 -0.11)">
       <use xlink:href="#DejaVuSans-31"/>
       <use xlink:href="#DejaVuSans-32" x="63.623047"/>
      </g>
     </g>
    </g>
    <g id="xtick_7">
     <g id="line2d_7">
      <path d="M 266.285196 176.538125 
L 266.285196 22.318125 
" clip-path="url(#p8b8162a0d3)" style="fill: none; stroke: #cccccc; stroke-linecap: round"/>
     </g>
     <g id="text_7">
      <!-- 14 -->
      <g style="fill: #262626" transform="translate(259.286446 194.396406) scale(0.11 -0.11)">
       <use xlink:href="#DejaVuSans-31"/>
       <use xlink:href="#DejaVuSans-34" x="63.623047"/>
      </g>
     </g>
    </g>
    <g id="xtick_8">
     <g id="line2d_8">
      <path d="M 297.436043 176.538125 
L 297.436043 22.318125 
" clip-path="url(#p8b8162a0d3)" style="fill: none; stroke: #cccccc; stroke-linecap: round"/>
     </g>
     <g id="text_8">
      <!-- 16 -->
      <g style="fill: #262626" transform="translate(290.437293 194.396406) scale(0.11 -0.11)">
       <use xlink:href="#DejaVuSans-31"/>
       <use xlink:href="#DejaVuSans-36" x="63.623047"/>
      </g>
     </g>
    </g>
    <g id="xtick_9">
     <g id="line2d_9">
      <path d="M 328.586891 176.538125 
L 328.586891 22.318125 
" clip-path="url(#p8b8162a0d3)" style="fill: none; stroke: #cccccc; stroke-linecap: round"/>
     </g>
     <g id="text_9">
      <!-- 18 -->
      <g style="fill: #262626" transform="translate(321.588141 194.396406) scale(0.11 -0.11)">
       <use xlink:href="#DejaVuSans-31"/>
       <use xlink:href="#DejaVuSans-38" x="63.623047"/>
      </g>
     </g>
    </g>
    <g id="xtick_10">
     <g id="line2d_10">
      <path d="M 359.737738 176.538125 
L 359.737738 22.318125 
" clip-path="url(#p8b8162a0d3)" style="fill: none; stroke: #cccccc; stroke-linecap: round"/>
     </g>
     <g id="text_10">
      <!-- 20 -->
      <g style="fill: #262626" transform="translate(352.738988 194.396406) scale(0.11 -0.11)">
       <use xlink:href="#DejaVuSans-32"/>
       <use xlink:href="#DejaVuSans-30" x="63.623047"/>
      </g>
     </g>
    </g>
   </g>
   <g id="matplotlib.axis_2">
    <g id="ytick_1">
     <g id="line2d_11">
      <path d="M 63.804688 164.05185 
L 431.384687 164.05185 
" clip-path="url(#p8b8162a0d3)" style="fill: none; stroke: #cccccc; stroke-linecap: round"/>
     </g>
     <g id="text_11">
      <!-- 0.44 -->
      <g style="fill: #262626" transform="translate(29.8125 168.23099) scale(0.11 -0.11)">
       <defs>
        <path id="DejaVuSans-2e" d="M 684 794 
L 1344 794 
L 1344 0 
L 684 0 
L 684 794 
z
" transform="scale(0.015625)"/>
       </defs>
       <use xlink:href="#DejaVuSans-30"/>
       <use xlink:href="#DejaVuSans-2e" x="63.623047"/>
       <use xlink:href="#DejaVuSans-34" x="95.410156"/>
       <use xlink:href="#DejaVuSans-34" x="159.033203"/>
      </g>
     </g>
    </g>
    <g id="ytick_2">
     <g id="line2d_12">
      <path d="M 63.804688 140.655689 
L 431.384687 140.655689 
" clip-path="url(#p8b8162a0d3)" style="fill: none; stroke: #cccccc; stroke-linecap: round"/>
     </g>
     <g id="text_12">
      <!-- 0.46 -->
      <g style="fill: #262626" transform="translate(29.8125 144.834829) scale(0.11 -0.11)">
       <use xlink:href="#DejaVuSans-30"/>
       <use xlink:href="#DejaVuSans-2e" x="63.623047"/>
       <use xlink:href="#DejaVuSans-34" x="95.410156"/>
       <use xlink:href="#DejaVuSans-36" x="159.033203"/>
      </g>
     </g>
    </g>
    <g id="ytick_3">
     <g id="line2d_13">
      <path d="M 63.804688 117.259528 
L 431.384687 117.259528 
" clip-path="url(#p8b8162a0d3)" style="fill: none; stroke: #cccccc; stroke-linecap: round"/>
     </g>
     <g id="text_13">
      <!-- 0.48 -->
      <g style="fill: #262626" transform="translate(29.8125 121.438668) scale(0.11 -0.11)">
       <use xlink:href="#DejaVuSans-30"/>
       <use xlink:href="#DejaVuSans-2e" x="63.623047"/>
       <use xlink:href="#DejaVuSans-34" x="95.410156"/>
       <use xlink:href="#DejaVuSans-38" x="159.033203"/>
      </g>
     </g>
    </g>
    <g id="ytick_4">
     <g id="line2d_14">
      <path d="M 63.804688 93.863367 
L 431.384687 93.863367 
" clip-path="url(#p8b8162a0d3)" style="fill: none; stroke: #cccccc; stroke-linecap: round"/>
     </g>
     <g id="text_14">
      <!-- 0.50 -->
      <g style="fill: #262626" transform="translate(29.8125 98.042507) scale(0.11 -0.11)">
       <defs>
        <path id="DejaVuSans-35" d="M 691 4666 
L 3169 4666 
L 3169 4134 
L 1269 4134 
L 1269 2991 
Q 1406 3038 1543 3061 
Q 1681 3084 1819 3084 
Q 2600 3084 3056 2656 
Q 3513 2228 3513 1497 
Q 3513 744 3044 326 
Q 2575 -91 1722 -91 
Q 1428 -91 1123 -41 
Q 819 9 494 109 
L 494 744 
Q 775 591 1075 516 
Q 1375 441 1709 441 
Q 2250 441 2565 725 
Q 2881 1009 2881 1497 
Q 2881 1984 2565 2268 
Q 2250 2553 1709 2553 
Q 1456 2553 1204 2497 
Q 953 2441 691 2322 
L 691 4666 
z
" transform="scale(0.015625)"/>
       </defs>
       <use xlink:href="#DejaVuSans-30"/>
       <use xlink:href="#DejaVuSans-2e" x="63.623047"/>
       <use xlink:href="#DejaVuSans-35" x="95.410156"/>
       <use xlink:href="#DejaVuSans-30" x="159.033203"/>
      </g>
     </g>
    </g>
    <g id="ytick_5">
     <g id="line2d_15">
      <path d="M 63.804688 70.467206 
L 431.384687 70.467206 
" clip-path="url(#p8b8162a0d3)" style="fill: none; stroke: #cccccc; stroke-linecap: round"/>
     </g>
     <g id="text_15">
      <!-- 0.52 -->
      <g style="fill: #262626" transform="translate(29.8125 74.646346) scale(0.11 -0.11)">
       <use xlink:href="#DejaVuSans-30"/>
       <use xlink:href="#DejaVuSans-2e" x="63.623047"/>
       <use xlink:href="#DejaVuSans-35" x="95.410156"/>
       <use xlink:href="#DejaVuSans-32" x="159.033203"/>
      </g>
     </g>
    </g>
    <g id="ytick_6">
     <g id="line2d_16">
      <path d="M 63.804688 47.071045 
L 431.384687 47.071045 
" clip-path="url(#p8b8162a0d3)" style="fill: none; stroke: #cccccc; stroke-linecap: round"/>
     </g>
     <g id="text_16">
      <!-- 0.54 -->
      <g style="fill: #262626" transform="translate(29.8125 51.250185) scale(0.11 -0.11)">
       <use xlink:href="#DejaVuSans-30"/>
       <use xlink:href="#DejaVuSans-2e" x="63.623047"/>
       <use xlink:href="#DejaVuSans-35" x="95.410156"/>
       <use xlink:href="#DejaVuSans-34" x="159.033203"/>
      </g>
     </g>
    </g>
    <g id="ytick_7">
     <g id="line2d_17">
      <path d="M 63.804688 23.674884 
L 431.384687 23.674884 
" clip-path="url(#p8b8162a0d3)" style="fill: none; stroke: #cccccc; stroke-linecap: round"/>
     </g>
     <g id="text_17">
      <!-- 0.56 -->
      <g style="fill: #262626" transform="translate(29.8125 27.854024) scale(0.11 -0.11)">
       <use xlink:href="#DejaVuSans-30"/>
       <use xlink:href="#DejaVuSans-2e" x="63.623047"/>
       <use xlink:href="#DejaVuSans-35" x="95.410156"/>
       <use xlink:href="#DejaVuSans-36" x="159.033203"/>
      </g>
     </g>
    </g>
    <g id="text_18">
     <!-- Accuracy -->
     <g style="fill: #262626" transform="translate(23.316875 126.821875) rotate(-90) scale(0.12 -0.12)">
      <defs>
       <path id="DejaVuSans-41" d="M 2188 4044 
L 1331 1722 
L 3047 1722 
L 2188 4044 
z
M 1831 4666 
L 2547 4666 
L 4325 0 
L 3669 0 
L 3244 1197 
L 1141 1197 
L 716 0 
L 50 0 
L 1831 4666 
z
" transform="scale(0.015625)"/>
       <path id="DejaVuSans-63" d="M 3122 3366 
L 3122 2828 
Q 2878 2963 2633 3030 
Q 2388 3097 2138 3097 
Q 1578 3097 1268 2742 
Q 959 2388 959 1747 
Q 959 1106 1268 751 
Q 1578 397 2138 397 
Q 2388 397 2633 464 
Q 2878 531 3122 666 
L 3122 134 
Q 2881 22 2623 -34 
Q 2366 -91 2075 -91 
Q 1284 -91 818 406 
Q 353 903 353 1747 
Q 353 2603 823 3093 
Q 1294 3584 2113 3584 
Q 2378 3584 2631 3529 
Q 2884 3475 3122 3366 
z
" transform="scale(0.015625)"/>
       <path id="DejaVuSans-75" d="M 544 1381 
L 544 3500 
L 1119 3500 
L 1119 1403 
Q 1119 906 1312 657 
Q 1506 409 1894 409 
Q 2359 409 2629 706 
Q 2900 1003 2900 1516 
L 2900 3500 
L 3475 3500 
L 3475 0 
L 2900 0 
L 2900 538 
Q 2691 219 2414 64 
Q 2138 -91 1772 -91 
Q 1169 -91 856 284 
Q 544 659 544 1381 
z
M 1991 3584 
L 1991 3584 
z
" transform="scale(0.015625)"/>
       <path id="DejaVuSans-72" d="M 2631 2963 
Q 2534 3019 2420 3045 
Q 2306 3072 2169 3072 
Q 1681 3072 1420 2755 
Q 1159 2438 1159 1844 
L 1159 0 
L 581 0 
L 581 3500 
L 1159 3500 
L 1159 2956 
Q 1341 3275 1631 3429 
Q 1922 3584 2338 3584 
Q 2397 3584 2469 3576 
Q 2541 3569 2628 3553 
L 2631 2963 
z
" transform="scale(0.015625)"/>
       <path id="DejaVuSans-61" d="M 2194 1759 
Q 1497 1759 1228 1600 
Q 959 1441 959 1056 
Q 959 750 1161 570 
Q 1363 391 1709 391 
Q 2188 391 2477 730 
Q 2766 1069 2766 1631 
L 2766 1759 
L 2194 1759 
z
M 3341 1997 
L 3341 0 
L 2766 0 
L 2766 531 
Q 2569 213 2275 61 
Q 1981 -91 1556 -91 
Q 1019 -91 701 211 
Q 384 513 384 1019 
Q 384 1609 779 1909 
Q 1175 2209 1959 2209 
L 2766 2209 
L 2766 2266 
Q 2766 2663 2505 2880 
Q 2244 3097 1772 3097 
Q 1472 3097 1187 3025 
Q 903 2953 641 2809 
L 641 3341 
Q 956 3463 1253 3523 
Q 1550 3584 1831 3584 
Q 2591 3584 2966 3190 
Q 3341 2797 3341 1997 
z
" transform="scale(0.015625)"/>
       <path id="DejaVuSans-79" d="M 2059 -325 
Q 1816 -950 1584 -1140 
Q 1353 -1331 966 -1331 
L 506 -1331 
L 506 -850 
L 844 -850 
Q 1081 -850 1212 -737 
Q 1344 -625 1503 -206 
L 1606 56 
L 191 3500 
L 800 3500 
L 1894 763 
L 2988 3500 
L 3597 3500 
L 2059 -325 
z
" transform="scale(0.015625)"/>
      </defs>
      <use xlink:href="#DejaVuSans-41"/>
      <use xlink:href="#DejaVuSans-63" x="66.658203"/>
      <use xlink:href="#DejaVuSans-63" x="121.638672"/>
      <use xlink:href="#DejaVuSans-75" x="176.619141"/>
      <use xlink:href="#DejaVuSans-72" x="239.998047"/>
      <use xlink:href="#DejaVuSans-61" x="281.111328"/>
      <use xlink:href="#DejaVuSans-63" x="342.390625"/>
      <use xlink:href="#DejaVuSans-79" x="397.371094"/>
     </g>
    </g>
   </g>
   <g id="PolyCollection_1">
    <defs>
     <path id="m18fea5a936" d="M 79.380111 -311.66131 
L 79.380111 -302.797379 
L 94.955535 -252.089687 
L 110.530959 -280.252686 
L 126.106382 -277.836331 
L 141.681806 -275.824701 
L 157.25723 -266.490489 
L 172.832654 -274.487573 
L 188.408077 -273.983663 
L 203.983501 -280.058276 
L 219.558925 -272.674314 
L 235.134349 -280.117787 
L 250.709772 -270.805511 
L 266.285196 -268.529212 
L 281.86062 -267.663065 
L 297.436043 -269.710408 
L 313.011467 -271.396703 
L 328.586891 -260.096581 
L 344.162315 -269.031939 
L 359.737738 -271.023732 
L 359.737738 -291.703583 
L 359.737738 -291.703583 
L 344.162315 -298.044019 
L 328.586891 -305.550998 
L 313.011467 -293.842205 
L 297.436043 -299.559708 
L 281.86062 -300.960308 
L 266.285196 -309.233047 
L 250.709772 -303.983732 
L 235.134349 -299.091519 
L 219.558925 -298.159095 
L 203.983501 -295.397548 
L 188.408077 -300.373097 
L 172.832654 -305.031212 
L 157.25723 -295.901444 
L 141.681806 -293.488371 
L 126.106382 -305.904105 
L 110.530959 -302.614857 
L 94.955535 -315.101333 
L 79.380111 -311.66131 
z
" style="stroke: #f77189; stroke-opacity: 0.2"/>
    </defs>
    <g clip-path="url(#p8b8162a0d3)">
     <use xlink:href="#m18fea5a936" x="0" y="421.617812" style="fill: #f77189; fill-opacity: 0.2; stroke: #f77189; stroke-opacity: 0.2"/>
    </g>
   </g>
   <g id="PolyCollection_2">
    <defs>
     <path id="m042f610c78" d="M 79.380111 -334.872549 
L 79.380111 -311.157414 
L 94.955535 -317.668469 
L 110.530959 -308.487118 
L 126.106382 -323.631973 
L 141.681806 -316.200389 
L 157.25723 -314.344683 
L 172.832654 -321.231488 
L 188.408077 -320.082145 
L 203.983501 -303.420304 
L 219.558925 -308.25698 
L 235.134349 -310.304324 
L 250.709772 -316.517816 
L 266.285196 -314.429693 
L 281.86062 -316.434487 
L 297.436043 -317.287542 
L 313.011467 -313.918954 
L 328.586891 -312.208861 
L 344.162315 -320.959683 
L 359.737738 -325.889607 
L 359.737738 -332.565304 
L 359.737738 -332.565304 
L 344.162315 -339.925467 
L 328.586891 -333.674982 
L 313.011467 -333.702087 
L 297.436043 -334.642433 
L 281.86062 -335.41218 
L 266.285196 -336.090683 
L 250.709772 -337.277036 
L 235.134349 -329.877191 
L 219.558925 -334.932088 
L 203.983501 -334.773364 
L 188.408077 -343.546024 
L 172.832654 -341.45902 
L 157.25723 -343.553965 
L 141.681806 -336.721557 
L 126.106382 -350.759373 
L 110.530959 -337.48733 
L 94.955535 -335.975608 
L 79.380111 -334.872549 
z
" style="stroke: #97a431; stroke-opacity: 0.2"/>
    </defs>
    <g clip-path="url(#p8b8162a0d3)">
     <use xlink:href="#m042f610c78" x="0" y="421.617812" style="fill: #97a431; fill-opacity: 0.2; stroke: #97a431; stroke-opacity: 0.2"/>
    </g>
   </g>
   <g id="PolyCollection_3">
    <defs>
     <path id="m2a33dc4df1" d="M 79.380111 -339.748934 
L 79.380111 -305.995369 
L 94.955535 -312.827826 
L 110.530959 -313.593599 
L 126.106382 -309.498884 
L 141.681806 -324.61785 
L 157.25723 -319.961813 
L 172.832654 -324.302521 
L 188.408077 -322.608277 
L 203.983501 -324.199354 
L 219.558925 -331.603146 
L 235.134349 -322.386102 
L 250.709772 -332.868861 
L 266.285196 -323.433582 
L 281.86062 -333.523533 
L 297.436043 -328.333729 
L 313.011467 -331.277798 
L 328.586891 -330.07063 
L 328.586891 -384.155837 
L 328.586891 -384.155837 
L 313.011467 -374.622662 
L 297.436043 -375.970389 
L 281.86062 -374.780082 
L 266.285196 -372.625605 
L 250.709772 -376.75998 
L 235.134349 -376.291797 
L 219.558925 -372.704925 
L 203.983501 -374.113502 
L 188.408077 -364.769452 
L 172.832654 -369.987048 
L 157.25723 -360.313696 
L 141.681806 -357.310236 
L 126.106382 -360.793801 
L 110.530959 -359.94472 
L 94.955535 -351.691798 
L 79.380111 -339.748934 
z
" style="stroke: #36ada4; stroke-opacity: 0.2"/>
    </defs>
    <g clip-path="url(#p8b8162a0d3)">
     <use xlink:href="#m2a33dc4df1" x="0" y="421.617812" style="fill: #36ada4; fill-opacity: 0.2; stroke: #36ada4; stroke-opacity: 0.2"/>
    </g>
   </g>
   <g id="PolyCollection_4">
    <defs>
     <path id="m6110ed806d" d="M 79.380111 -337.205602 
L 79.380111 -313.502334 
L 94.955535 -318.922268 
L 110.530959 -333.805254 
L 126.106382 -332.367933 
L 141.681806 -350.814924 
L 157.25723 -352.084634 
L 172.832654 -343.105627 
L 188.408077 -352.532391 
L 203.983501 -359.365408 
L 219.558925 -359.440796 
L 235.134349 -355.21911 
L 250.709772 -358.524262 
L 266.285196 -352.402027 
L 281.86062 -356.722891 
L 297.436043 -358.833734 
L 313.011467 -360.361318 
L 328.586891 -347.970103 
L 328.586891 -392.289688 
L 328.586891 -392.289688 
L 313.011467 -383.699557 
L 297.436043 -386.238908 
L 281.86062 -379.696099 
L 266.285196 -378.858899 
L 250.709772 -381.751385 
L 235.134349 -379.339005 
L 219.558925 -381.442199 
L 203.983501 -375.625189 
L 188.408077 -367.519124 
L 172.832654 -367.95162 
L 157.25723 -361.416733 
L 141.681806 -369.911646 
L 126.106382 -357.171243 
L 110.530959 -342.375568 
L 94.955535 -347.374936 
L 79.380111 -337.205602 
z
" style="stroke: #a48cf4; stroke-opacity: 0.2"/>
    </defs>
    <g clip-path="url(#p8b8162a0d3)">
     <use xlink:href="#m6110ed806d" x="0" y="421.617812" style="fill: #a48cf4; fill-opacity: 0.2; stroke: #a48cf4; stroke-opacity: 0.2"/>
    </g>
   </g>
   <g id="line2d_18">
    <path d="M 79.380111 114.388468 
L 94.955535 138.048094 
L 110.530959 130.184041 
L 126.106382 129.017532 
L 141.681806 138.452798 
L 157.25723 139.436806 
L 172.832654 131.85842 
L 188.408077 136.369734 
L 203.983501 133.889901 
L 219.558925 135.143707 
L 235.134349 132.89003 
L 250.709772 134.223191 
L 266.285196 132.159971 
L 281.86062 136.964901 
L 297.436043 137.960804 
L 313.011467 138.805925 
L 328.586891 138.794023 
L 344.162315 136.060255 
L 359.737738 140.254155 
" clip-path="url(#p8b8162a0d3)" style="fill: none; stroke: #f77189; stroke-width: 1.5; stroke-linecap: round"/>
   </g>
   <g id="line2d_19">
    <path d="M 79.380111 97.735879 
L 94.955535 95.31555 
L 110.530959 99.291221 
L 126.106382 85.808857 
L 141.681806 96.009916 
L 157.25723 91.443052 
L 172.832654 90.554276 
L 188.408077 90.760595 
L 203.983501 100.183979 
L 219.558925 100.874357 
L 235.134349 102.695551 
L 250.709772 95.200488 
L 266.285196 96.355095 
L 281.86062 95.942463 
L 297.436043 95.553629 
L 313.011467 97.267683 
L 328.586891 96.934399 
L 344.162315 89.915481 
L 359.737738 92.821843 
" clip-path="url(#p8b8162a0d3)" style="fill: none; stroke: #97a431; stroke-width: 1.5; stroke-linecap: round"/>
   </g>
   <g id="line2d_20">
    <path d="M 79.380111 98.608771 
L 94.955535 91.454947 
L 110.530959 84.848653 
L 126.106382 86.47147 
L 141.681806 81.079308 
L 157.25723 81.480058 
L 172.832654 74.473028 
L 188.408077 77.456785 
L 203.983501 72.397906 
L 219.558925 67.882632 
L 235.134349 71.84638 
L 250.709772 66.803392 
L 266.285196 73.588219 
L 281.86062 68.156397 
L 297.436043 69.465754 
L 313.011467 67.930234 
L 328.586891 61.635411 
" clip-path="url(#p8b8162a0d3)" style="fill: none; stroke: #36ada4; stroke-width: 1.5; stroke-linecap: round"/>
   </g>
   <g id="line2d_21">
    <path d="M 79.380111 96.263844 
L 94.955535 88.697354 
L 110.530959 83.48376 
L 126.106382 78.305873 
L 141.681806 59.590057 
L 157.25723 64.867129 
L 172.832654 66.089189 
L 188.408077 61.851647 
L 203.983501 54.674026 
L 219.558925 51.583156 
L 235.134349 55.086678 
L 250.709772 51.479989 
L 266.285196 55.892125 
L 281.86062 52.745711 
L 297.436043 49.638958 
L 313.011467 49.587375 
L 328.586891 54.086779 
" clip-path="url(#p8b8162a0d3)" style="fill: none; stroke: #a48cf4; stroke-width: 1.5; stroke-linecap: round"/>
   </g>
   <g id="line2d_22"/>
   <g id="line2d_23"/>
   <g id="line2d_24"/>
   <g id="line2d_25"/>
   <g id="patch_3">
    <path d="M 63.804688 176.538125 
L 63.804688 22.318125 
" style="fill: none; stroke: #cccccc; stroke-width: 1.25; stroke-linejoin: miter; stroke-linecap: square"/>
   </g>
   <g id="patch_4">
    <path d="M 63.804688 176.538125 
L 431.384687 176.538125 
" style="fill: none; stroke: #cccccc; stroke-width: 1.25; stroke-linejoin: miter; stroke-linecap: square"/>
   </g>
   <g id="text_19">
    <!-- Labeled Size: 100 -->
    <g style="fill: #262626" transform="translate(194.301562 16.318125) scale(0.12 -0.12)">
     <defs>
      <path id="DejaVuSans-4c" d="M 628 4666 
L 1259 4666 
L 1259 531 
L 3531 531 
L 3531 0 
L 628 0 
L 628 4666 
z
" transform="scale(0.015625)"/>
      <path id="DejaVuSans-62" d="M 3116 1747 
Q 3116 2381 2855 2742 
Q 2594 3103 2138 3103 
Q 1681 3103 1420 2742 
Q 1159 2381 1159 1747 
Q 1159 1113 1420 752 
Q 1681 391 2138 391 
Q 2594 391 2855 752 
Q 3116 1113 3116 1747 
z
M 1159 2969 
Q 1341 3281 1617 3432 
Q 1894 3584 2278 3584 
Q 2916 3584 3314 3078 
Q 3713 2572 3713 1747 
Q 3713 922 3314 415 
Q 2916 -91 2278 -91 
Q 1894 -91 1617 61 
Q 1341 213 1159 525 
L 1159 0 
L 581 0 
L 581 4863 
L 1159 4863 
L 1159 2969 
z
" transform="scale(0.015625)"/>
      <path id="DejaVuSans-65" d="M 3597 1894 
L 3597 1613 
L 953 1613 
Q 991 1019 1311 708 
Q 1631 397 2203 397 
Q 2534 397 2845 478 
Q 3156 559 3463 722 
L 3463 178 
Q 3153 47 2828 -22 
Q 2503 -91 2169 -91 
Q 1331 -91 842 396 
Q 353 884 353 1716 
Q 353 2575 817 3079 
Q 1281 3584 2069 3584 
Q 2775 3584 3186 3129 
Q 3597 2675 3597 1894 
z
M 3022 2063 
Q 3016 2534 2758 2815 
Q 2500 3097 2075 3097 
Q 1594 3097 1305 2825 
Q 1016 2553 972 2059 
L 3022 2063 
z
" transform="scale(0.015625)"/>
      <path id="DejaVuSans-6c" d="M 603 4863 
L 1178 4863 
L 1178 0 
L 603 0 
L 603 4863 
z
" transform="scale(0.015625)"/>
      <path id="DejaVuSans-64" d="M 2906 2969 
L 2906 4863 
L 3481 4863 
L 3481 0 
L 2906 0 
L 2906 525 
Q 2725 213 2448 61 
Q 2172 -91 1784 -91 
Q 1150 -91 751 415 
Q 353 922 353 1747 
Q 353 2572 751 3078 
Q 1150 3584 1784 3584 
Q 2172 3584 2448 3432 
Q 2725 3281 2906 2969 
z
M 947 1747 
Q 947 1113 1208 752 
Q 1469 391 1925 391 
Q 2381 391 2643 752 
Q 2906 1113 2906 1747 
Q 2906 2381 2643 2742 
Q 2381 3103 1925 3103 
Q 1469 3103 1208 2742 
Q 947 2381 947 1747 
z
" transform="scale(0.015625)"/>
      <path id="DejaVuSans-20" transform="scale(0.015625)"/>
      <path id="DejaVuSans-53" d="M 3425 4513 
L 3425 3897 
Q 3066 4069 2747 4153 
Q 2428 4238 2131 4238 
Q 1616 4238 1336 4038 
Q 1056 3838 1056 3469 
Q 1056 3159 1242 3001 
Q 1428 2844 1947 2747 
L 2328 2669 
Q 3034 2534 3370 2195 
Q 3706 1856 3706 1288 
Q 3706 609 3251 259 
Q 2797 -91 1919 -91 
Q 1588 -91 1214 -16 
Q 841 59 441 206 
L 441 856 
Q 825 641 1194 531 
Q 1563 422 1919 422 
Q 2459 422 2753 634 
Q 3047 847 3047 1241 
Q 3047 1584 2836 1778 
Q 2625 1972 2144 2069 
L 1759 2144 
Q 1053 2284 737 2584 
Q 422 2884 422 3419 
Q 422 4038 858 4394 
Q 1294 4750 2059 4750 
Q 2388 4750 2728 4690 
Q 3069 4631 3425 4513 
z
" transform="scale(0.015625)"/>
      <path id="DejaVuSans-69" d="M 603 3500 
L 1178 3500 
L 1178 0 
L 603 0 
L 603 3500 
z
M 603 4863 
L 1178 4863 
L 1178 4134 
L 603 4134 
L 603 4863 
z
" transform="scale(0.015625)"/>
      <path id="DejaVuSans-7a" d="M 353 3500 
L 3084 3500 
L 3084 2975 
L 922 459 
L 3084 459 
L 3084 0 
L 275 0 
L 275 525 
L 2438 3041 
L 353 3041 
L 353 3500 
z
" transform="scale(0.015625)"/>
      <path id="DejaVuSans-3a" d="M 750 794 
L 1409 794 
L 1409 0 
L 750 0 
L 750 794 
z
M 750 3309 
L 1409 3309 
L 1409 2516 
L 750 2516 
L 750 3309 
z
" transform="scale(0.015625)"/>
     </defs>
     <use xlink:href="#DejaVuSans-4c"/>
     <use xlink:href="#DejaVuSans-61" x="55.712891"/>
     <use xlink:href="#DejaVuSans-62" x="116.992188"/>
     <use xlink:href="#DejaVuSans-65" x="180.46875"/>
     <use xlink:href="#DejaVuSans-6c" x="241.992188"/>
     <use xlink:href="#DejaVuSans-65" x="269.775391"/>
     <use xlink:href="#DejaVuSans-64" x="331.298828"/>
     <use xlink:href="#DejaVuSans-20" x="394.775391"/>
     <use xlink:href="#DejaVuSans-53" x="426.5625"/>
     <use xlink:href="#DejaVuSans-69" x="490.039062"/>
     <use xlink:href="#DejaVuSans-7a" x="517.822266"/>
     <use xlink:href="#DejaVuSans-65" x="570.3125"/>
     <use xlink:href="#DejaVuSans-3a" x="631.835938"/>
     <use xlink:href="#DejaVuSans-20" x="665.527344"/>
     <use xlink:href="#DejaVuSans-31" x="697.314453"/>
     <use xlink:href="#DejaVuSans-30" x="760.9375"/>
     <use xlink:href="#DejaVuSans-30" x="824.560547"/>
    </g>
   </g>
   <g id="legend_1">
    <g id="patch_5">
     <path d="M 363.9925 95.701875 
L 423.684687 95.701875 
Q 425.884687 95.701875 425.884687 93.501875 
L 425.884687 30.018125 
Q 425.884687 27.818125 423.684687 27.818125 
L 363.9925 27.818125 
Q 361.7925 27.818125 361.7925 30.018125 
L 361.7925 93.501875 
Q 361.7925 95.701875 363.9925 95.701875 
z
" style="fill: #ffffff; opacity: 0.8; stroke: #cccccc; stroke-linejoin: miter"/>
    </g>
    <g id="line2d_26">
     <path d="M 366.1925 36.726406 
L 377.1925 36.726406 
L 388.1925 36.726406 
" style="fill: none; stroke: #f77189; stroke-width: 1.5; stroke-linecap: round"/>
    </g>
    <g id="text_20">
     <!-- 0.05 -->
     <g style="fill: #262626" transform="translate(396.9925 40.576406) scale(0.11 -0.11)">
      <use xlink:href="#DejaVuSans-30"/>
      <use xlink:href="#DejaVuSans-2e" x="63.623047"/>
      <use xlink:href="#DejaVuSans-30" x="95.410156"/>
      <use xlink:href="#DejaVuSans-35" x="159.033203"/>
     </g>
    </g>
    <g id="line2d_27">
     <path d="M 366.1925 52.872344 
L 377.1925 52.872344 
L 388.1925 52.872344 
" style="fill: none; stroke: #97a431; stroke-width: 1.5; stroke-linecap: round"/>
    </g>
    <g id="text_21">
     <!-- 0.25 -->
     <g style="fill: #262626" transform="translate(396.9925 56.722344) scale(0.11 -0.11)">
      <use xlink:href="#DejaVuSans-30"/>
      <use xlink:href="#DejaVuSans-2e" x="63.623047"/>
      <use xlink:href="#DejaVuSans-32" x="95.410156"/>
      <use xlink:href="#DejaVuSans-35" x="159.033203"/>
     </g>
    </g>
    <g id="line2d_28">
     <path d="M 366.1925 69.018281 
L 377.1925 69.018281 
L 388.1925 69.018281 
" style="fill: none; stroke: #36ada4; stroke-width: 1.5; stroke-linecap: round"/>
    </g>
    <g id="text_22">
     <!-- 0.75 -->
     <g style="fill: #262626" transform="translate(396.9925 72.868281) scale(0.11 -0.11)">
      <defs>
       <path id="DejaVuSans-37" d="M 525 4666 
L 3525 4666 
L 3525 4397 
L 1831 0 
L 1172 0 
L 2766 4134 
L 525 4134 
L 525 4666 
z
" transform="scale(0.015625)"/>
      </defs>
      <use xlink:href="#DejaVuSans-30"/>
      <use xlink:href="#DejaVuSans-2e" x="63.623047"/>
      <use xlink:href="#DejaVuSans-37" x="95.410156"/>
      <use xlink:href="#DejaVuSans-35" x="159.033203"/>
     </g>
    </g>
    <g id="line2d_29">
     <path d="M 366.1925 85.164219 
L 377.1925 85.164219 
L 388.1925 85.164219 
" style="fill: none; stroke: #a48cf4; stroke-width: 1.5; stroke-linecap: round"/>
    </g>
    <g id="text_23">
     <!-- 1.0 -->
     <g style="fill: #262626" transform="translate(396.9925 89.014219) scale(0.11 -0.11)">
      <use xlink:href="#DejaVuSans-31"/>
      <use xlink:href="#DejaVuSans-2e" x="63.623047"/>
      <use xlink:href="#DejaVuSans-30" x="95.410156"/>
     </g>
    </g>
   </g>
  </g>
  <g id="axes_2">
   <g id="patch_6">
    <path d="M 478.414687 176.538125 
L 845.994687 176.538125 
L 845.994687 22.318125 
L 478.414687 22.318125 
z
" style="fill: #ffffff"/>
   </g>
   <g id="matplotlib.axis_3">
    <g id="xtick_11">
     <g id="line2d_30">
      <path d="M 493.990111 176.538125 
L 493.990111 22.318125 
" clip-path="url(#pd154e4b5ea)" style="fill: none; stroke: #cccccc; stroke-linecap: round"/>
     </g>
     <g id="text_24">
      <!-- 2 -->
      <g style="fill: #262626" transform="translate(490.490736 194.396406) scale(0.11 -0.11)">
       <use xlink:href="#DejaVuSans-32"/>
      </g>
     </g>
    </g>
    <g id="xtick_12">
     <g id="line2d_31">
      <path d="M 525.140959 176.538125 
L 525.140959 22.318125 
" clip-path="url(#pd154e4b5ea)" style="fill: none; stroke: #cccccc; stroke-linecap: round"/>
     </g>
     <g id="text_25">
      <!-- 4 -->
      <g style="fill: #262626" transform="translate(521.641584 194.396406) scale(0.11 -0.11)">
       <use xlink:href="#DejaVuSans-34"/>
      </g>
     </g>
    </g>
    <g id="xtick_13">
     <g id="line2d_32">
      <path d="M 556.291806 176.538125 
L 556.291806 22.318125 
" clip-path="url(#pd154e4b5ea)" style="fill: none; stroke: #cccccc; stroke-linecap: round"/>
     </g>
     <g id="text_26">
      <!-- 6 -->
      <g style="fill: #262626" transform="translate(552.792431 194.396406) scale(0.11 -0.11)">
       <use xlink:href="#DejaVuSans-36"/>
      </g>
     </g>
    </g>
    <g id="xtick_14">
     <g id="line2d_33">
      <path d="M 587.442654 176.538125 
L 587.442654 22.318125 
" clip-path="url(#pd154e4b5ea)" style="fill: none; stroke: #cccccc; stroke-linecap: round"/>
     </g>
     <g id="text_27">
      <!-- 8 -->
      <g style="fill: #262626" transform="translate(583.943279 194.396406) scale(0.11 -0.11)">
       <use xlink:href="#DejaVuSans-38"/>
      </g>
     </g>
    </g>
    <g id="xtick_15">
     <g id="line2d_34">
      <path d="M 618.593501 176.538125 
L 618.593501 22.318125 
" clip-path="url(#pd154e4b5ea)" style="fill: none; stroke: #cccccc; stroke-linecap: round"/>
     </g>
     <g id="text_28">
      <!-- 10 -->
      <g style="fill: #262626" transform="translate(611.594751 194.396406) scale(0.11 -0.11)">
       <use xlink:href="#DejaVuSans-31"/>
       <use xlink:href="#DejaVuSans-30" x="63.623047"/>
      </g>
     </g>
    </g>
    <g id="xtick_16">
     <g id="line2d_35">
      <path d="M 649.744349 176.538125 
L 649.744349 22.318125 
" clip-path="url(#pd154e4b5ea)" style="fill: none; stroke: #cccccc; stroke-linecap: round"/>
     </g>
     <g id="text_29">
      <!-- 12 -->
      <g style="fill: #262626" transform="translate(642.745599 194.396406) scale(0.11 -0.11)">
       <use xlink:href="#DejaVuSans-31"/>
       <use xlink:href="#DejaVuSans-32" x="63.623047"/>
      </g>
     </g>
    </g>
    <g id="xtick_17">
     <g id="line2d_36">
      <path d="M 680.895196 176.538125 
L 680.895196 22.318125 
" clip-path="url(#pd154e4b5ea)" style="fill: none; stroke: #cccccc; stroke-linecap: round"/>
     </g>
     <g id="text_30">
      <!-- 14 -->
      <g style="fill: #262626" transform="translate(673.896446 194.396406) scale(0.11 -0.11)">
       <use xlink:href="#DejaVuSans-31"/>
       <use xlink:href="#DejaVuSans-34" x="63.623047"/>
      </g>
     </g>
    </g>
    <g id="xtick_18">
     <g id="line2d_37">
      <path d="M 712.046043 176.538125 
L 712.046043 22.318125 
" clip-path="url(#pd154e4b5ea)" style="fill: none; stroke: #cccccc; stroke-linecap: round"/>
     </g>
     <g id="text_31">
      <!-- 16 -->
      <g style="fill: #262626" transform="translate(705.047293 194.396406) scale(0.11 -0.11)">
       <use xlink:href="#DejaVuSans-31"/>
       <use xlink:href="#DejaVuSans-36" x="63.623047"/>
      </g>
     </g>
    </g>
    <g id="xtick_19">
     <g id="line2d_38">
      <path d="M 743.196891 176.538125 
L 743.196891 22.318125 
" clip-path="url(#pd154e4b5ea)" style="fill: none; stroke: #cccccc; stroke-linecap: round"/>
     </g>
     <g id="text_32">
      <!-- 18 -->
      <g style="fill: #262626" transform="translate(736.198141 194.396406) scale(0.11 -0.11)">
       <use xlink:href="#DejaVuSans-31"/>
       <use xlink:href="#DejaVuSans-38" x="63.623047"/>
      </g>
     </g>
    </g>
    <g id="xtick_20">
     <g id="line2d_39">
      <path d="M 774.347738 176.538125 
L 774.347738 22.318125 
" clip-path="url(#pd154e4b5ea)" style="fill: none; stroke: #cccccc; stroke-linecap: round"/>
     </g>
     <g id="text_33">
      <!-- 20 -->
      <g style="fill: #262626" transform="translate(767.348988 194.396406) scale(0.11 -0.11)">
       <use xlink:href="#DejaVuSans-32"/>
       <use xlink:href="#DejaVuSans-30" x="63.623047"/>
      </g>
     </g>
    </g>
   </g>
   <g id="matplotlib.axis_4">
    <g id="ytick_8">
     <g id="line2d_40">
      <path d="M 478.414687 173.949448 
L 845.994687 173.949448 
" clip-path="url(#pd154e4b5ea)" style="fill: none; stroke: #cccccc; stroke-linecap: round"/>
     </g>
     <g id="text_34">
      <!-- 0.52 -->
      <g style="fill: #262626" transform="translate(444.4225 178.128589) scale(0.11 -0.11)">
       <use xlink:href="#DejaVuSans-30"/>
       <use xlink:href="#DejaVuSans-2e" x="63.623047"/>
       <use xlink:href="#DejaVuSans-35" x="95.410156"/>
       <use xlink:href="#DejaVuSans-32" x="159.033203"/>
      </g>
     </g>
    </g>
    <g id="ytick_9">
     <g id="line2d_41">
      <path d="M 478.414687 149.960618 
L 845.994687 149.960618 
" clip-path="url(#pd154e4b5ea)" style="fill: none; stroke: #cccccc; stroke-linecap: round"/>
     </g>
     <g id="text_35">
      <!-- 0.53 -->
      <g style="fill: #262626" transform="translate(444.4225 154.139759) scale(0.11 -0.11)">
       <defs>
        <path id="DejaVuSans-33" d="M 2597 2516 
Q 3050 2419 3304 2112 
Q 3559 1806 3559 1356 
Q 3559 666 3084 287 
Q 2609 -91 1734 -91 
Q 1441 -91 1130 -33 
Q 819 25 488 141 
L 488 750 
Q 750 597 1062 519 
Q 1375 441 1716 441 
Q 2309 441 2620 675 
Q 2931 909 2931 1356 
Q 2931 1769 2642 2001 
Q 2353 2234 1838 2234 
L 1294 2234 
L 1294 2753 
L 1863 2753 
Q 2328 2753 2575 2939 
Q 2822 3125 2822 3475 
Q 2822 3834 2567 4026 
Q 2313 4219 1838 4219 
Q 1578 4219 1281 4162 
Q 984 4106 628 3988 
L 628 4550 
Q 988 4650 1302 4700 
Q 1616 4750 1894 4750 
Q 2613 4750 3031 4423 
Q 3450 4097 3450 3541 
Q 3450 3153 3228 2886 
Q 3006 2619 2597 2516 
z
" transform="scale(0.015625)"/>
       </defs>
       <use xlink:href="#DejaVuSans-30"/>
       <use xlink:href="#DejaVuSans-2e" x="63.623047"/>
       <use xlink:href="#DejaVuSans-35" x="95.410156"/>
       <use xlink:href="#DejaVuSans-33" x="159.033203"/>
      </g>
     </g>
    </g>
    <g id="ytick_10">
     <g id="line2d_42">
      <path d="M 478.414687 125.971789 
L 845.994687 125.971789 
" clip-path="url(#pd154e4b5ea)" style="fill: none; stroke: #cccccc; stroke-linecap: round"/>
     </g>
     <g id="text_36">
      <!-- 0.54 -->
      <g style="fill: #262626" transform="translate(444.4225 130.150929) scale(0.11 -0.11)">
       <use xlink:href="#DejaVuSans-30"/>
       <use xlink:href="#DejaVuSans-2e" x="63.623047"/>
       <use xlink:href="#DejaVuSans-35" x="95.410156"/>
       <use xlink:href="#DejaVuSans-34" x="159.033203"/>
      </g>
     </g>
    </g>
    <g id="ytick_11">
     <g id="line2d_43">
      <path d="M 478.414687 101.982959 
L 845.994687 101.982959 
" clip-path="url(#pd154e4b5ea)" style="fill: none; stroke: #cccccc; stroke-linecap: round"/>
     </g>
     <g id="text_37">
      <!-- 0.55 -->
      <g style="fill: #262626" transform="translate(444.4225 106.1621) scale(0.11 -0.11)">
       <use xlink:href="#DejaVuSans-30"/>
       <use xlink:href="#DejaVuSans-2e" x="63.623047"/>
       <use xlink:href="#DejaVuSans-35" x="95.410156"/>
       <use xlink:href="#DejaVuSans-35" x="159.033203"/>
      </g>
     </g>
    </g>
    <g id="ytick_12">
     <g id="line2d_44">
      <path d="M 478.414687 77.994129 
L 845.994687 77.994129 
" clip-path="url(#pd154e4b5ea)" style="fill: none; stroke: #cccccc; stroke-linecap: round"/>
     </g>
     <g id="text_38">
      <!-- 0.56 -->
      <g style="fill: #262626" transform="translate(444.4225 82.17327) scale(0.11 -0.11)">
       <use xlink:href="#DejaVuSans-30"/>
       <use xlink:href="#DejaVuSans-2e" x="63.623047"/>
       <use xlink:href="#DejaVuSans-35" x="95.410156"/>
       <use xlink:href="#DejaVuSans-36" x="159.033203"/>
      </g>
     </g>
    </g>
    <g id="ytick_13">
     <g id="line2d_45">
      <path d="M 478.414687 54.0053 
L 845.994687 54.0053 
" clip-path="url(#pd154e4b5ea)" style="fill: none; stroke: #cccccc; stroke-linecap: round"/>
     </g>
     <g id="text_39">
      <!-- 0.57 -->
      <g style="fill: #262626" transform="translate(444.4225 58.18444) scale(0.11 -0.11)">
       <use xlink:href="#DejaVuSans-30"/>
       <use xlink:href="#DejaVuSans-2e" x="63.623047"/>
       <use xlink:href="#DejaVuSans-35" x="95.410156"/>
       <use xlink:href="#DejaVuSans-37" x="159.033203"/>
      </g>
     </g>
    </g>
    <g id="ytick_14">
     <g id="line2d_46">
      <path d="M 478.414687 30.01647 
L 845.994687 30.01647 
" clip-path="url(#pd154e4b5ea)" style="fill: none; stroke: #cccccc; stroke-linecap: round"/>
     </g>
     <g id="text_40">
      <!-- 0.58 -->
      <g style="fill: #262626" transform="translate(444.4225 34.19561) scale(0.11 -0.11)">
       <use xlink:href="#DejaVuSans-30"/>
       <use xlink:href="#DejaVuSans-2e" x="63.623047"/>
       <use xlink:href="#DejaVuSans-35" x="95.410156"/>
       <use xlink:href="#DejaVuSans-38" x="159.033203"/>
      </g>
     </g>
    </g>
   </g>
   <g id="PolyCollection_5">
    <defs>
     <path id="mf2f820c67a" d="M 493.990111 -333.6337 
L 493.990111 -267.980306 
L 509.565535 -284.090549 
L 525.140959 -319.695879 
L 540.716382 -285.766671 
L 556.291806 -296.921784 
L 571.86723 -305.502388 
L 587.442654 -304.803464 
L 603.018077 -313.154192 
L 618.593501 -314.936066 
L 634.168925 -312.430033 
L 649.744349 -305.758058 
L 665.319772 -318.063501 
L 680.895196 -310.078509 
L 696.47062 -309.476486 
L 712.046043 -314.333958 
L 727.621467 -317.791925 
L 743.196891 -309.403164 
L 758.772315 -313.984075 
L 774.347738 -306.197478 
L 774.347738 -330.688304 
L 774.347738 -330.688304 
L 758.772315 -327.759122 
L 743.196891 -322.716387 
L 727.621467 -327.742851 
L 712.046043 -330.826599 
L 696.47062 -329.134176 
L 680.895196 -333.828989 
L 665.319772 -335.724735 
L 649.744349 -332.936839 
L 634.168925 -338.564437 
L 618.593501 -324.162803 
L 603.018077 -342.488864 
L 587.442654 -320.31423 
L 571.86723 -322.559946 
L 556.291806 -323.337746 
L 540.716382 -326.555574 
L 525.140959 -340.118479 
L 509.565535 -341.566799 
L 493.990111 -333.6337 
z
" style="stroke: #f77189; stroke-opacity: 0.2"/>
    </defs>
    <g clip-path="url(#pd154e4b5ea)">
     <use xlink:href="#mf2f820c67a" x="0" y="421.617812" style="fill: #f77189; fill-opacity: 0.2; stroke: #f77189; stroke-opacity: 0.2"/>
    </g>
   </g>
   <g id="PolyCollection_6">
    <defs>
     <path id="mc8b45ba27c" d="M 493.990111 -352.668162 
L 493.990111 -316.034474 
L 509.565535 -323.545832 
L 525.140959 -323.666475 
L 540.716382 -321.290643 
L 556.291806 -308.23152 
L 571.86723 -304.841093 
L 587.442654 -322.649426 
L 603.018077 -306.025537 
L 618.593501 -288.507115 
L 634.168925 -305.272755 
L 649.744349 -286.677969 
L 665.319772 -281.511307 
L 680.895196 -284.440461 
L 696.47062 -293.862457 
L 712.046043 -285.481903 
L 727.621467 -288.289005 
L 743.196891 -280.421021 
L 758.772315 -286.079979 
L 758.772315 -326.925093 
L 758.772315 -326.925093 
L 743.196891 -336.896408 
L 727.621467 -328.751807 
L 712.046043 -339.28955 
L 696.47062 -337.994844 
L 680.895196 -334.496183 
L 665.319772 -321.274372 
L 649.744349 -329.635808 
L 634.168925 -323.829249 
L 618.593501 -317.62597 
L 603.018077 -329.227983 
L 587.442654 -341.924775 
L 571.86723 -328.518064 
L 556.291806 -346.106959 
L 540.716382 -331.46125 
L 525.140959 -335.065662 
L 509.565535 -343.307427 
L 493.990111 -352.668162 
z
" style="stroke: #97a431; stroke-opacity: 0.2"/>
    </defs>
    <g clip-path="url(#pd154e4b5ea)">
     <use xlink:href="#mc8b45ba27c" x="0" y="421.617812" style="fill: #97a431; fill-opacity: 0.2; stroke: #97a431; stroke-opacity: 0.2"/>
    </g>
   </g>
   <g id="PolyCollection_7">
    <defs>
     <path id="mc4068f1993" d="M 493.990111 -347.05895 
L 493.990111 -316.384357 
L 509.565535 -324.43945 
L 525.140959 -328.685742 
L 540.716382 -340.183595 
L 556.291806 -347.34369 
L 571.86723 -351.566539 
L 587.442654 -346.172017 
L 603.018077 -350.64712 
L 618.593501 -358.482557 
L 634.168925 -363.458219 
L 649.744349 -357.620076 
L 665.319772 -358.173312 
L 680.895196 -361.444256 
L 696.47062 -364.153671 
L 712.046043 -372.200699 
L 727.621467 -361.720845 
L 743.196891 -373.852342 
L 743.196891 -388.782791 
L 743.196891 -388.782791 
L 727.621467 -381.321713 
L 712.046043 -384.299653 
L 696.47062 -376.43167 
L 680.895196 -378.498311 
L 665.319772 -371.785758 
L 649.744349 -377.269731 
L 634.168925 -378.49019 
L 618.593501 -374.885749 
L 603.018077 -372.631912 
L 587.442654 -371.952053 
L 571.86723 -365.984359 
L 556.291806 -355.187251 
L 540.716382 -358.458166 
L 525.140959 -353.559973 
L 509.565535 -348.214237 
L 493.990111 -347.05895 
z
" style="stroke: #36ada4; stroke-opacity: 0.2"/>
    </defs>
    <g clip-path="url(#pd154e4b5ea)">
     <use xlink:href="#mc4068f1993" x="0" y="421.617812" style="fill: #36ada4; fill-opacity: 0.2; stroke: #36ada4; stroke-opacity: 0.2"/>
    </g>
   </g>
   <g id="PolyCollection_8">
    <defs>
     <path id="maba9d9c8cd" d="M 493.990111 -322.340207 
L 493.990111 -306.384531 
L 509.565535 -312.763616 
L 525.140959 -332.120295 
L 540.716382 -343.875468 
L 556.291806 -320.037612 
L 571.86723 -336.758085 
L 587.442654 -347.539007 
L 603.018077 -360.573652 
L 618.593501 -348.629264 
L 634.168925 -352.974165 
L 649.744349 -363.958354 
L 665.319772 -366.317971 
L 680.895196 -374.649767 
L 696.47062 -381.744747 
L 712.046043 -372.599397 
L 727.621467 -373.535031 
L 727.621467 -390.621715 
L 727.621467 -390.621715 
L 712.046043 -392.289688 
L 696.47062 -391.142408 
L 680.895196 -389.189668 
L 665.319772 -388.095344 
L 649.744349 -388.074931 
L 634.168925 -377.318603 
L 618.593501 -368.628976 
L 603.018077 -368.042994 
L 587.442654 -359.816949 
L 571.86723 -359.597267 
L 556.291806 -354.406155 
L 540.716382 -362.027245 
L 525.140959 -355.789359 
L 509.565535 -331.88437 
L 493.990111 -322.340207 
z
" style="stroke: #a48cf4; stroke-opacity: 0.2"/>
    </defs>
    <g clip-path="url(#pd154e4b5ea)">
     <use xlink:href="#maba9d9c8cd" x="0" y="421.617812" style="fill: #a48cf4; fill-opacity: 0.2; stroke: #a48cf4; stroke-opacity: 0.2"/>
    </g>
   </g>
   <g id="line2d_47">
    <path d="M 493.990111 120.180233 
L 509.565535 102.125343 
L 525.140959 91.710633 
L 540.716382 115.444784 
L 556.291806 109.1309 
L 571.86723 107.902234 
L 587.442654 109.684165 
L 603.018077 94.192245 
L 618.593501 101.482542 
L 634.168925 95.673079 
L 649.744349 103.207507 
L 665.319772 95.087299 
L 680.895196 99.904078 
L 696.47062 102.483348 
L 712.046043 99.936621 
L 727.621467 98.984658 
L 743.196891 106.022731 
L 758.772315 102.442654 
L 774.347738 103.174921 
" clip-path="url(#pd154e4b5ea)" style="fill: none; stroke: #f77189; stroke-width: 1.5; stroke-linecap: round"/>
   </g>
   <g id="line2d_48">
    <path d="M 493.990111 88.390932 
L 509.565535 88.903531 
L 525.140959 92.093088 
L 540.716382 95.241866 
L 556.291806 92.548694 
L 571.86723 106.413279 
L 587.442654 91.57231 
L 603.018077 104.126955 
L 618.593501 116.575735 
L 634.168925 106.600388 
L 649.744349 111.441645 
L 665.319772 118.69937 
L 680.895196 108.780989 
L 696.47062 108.162638 
L 712.046043 109.277345 
L 727.621467 113.386264 
L 743.196891 113.329299 
L 758.772315 115.115276 
L 774.347738 169.528125 
" clip-path="url(#pd154e4b5ea)" style="fill: none; stroke: #97a431; stroke-width: 1.5; stroke-linecap: round"/>
   </g>
   <g id="line2d_49">
    <path d="M 493.990111 89.896159 
L 509.565535 85.290969 
L 525.140959 82.044476 
L 540.716382 72.296932 
L 556.291806 70.889335 
L 571.86723 62.842364 
L 587.442654 62.476209 
L 603.018077 58.25336 
L 618.593501 54.591925 
L 634.168925 51.695344 
L 649.744349 53.574876 
L 665.319772 56.089059 
L 680.895196 50.588786 
L 696.47062 51.052571 
L 712.046043 42.492971 
L 727.621467 50.556243 
L 743.196891 39.289965 
" clip-path="url(#pd154e4b5ea)" style="fill: none; stroke: #36ada4; stroke-width: 1.5; stroke-linecap: round"/>
   </g>
   <g id="line2d_50">
    <path d="M 493.990111 106.616717 
L 509.565535 99.29382 
L 525.140959 76.666254 
L 540.716382 69.416622 
L 556.291806 83.891465 
L 571.86723 71.589101 
L 587.442654 68.741278 
L 603.018077 57.30949 
L 618.593501 60.710578 
L 634.168925 55.267241 
L 649.744349 46.667034 
L 665.319772 43.347304 
L 680.895196 39.90558 
L 696.47062 35.796661 
L 712.046043 39.17327 
L 727.621467 39.832343 
L 743.196891 41.134132 
" clip-path="url(#pd154e4b5ea)" style="fill: none; stroke: #a48cf4; stroke-width: 1.5; stroke-linecap: round"/>
   </g>
   <g id="line2d_51"/>
   <g id="line2d_52"/>
   <g id="line2d_53"/>
   <g id="line2d_54"/>
   <g id="patch_7">
    <path d="M 478.414687 176.538125 
L 478.414687 22.318125 
" style="fill: none; stroke: #cccccc; stroke-width: 1.25; stroke-linejoin: miter; stroke-linecap: square"/>
   </g>
   <g id="patch_8">
    <path d="M 478.414687 176.538125 
L 845.994687 176.538125 
" style="fill: none; stroke: #cccccc; stroke-width: 1.25; stroke-linejoin: miter; stroke-linecap: square"/>
   </g>
   <g id="text_41">
    <!-- Labeled Size: 1000 -->
    <g style="fill: #262626" transform="translate(605.094062 16.318125) scale(0.12 -0.12)">
     <use xlink:href="#DejaVuSans-4c"/>
     <use xlink:href="#DejaVuSans-61" x="55.712891"/>
     <use xlink:href="#DejaVuSans-62" x="116.992188"/>
     <use xlink:href="#DejaVuSans-65" x="180.46875"/>
     <use xlink:href="#DejaVuSans-6c" x="241.992188"/>
     <use xlink:href="#DejaVuSans-65" x="269.775391"/>
     <use xlink:href="#DejaVuSans-64" x="331.298828"/>
     <use xlink:href="#DejaVuSans-20" x="394.775391"/>
     <use xlink:href="#DejaVuSans-53" x="426.5625"/>
     <use xlink:href="#DejaVuSans-69" x="490.039062"/>
     <use xlink:href="#DejaVuSans-7a" x="517.822266"/>
     <use xlink:href="#DejaVuSans-65" x="570.3125"/>
     <use xlink:href="#DejaVuSans-3a" x="631.835938"/>
     <use xlink:href="#DejaVuSans-20" x="665.527344"/>
     <use xlink:href="#DejaVuSans-31" x="697.314453"/>
     <use xlink:href="#DejaVuSans-30" x="760.9375"/>
     <use xlink:href="#DejaVuSans-30" x="824.560547"/>
     <use xlink:href="#DejaVuSans-30" x="888.183594"/>
    </g>
   </g>
   <g id="legend_2">
    <g id="patch_9">
     <path d="M 778.6025 95.701875 
L 838.294687 95.701875 
Q 840.494687 95.701875 840.494687 93.501875 
L 840.494687 30.018125 
Q 840.494687 27.818125 838.294687 27.818125 
L 778.6025 27.818125 
Q 776.4025 27.818125 776.4025 30.018125 
L 776.4025 93.501875 
Q 776.4025 95.701875 778.6025 95.701875 
z
" style="fill: #ffffff; opacity: 0.8; stroke: #cccccc; stroke-linejoin: miter"/>
    </g>
    <g id="line2d_55">
     <path d="M 780.8025 36.726406 
L 791.8025 36.726406 
L 802.8025 36.726406 
" style="fill: none; stroke: #f77189; stroke-width: 1.5; stroke-linecap: round"/>
    </g>
    <g id="text_42">
     <!-- 0.05 -->
     <g style="fill: #262626" transform="translate(811.6025 40.576406) scale(0.11 -0.11)">
      <use xlink:href="#DejaVuSans-30"/>
      <use xlink:href="#DejaVuSans-2e" x="63.623047"/>
      <use xlink:href="#DejaVuSans-30" x="95.410156"/>
      <use xlink:href="#DejaVuSans-35" x="159.033203"/>
     </g>
    </g>
    <g id="line2d_56">
     <path d="M 780.8025 52.872344 
L 791.8025 52.872344 
L 802.8025 52.872344 
" style="fill: none; stroke: #97a431; stroke-width: 1.5; stroke-linecap: round"/>
    </g>
    <g id="text_43">
     <!-- 0.25 -->
     <g style="fill: #262626" transform="translate(811.6025 56.722344) scale(0.11 -0.11)">
      <use xlink:href="#DejaVuSans-30"/>
      <use xlink:href="#DejaVuSans-2e" x="63.623047"/>
      <use xlink:href="#DejaVuSans-32" x="95.410156"/>
      <use xlink:href="#DejaVuSans-35" x="159.033203"/>
     </g>
    </g>
    <g id="line2d_57">
     <path d="M 780.8025 69.018281 
L 791.8025 69.018281 
L 802.8025 69.018281 
" style="fill: none; stroke: #36ada4; stroke-width: 1.5; stroke-linecap: round"/>
    </g>
    <g id="text_44">
     <!-- 0.75 -->
     <g style="fill: #262626" transform="translate(811.6025 72.868281) scale(0.11 -0.11)">
      <use xlink:href="#DejaVuSans-30"/>
      <use xlink:href="#DejaVuSans-2e" x="63.623047"/>
      <use xlink:href="#DejaVuSans-37" x="95.410156"/>
      <use xlink:href="#DejaVuSans-35" x="159.033203"/>
     </g>
    </g>
    <g id="line2d_58">
     <path d="M 780.8025 85.164219 
L 791.8025 85.164219 
L 802.8025 85.164219 
" style="fill: none; stroke: #a48cf4; stroke-width: 1.5; stroke-linecap: round"/>
    </g>
    <g id="text_45">
     <!-- 1.0 -->
     <g style="fill: #262626" transform="translate(811.6025 89.014219) scale(0.11 -0.11)">
      <use xlink:href="#DejaVuSans-31"/>
      <use xlink:href="#DejaVuSans-2e" x="63.623047"/>
      <use xlink:href="#DejaVuSans-30" x="95.410156"/>
     </g>
    </g>
   </g>
  </g>
  <g id="axes_3">
   <g id="patch_10">
    <path d="M 63.804688 378.658125 
L 431.384687 378.658125 
L 431.384687 224.438125 
L 63.804688 224.438125 
z
" style="fill: #ffffff"/>
   </g>
   <g id="matplotlib.axis_5">
    <g id="xtick_21">
     <g id="line2d_59">
      <path d="M 79.380111 378.658125 
L 79.380111 224.438125 
" clip-path="url(#pa76dcffb3e)" style="fill: none; stroke: #cccccc; stroke-linecap: round"/>
     </g>
     <g id="text_46">
      <!-- 2 -->
      <g style="fill: #262626" transform="translate(75.880736 396.516406) scale(0.11 -0.11)">
       <use xlink:href="#DejaVuSans-32"/>
      </g>
     </g>
    </g>
    <g id="xtick_22">
     <g id="line2d_60">
      <path d="M 110.530959 378.658125 
L 110.530959 224.438125 
" clip-path="url(#pa76dcffb3e)" style="fill: none; stroke: #cccccc; stroke-linecap: round"/>
     </g>
     <g id="text_47">
      <!-- 4 -->
      <g style="fill: #262626" transform="translate(107.031584 396.516406) scale(0.11 -0.11)">
       <use xlink:href="#DejaVuSans-34"/>
      </g>
     </g>
    </g>
    <g id="xtick_23">
     <g id="line2d_61">
      <path d="M 141.681806 378.658125 
L 141.681806 224.438125 
" clip-path="url(#pa76dcffb3e)" style="fill: none; stroke: #cccccc; stroke-linecap: round"/>
     </g>
     <g id="text_48">
      <!-- 6 -->
      <g style="fill: #262626" transform="translate(138.182431 396.516406) scale(0.11 -0.11)">
       <use xlink:href="#DejaVuSans-36"/>
      </g>
     </g>
    </g>
    <g id="xtick_24">
     <g id="line2d_62">
      <path d="M 172.832654 378.658125 
L 172.832654 224.438125 
" clip-path="url(#pa76dcffb3e)" style="fill: none; stroke: #cccccc; stroke-linecap: round"/>
     </g>
     <g id="text_49">
      <!-- 8 -->
      <g style="fill: #262626" transform="translate(169.333279 396.516406) scale(0.11 -0.11)">
       <use xlink:href="#DejaVuSans-38"/>
      </g>
     </g>
    </g>
    <g id="xtick_25">
     <g id="line2d_63">
      <path d="M 203.983501 378.658125 
L 203.983501 224.438125 
" clip-path="url(#pa76dcffb3e)" style="fill: none; stroke: #cccccc; stroke-linecap: round"/>
     </g>
     <g id="text_50">
      <!-- 10 -->
      <g style="fill: #262626" transform="translate(196.984751 396.516406) scale(0.11 -0.11)">
       <use xlink:href="#DejaVuSans-31"/>
       <use xlink:href="#DejaVuSans-30" x="63.623047"/>
      </g>
     </g>
    </g>
    <g id="xtick_26">
     <g id="line2d_64">
      <path d="M 235.134349 378.658125 
L 235.134349 224.438125 
" clip-path="url(#pa76dcffb3e)" style="fill: none; stroke: #cccccc; stroke-linecap: round"/>
     </g>
     <g id="text_51">
      <!-- 12 -->
      <g style="fill: #262626" transform="translate(228.135599 396.516406) scale(0.11 -0.11)">
       <use xlink:href="#DejaVuSans-31"/>
       <use xlink:href="#DejaVuSans-32" x="63.623047"/>
      </g>
     </g>
    </g>
    <g id="xtick_27">
     <g id="line2d_65">
      <path d="M 266.285196 378.658125 
L 266.285196 224.438125 
" clip-path="url(#pa76dcffb3e)" style="fill: none; stroke: #cccccc; stroke-linecap: round"/>
     </g>
     <g id="text_52">
      <!-- 14 -->
      <g style="fill: #262626" transform="translate(259.286446 396.516406) scale(0.11 -0.11)">
       <use xlink:href="#DejaVuSans-31"/>
       <use xlink:href="#DejaVuSans-34" x="63.623047"/>
      </g>
     </g>
    </g>
    <g id="xtick_28">
     <g id="line2d_66">
      <path d="M 297.436043 378.658125 
L 297.436043 224.438125 
" clip-path="url(#pa76dcffb3e)" style="fill: none; stroke: #cccccc; stroke-linecap: round"/>
     </g>
     <g id="text_53">
      <!-- 16 -->
      <g style="fill: #262626" transform="translate(290.437293 396.516406) scale(0.11 -0.11)">
       <use xlink:href="#DejaVuSans-31"/>
       <use xlink:href="#DejaVuSans-36" x="63.623047"/>
      </g>
     </g>
    </g>
    <g id="xtick_29">
     <g id="line2d_67">
      <path d="M 328.586891 378.658125 
L 328.586891 224.438125 
" clip-path="url(#pa76dcffb3e)" style="fill: none; stroke: #cccccc; stroke-linecap: round"/>
     </g>
     <g id="text_54">
      <!-- 18 -->
      <g style="fill: #262626" transform="translate(321.588141 396.516406) scale(0.11 -0.11)">
       <use xlink:href="#DejaVuSans-31"/>
       <use xlink:href="#DejaVuSans-38" x="63.623047"/>
      </g>
     </g>
    </g>
    <g id="xtick_30">
     <g id="line2d_68">
      <path d="M 359.737738 378.658125 
L 359.737738 224.438125 
" clip-path="url(#pa76dcffb3e)" style="fill: none; stroke: #cccccc; stroke-linecap: round"/>
     </g>
     <g id="text_55">
      <!-- 20 -->
      <g style="fill: #262626" transform="translate(352.738988 396.516406) scale(0.11 -0.11)">
       <use xlink:href="#DejaVuSans-32"/>
       <use xlink:href="#DejaVuSans-30" x="63.623047"/>
      </g>
     </g>
    </g>
    <g id="text_56">
     <!-- Iteration -->
     <g style="fill: #262626" transform="translate(222.144375 411.922187) scale(0.12 -0.12)">
      <defs>
       <path id="DejaVuSans-49" d="M 628 4666 
L 1259 4666 
L 1259 0 
L 628 0 
L 628 4666 
z
" transform="scale(0.015625)"/>
       <path id="DejaVuSans-74" d="M 1172 4494 
L 1172 3500 
L 2356 3500 
L 2356 3053 
L 1172 3053 
L 1172 1153 
Q 1172 725 1289 603 
Q 1406 481 1766 481 
L 2356 481 
L 2356 0 
L 1766 0 
Q 1100 0 847 248 
Q 594 497 594 1153 
L 594 3053 
L 172 3053 
L 172 3500 
L 594 3500 
L 594 4494 
L 1172 4494 
z
" transform="scale(0.015625)"/>
       <path id="DejaVuSans-6f" d="M 1959 3097 
Q 1497 3097 1228 2736 
Q 959 2375 959 1747 
Q 959 1119 1226 758 
Q 1494 397 1959 397 
Q 2419 397 2687 759 
Q 2956 1122 2956 1747 
Q 2956 2369 2687 2733 
Q 2419 3097 1959 3097 
z
M 1959 3584 
Q 2709 3584 3137 3096 
Q 3566 2609 3566 1747 
Q 3566 888 3137 398 
Q 2709 -91 1959 -91 
Q 1206 -91 779 398 
Q 353 888 353 1747 
Q 353 2609 779 3096 
Q 1206 3584 1959 3584 
z
" transform="scale(0.015625)"/>
       <path id="DejaVuSans-6e" d="M 3513 2113 
L 3513 0 
L 2938 0 
L 2938 2094 
Q 2938 2591 2744 2837 
Q 2550 3084 2163 3084 
Q 1697 3084 1428 2787 
Q 1159 2491 1159 1978 
L 1159 0 
L 581 0 
L 581 3500 
L 1159 3500 
L 1159 2956 
Q 1366 3272 1645 3428 
Q 1925 3584 2291 3584 
Q 2894 3584 3203 3211 
Q 3513 2838 3513 2113 
z
" transform="scale(0.015625)"/>
      </defs>
      <use xlink:href="#DejaVuSans-49"/>
      <use xlink:href="#DejaVuSans-74" x="29.492188"/>
      <use xlink:href="#DejaVuSans-65" x="68.701172"/>
      <use xlink:href="#DejaVuSans-72" x="130.224609"/>
      <use xlink:href="#DejaVuSans-61" x="171.337891"/>
      <use xlink:href="#DejaVuSans-74" x="232.617188"/>
      <use xlink:href="#DejaVuSans-69" x="271.826172"/>
      <use xlink:href="#DejaVuSans-6f" x="299.609375"/>
      <use xlink:href="#DejaVuSans-6e" x="360.791016"/>
     </g>
    </g>
   </g>
   <g id="matplotlib.axis_6">
    <g id="ytick_15">
     <g id="line2d_69">
      <path d="M 63.804688 371.927193 
L 431.384687 371.927193 
" clip-path="url(#pa76dcffb3e)" style="fill: none; stroke: #cccccc; stroke-linecap: round"/>
     </g>
     <g id="text_57">
      <!-- 0.580 -->
      <g style="fill: #262626" transform="translate(22.81375 376.106333) scale(0.11 -0.11)">
       <use xlink:href="#DejaVuSans-30"/>
       <use xlink:href="#DejaVuSans-2e" x="63.623047"/>
       <use xlink:href="#DejaVuSans-35" x="95.410156"/>
       <use xlink:href="#DejaVuSans-38" x="159.033203"/>
       <use xlink:href="#DejaVuSans-30" x="222.65625"/>
      </g>
     </g>
    </g>
    <g id="ytick_16">
     <g id="line2d_70">
      <path d="M 63.804688 347.136991 
L 431.384687 347.136991 
" clip-path="url(#pa76dcffb3e)" style="fill: none; stroke: #cccccc; stroke-linecap: round"/>
     </g>
     <g id="text_58">
      <!-- 0.585 -->
      <g style="fill: #262626" transform="translate(22.81375 351.316132) scale(0.11 -0.11)">
       <use xlink:href="#DejaVuSans-30"/>
       <use xlink:href="#DejaVuSans-2e" x="63.623047"/>
       <use xlink:href="#DejaVuSans-35" x="95.410156"/>
       <use xlink:href="#DejaVuSans-38" x="159.033203"/>
       <use xlink:href="#DejaVuSans-35" x="222.65625"/>
      </g>
     </g>
    </g>
    <g id="ytick_17">
     <g id="line2d_71">
      <path d="M 63.804688 322.34679 
L 431.384687 322.34679 
" clip-path="url(#pa76dcffb3e)" style="fill: none; stroke: #cccccc; stroke-linecap: round"/>
     </g>
     <g id="text_59">
      <!-- 0.590 -->
      <g style="fill: #262626" transform="translate(22.81375 326.525931) scale(0.11 -0.11)">
       <defs>
        <path id="DejaVuSans-39" d="M 703 97 
L 703 672 
Q 941 559 1184 500 
Q 1428 441 1663 441 
Q 2288 441 2617 861 
Q 2947 1281 2994 2138 
Q 2813 1869 2534 1725 
Q 2256 1581 1919 1581 
Q 1219 1581 811 2004 
Q 403 2428 403 3163 
Q 403 3881 828 4315 
Q 1253 4750 1959 4750 
Q 2769 4750 3195 4129 
Q 3622 3509 3622 2328 
Q 3622 1225 3098 567 
Q 2575 -91 1691 -91 
Q 1453 -91 1209 -44 
Q 966 3 703 97 
z
M 1959 2075 
Q 2384 2075 2632 2365 
Q 2881 2656 2881 3163 
Q 2881 3666 2632 3958 
Q 2384 4250 1959 4250 
Q 1534 4250 1286 3958 
Q 1038 3666 1038 3163 
Q 1038 2656 1286 2365 
Q 1534 2075 1959 2075 
z
" transform="scale(0.015625)"/>
       </defs>
       <use xlink:href="#DejaVuSans-30"/>
       <use xlink:href="#DejaVuSans-2e" x="63.623047"/>
       <use xlink:href="#DejaVuSans-35" x="95.410156"/>
       <use xlink:href="#DejaVuSans-39" x="159.033203"/>
       <use xlink:href="#DejaVuSans-30" x="222.65625"/>
      </g>
     </g>
    </g>
    <g id="ytick_18">
     <g id="line2d_72">
      <path d="M 63.804688 297.556589 
L 431.384687 297.556589 
" clip-path="url(#pa76dcffb3e)" style="fill: none; stroke: #cccccc; stroke-linecap: round"/>
     </g>
     <g id="text_60">
      <!-- 0.595 -->
      <g style="fill: #262626" transform="translate(22.81375 301.73573) scale(0.11 -0.11)">
       <use xlink:href="#DejaVuSans-30"/>
       <use xlink:href="#DejaVuSans-2e" x="63.623047"/>
       <use xlink:href="#DejaVuSans-35" x="95.410156"/>
       <use xlink:href="#DejaVuSans-39" x="159.033203"/>
       <use xlink:href="#DejaVuSans-35" x="222.65625"/>
      </g>
     </g>
    </g>
    <g id="ytick_19">
     <g id="line2d_73">
      <path d="M 63.804688 272.766388 
L 431.384687 272.766388 
" clip-path="url(#pa76dcffb3e)" style="fill: none; stroke: #cccccc; stroke-linecap: round"/>
     </g>
     <g id="text_61">
      <!-- 0.600 -->
      <g style="fill: #262626" transform="translate(22.81375 276.945528) scale(0.11 -0.11)">
       <use xlink:href="#DejaVuSans-30"/>
       <use xlink:href="#DejaVuSans-2e" x="63.623047"/>
       <use xlink:href="#DejaVuSans-36" x="95.410156"/>
       <use xlink:href="#DejaVuSans-30" x="159.033203"/>
       <use xlink:href="#DejaVuSans-30" x="222.65625"/>
      </g>
     </g>
    </g>
    <g id="ytick_20">
     <g id="line2d_74">
      <path d="M 63.804688 247.976187 
L 431.384687 247.976187 
" clip-path="url(#pa76dcffb3e)" style="fill: none; stroke: #cccccc; stroke-linecap: round"/>
     </g>
     <g id="text_62">
      <!-- 0.605 -->
      <g style="fill: #262626" transform="translate(22.81375 252.155327) scale(0.11 -0.11)">
       <use xlink:href="#DejaVuSans-30"/>
       <use xlink:href="#DejaVuSans-2e" x="63.623047"/>
       <use xlink:href="#DejaVuSans-36" x="95.410156"/>
       <use xlink:href="#DejaVuSans-30" x="159.033203"/>
       <use xlink:href="#DejaVuSans-35" x="222.65625"/>
      </g>
     </g>
    </g>
    <g id="text_63">
     <!-- Accuracy -->
     <g style="fill: #262626" transform="translate(16.318125 328.941875) rotate(-90) scale(0.12 -0.12)">
      <use xlink:href="#DejaVuSans-41"/>
      <use xlink:href="#DejaVuSans-63" x="66.658203"/>
      <use xlink:href="#DejaVuSans-63" x="121.638672"/>
      <use xlink:href="#DejaVuSans-75" x="176.619141"/>
      <use xlink:href="#DejaVuSans-72" x="239.998047"/>
      <use xlink:href="#DejaVuSans-61" x="281.111328"/>
      <use xlink:href="#DejaVuSans-63" x="342.390625"/>
      <use xlink:href="#DejaVuSans-79" x="397.371094"/>
     </g>
    </g>
   </g>
   <g id="PolyCollection_9">
    <defs>
     <path id="ma817c04db1" d="M 79.380111 -128.806152 
L 79.380111 -82.190417 
L 94.955535 -67.543153 
L 110.530959 -71.574868 
L 126.106382 -84.135695 
L 141.681806 -90.043802 
L 157.25723 -68.968358 
L 172.832654 -80.508659 
L 188.408077 -85.705063 
L 203.983501 -69.510622 
L 219.558925 -69.388768 
L 235.134349 -49.969688 
L 250.709772 -85.066025 
L 266.285196 -82.552364 
L 281.86062 -74.820947 
L 297.436043 -71.411007 
L 313.011467 -82.953074 
L 328.586891 -76.220454 
L 344.162315 -65.895203 
L 344.162315 -117.017593 
L 344.162315 -117.017593 
L 328.586891 -97.930699 
L 313.011467 -99.999236 
L 297.436043 -105.346888 
L 281.86062 -97.880342 
L 266.285196 -107.751553 
L 250.709772 -101.451292 
L 235.134349 -93.558448 
L 219.558925 -113.788835 
L 203.983501 -90.901348 
L 188.408077 -108.895165 
L 172.832654 -110.576745 
L 157.25723 -103.698761 
L 141.681806 -110.206751 
L 126.106382 -100.217864 
L 110.530959 -104.511417 
L 94.955535 -93.894752 
L 79.380111 -128.806152 
z
" style="stroke: #f77189; stroke-opacity: 0.2"/>
    </defs>
    <g clip-path="url(#pa76dcffb3e)">
     <use xlink:href="#ma817c04db1" x="0" y="421.617812" style="fill: #f77189; fill-opacity: 0.2; stroke: #f77189; stroke-opacity: 0.2"/>
    </g>
   </g>
   <g id="PolyCollection_10">
    <defs>
     <path id="mb0c9e7c8a7" d="M 79.380111 -97.863556 
L 79.380111 -75.800044 
L 94.955535 -83.981324 
L 110.530959 -50.171647 
L 126.106382 -65.35688 
L 141.681806 -99.662873 
L 157.25723 -83.905687 
L 172.832654 -93.809024 
L 188.408077 -95.492227 
L 203.983501 -89.438336 
L 219.558925 -104.438867 
L 235.134349 -91.674848 
L 250.709772 -95.290503 
L 266.285196 -91.418865 
L 281.86062 -75.379634 
L 297.436043 -95.189553 
L 313.011467 -81.097398 
L 328.586891 -75.413265 
L 328.586891 -121.339428 
L 328.586891 -121.339428 
L 313.011467 -126.437466 
L 297.436043 -113.906571 
L 281.86062 -108.558801 
L 266.285196 -108.744639 
L 250.709772 -118.413257 
L 235.134349 -126.972969 
L 219.558925 -137.836543 
L 203.983501 -126.989813 
L 188.408077 -122.533456 
L 172.832654 -113.301224 
L 157.25723 -111.165485 
L 141.681806 -117.992935 
L 126.106382 -114.747332 
L 110.530959 -138.038385 
L 94.955535 -113.973773 
L 79.380111 -97.863556 
z
" style="stroke: #97a431; stroke-opacity: 0.2"/>
    </defs>
    <g clip-path="url(#pa76dcffb3e)">
     <use xlink:href="#mb0c9e7c8a7" x="0" y="421.617812" style="fill: #97a431; fill-opacity: 0.2; stroke: #97a431; stroke-opacity: 0.2"/>
    </g>
   </g>
   <g id="PolyCollection_11">
    <defs>
     <path id="m6c125679cf" d="M 79.380111 -132.320621 
L 79.380111 -81.753162 
L 94.955535 -72.655392 
L 110.530959 -92.045019 
L 126.106382 -101.882718 
L 141.681806 -108.710227 
L 157.25723 -103.177578 
L 172.832654 -111.552146 
L 188.408077 -111.686668 
L 203.983501 -115.73066 
L 219.558925 -125.81263 
L 235.134349 -122.06263 
L 250.709772 -135.532593 
L 266.285196 -127.679326 
L 281.86062 -129.140235 
L 297.436043 -129.747686 
L 313.011467 -122.869761 
L 328.586891 -121.557997 
L 328.586891 -137.533928 
L 328.586891 -137.533928 
L 313.011467 -144.445425 
L 297.436043 -141.351248 
L 281.86062 -146.530689 
L 266.285196 -145.639512 
L 250.709772 -146.059922 
L 235.134349 -147.674182 
L 219.558925 -150.465803 
L 203.983501 -145.900482 
L 188.408077 -134.091891 
L 172.832654 -141.973381 
L 157.25723 -119.909987 
L 141.681806 -130.958618 
L 126.106382 -143.823173 
L 110.530959 -119.40559 
L 94.955535 -87.706339 
L 79.380111 -132.320621 
z
" style="stroke: #36ada4; stroke-opacity: 0.2"/>
    </defs>
    <g clip-path="url(#pa76dcffb3e)">
     <use xlink:href="#m6c125679cf" x="0" y="421.617812" style="fill: #36ada4; fill-opacity: 0.2; stroke: #36ada4; stroke-opacity: 0.2"/>
    </g>
   </g>
   <g id="PolyCollection_12">
    <defs>
     <path id="m400b2a9988" d="M 79.380111 -93.356665 
L 79.380111 -75.631951 
L 94.955535 -71.074644 
L 110.530959 -100.217805 
L 126.106382 -104.102503 
L 141.681806 -106.221339 
L 157.25723 -121.99531 
L 172.832654 -109.113733 
L 188.408077 -105.195581 
L 203.983501 -122.152137 
L 219.558925 -133.464232 
L 235.134349 -135.448546 
L 250.709772 -152.160084 
L 266.285196 -151.474775 
L 281.86062 -146.041698 
L 297.436043 -149.540937 
L 313.011467 -140.560903 
L 328.586891 -154.770853 
L 328.586891 -190.169688 
L 328.586891 -190.169688 
L 313.011467 -158.083775 
L 297.436043 -159.967139 
L 281.86062 -159.614049 
L 266.285196 -164.393287 
L 250.709772 -174.362204 
L 235.134349 -147.567917 
L 219.558925 -150.476732 
L 203.983501 -151.373943 
L 188.408077 -127.982059 
L 172.832654 -139.943248 
L 157.25723 -131.58081 
L 141.681806 -123.929208 
L 126.106382 -131.001439 
L 110.530959 -118.800124 
L 94.955535 -115.621723 
L 79.380111 -93.356665 
z
" style="stroke: #a48cf4; stroke-opacity: 0.2"/>
    </defs>
    <g clip-path="url(#pa76dcffb3e)">
     <use xlink:href="#m400b2a9988" x="0" y="421.617812" style="fill: #a48cf4; fill-opacity: 0.2; stroke: #a48cf4; stroke-opacity: 0.2"/>
    </g>
   </g>
   <g id="line2d_75">
    <path d="M 79.380111 321.50084 
L 94.955535 338.485685 
L 110.530959 333.978852 
L 126.106382 329.841896 
L 141.681806 321.803632 
L 157.25723 334.668365 
L 172.832654 324.881082 
L 188.408077 324.780132 
L 203.983501 341.849023 
L 219.558925 332.532567 
L 235.134349 352.090346 
L 250.709772 328.362098 
L 266.285196 324.931558 
L 281.86062 336.148163 
L 297.436043 333.238865 
L 313.011467 329.656899 
L 328.586891 333.306185 
L 344.162315 331.730933 
" clip-path="url(#pa76dcffb3e)" style="fill: none; stroke: #f77189; stroke-width: 1.5; stroke-linecap: round"/>
   </g>
   <g id="line2d_76">
    <path d="M 79.380111 336.013641 
L 94.955535 323.77116 
L 110.530959 324.141095 
L 126.106382 330.665989 
L 141.681806 312.789909 
L 157.25723 324.494244 
L 172.832654 318.221607 
L 188.408077 313.075856 
L 203.983501 315.51421 
L 219.558925 300.513738 
L 235.134349 312.369558 
L 250.709772 315.19475 
L 266.285196 320.508772 
L 281.86062 328.093054 
L 297.436043 315.800098 
L 313.011467 318.692492 
L 328.586891 320.424666 
L 344.162315 359.590404 
" clip-path="url(#pa76dcffb3e)" style="fill: none; stroke: #97a431; stroke-width: 1.5; stroke-linecap: round"/>
   </g>
   <g id="line2d_77">
    <path d="M 79.380111 314.67339 
L 94.955535 341.748073 
L 110.530959 315.514151 
L 126.106382 298.54621 
L 141.681806 301.085515 
L 157.25723 310.452387 
L 172.832654 293.888071 
L 188.408077 298.832158 
L 203.983501 289.179397 
L 219.558925 283.478596 
L 235.134349 286.186052 
L 250.709772 279.947105 
L 266.285196 284.958394 
L 281.86062 285.025714 
L 297.436043 285.715226 
L 313.011467 288.405838 
L 328.586891 292.07185 
" clip-path="url(#pa76dcffb3e)" style="fill: none; stroke: #36ada4; stroke-width: 1.5; stroke-linecap: round"/>
   </g>
   <g id="line2d_78">
    <path d="M 79.380111 337.157135 
L 94.955535 327.958533 
L 110.530959 311.646415 
L 126.106382 304.583375 
L 141.681806 308.753903 
L 157.25723 295.653757 
L 172.832654 296.242378 
L 188.408077 305.138306 
L 203.983501 284.605245 
L 219.558925 279.762108 
L 235.134349 280.115257 
L 250.709772 258.724531 
L 266.285196 263.618202 
L 281.86062 268.057773 
L 297.436043 266.544226 
L 313.011467 272.90085 
L 328.586891 249.147542 
" clip-path="url(#pa76dcffb3e)" style="fill: none; stroke: #a48cf4; stroke-width: 1.5; stroke-linecap: round"/>
   </g>
   <g id="line2d_79"/>
   <g id="line2d_80"/>
   <g id="line2d_81"/>
   <g id="line2d_82"/>
   <g id="patch_11">
    <path d="M 63.804688 378.658125 
L 63.804688 224.438125 
" style="fill: none; stroke: #cccccc; stroke-width: 1.25; stroke-linejoin: miter; stroke-linecap: square"/>
   </g>
   <g id="patch_12">
    <path d="M 63.804688 378.658125 
L 431.384687 378.658125 
" style="fill: none; stroke: #cccccc; stroke-width: 1.25; stroke-linejoin: miter; stroke-linecap: square"/>
   </g>
   <g id="text_64">
    <!-- Labeled Size: 5000 -->
    <g style="fill: #262626" transform="translate(190.484062 218.438125) scale(0.12 -0.12)">
     <use xlink:href="#DejaVuSans-4c"/>
     <use xlink:href="#DejaVuSans-61" x="55.712891"/>
     <use xlink:href="#DejaVuSans-62" x="116.992188"/>
     <use xlink:href="#DejaVuSans-65" x="180.46875"/>
     <use xlink:href="#DejaVuSans-6c" x="241.992188"/>
     <use xlink:href="#DejaVuSans-65" x="269.775391"/>
     <use xlink:href="#DejaVuSans-64" x="331.298828"/>
     <use xlink:href="#DejaVuSans-20" x="394.775391"/>
     <use xlink:href="#DejaVuSans-53" x="426.5625"/>
     <use xlink:href="#DejaVuSans-69" x="490.039062"/>
     <use xlink:href="#DejaVuSans-7a" x="517.822266"/>
     <use xlink:href="#DejaVuSans-65" x="570.3125"/>
     <use xlink:href="#DejaVuSans-3a" x="631.835938"/>
     <use xlink:href="#DejaVuSans-20" x="665.527344"/>
     <use xlink:href="#DejaVuSans-35" x="697.314453"/>
     <use xlink:href="#DejaVuSans-30" x="760.9375"/>
     <use xlink:href="#DejaVuSans-30" x="824.560547"/>
     <use xlink:href="#DejaVuSans-30" x="888.183594"/>
    </g>
   </g>
   <g id="legend_3">
    <g id="patch_13">
     <path d="M 363.9925 297.821875 
L 423.684687 297.821875 
Q 425.884687 297.821875 425.884687 295.621875 
L 425.884687 232.138125 
Q 425.884687 229.938125 423.684687 229.938125 
L 363.9925 229.938125 
Q 361.7925 229.938125 361.7925 232.138125 
L 361.7925 295.621875 
Q 361.7925 297.821875 363.9925 297.821875 
z
" style="fill: #ffffff; opacity: 0.8; stroke: #cccccc; stroke-linejoin: miter"/>
    </g>
    <g id="line2d_83">
     <path d="M 366.1925 238.846406 
L 377.1925 238.846406 
L 388.1925 238.846406 
" style="fill: none; stroke: #f77189; stroke-width: 1.5; stroke-linecap: round"/>
    </g>
    <g id="text_65">
     <!-- 0.05 -->
     <g style="fill: #262626" transform="translate(396.9925 242.696406) scale(0.11 -0.11)">
      <use xlink:href="#DejaVuSans-30"/>
      <use xlink:href="#DejaVuSans-2e" x="63.623047"/>
      <use xlink:href="#DejaVuSans-30" x="95.410156"/>
      <use xlink:href="#DejaVuSans-35" x="159.033203"/>
     </g>
    </g>
    <g id="line2d_84">
     <path d="M 366.1925 254.992344 
L 377.1925 254.992344 
L 388.1925 254.992344 
" style="fill: none; stroke: #97a431; stroke-width: 1.5; stroke-linecap: round"/>
    </g>
    <g id="text_66">
     <!-- 0.25 -->
     <g style="fill: #262626" transform="translate(396.9925 258.842344) scale(0.11 -0.11)">
      <use xlink:href="#DejaVuSans-30"/>
      <use xlink:href="#DejaVuSans-2e" x="63.623047"/>
      <use xlink:href="#DejaVuSans-32" x="95.410156"/>
      <use xlink:href="#DejaVuSans-35" x="159.033203"/>
     </g>
    </g>
    <g id="line2d_85">
     <path d="M 366.1925 271.138281 
L 377.1925 271.138281 
L 388.1925 271.138281 
" style="fill: none; stroke: #36ada4; stroke-width: 1.5; stroke-linecap: round"/>
    </g>
    <g id="text_67">
     <!-- 0.75 -->
     <g style="fill: #262626" transform="translate(396.9925 274.988281) scale(0.11 -0.11)">
      <use xlink:href="#DejaVuSans-30"/>
      <use xlink:href="#DejaVuSans-2e" x="63.623047"/>
      <use xlink:href="#DejaVuSans-37" x="95.410156"/>
      <use xlink:href="#DejaVuSans-35" x="159.033203"/>
     </g>
    </g>
    <g id="line2d_86">
     <path d="M 366.1925 287.284219 
L 377.1925 287.284219 
L 388.1925 287.284219 
" style="fill: none; stroke: #a48cf4; stroke-width: 1.5; stroke-linecap: round"/>
    </g>
    <g id="text_68">
     <!-- 1.0 -->
     <g style="fill: #262626" transform="translate(396.9925 291.134219) scale(0.11 -0.11)">
      <use xlink:href="#DejaVuSans-31"/>
      <use xlink:href="#DejaVuSans-2e" x="63.623047"/>
      <use xlink:href="#DejaVuSans-30" x="95.410156"/>
     </g>
    </g>
   </g>
  </g>
  <g id="axes_4">
   <g id="patch_14">
    <path d="M 478.414687 378.658125 
L 845.994687 378.658125 
L 845.994687 224.438125 
L 478.414687 224.438125 
z
" style="fill: #ffffff"/>
   </g>
   <g id="matplotlib.axis_7">
    <g id="xtick_31">
     <g id="line2d_87">
      <path d="M 493.990111 378.658125 
L 493.990111 224.438125 
" clip-path="url(#pcd830203da)" style="fill: none; stroke: #cccccc; stroke-linecap: round"/>
     </g>
     <g id="text_69">
      <!-- 2 -->
      <g style="fill: #262626" transform="translate(490.490736 396.516406) scale(0.11 -0.11)">
       <use xlink:href="#DejaVuSans-32"/>
      </g>
     </g>
    </g>
    <g id="xtick_32">
     <g id="line2d_88">
      <path d="M 525.140959 378.658125 
L 525.140959 224.438125 
" clip-path="url(#pcd830203da)" style="fill: none; stroke: #cccccc; stroke-linecap: round"/>
     </g>
     <g id="text_70">
      <!-- 4 -->
      <g style="fill: #262626" transform="translate(521.641584 396.516406) scale(0.11 -0.11)">
       <use xlink:href="#DejaVuSans-34"/>
      </g>
     </g>
    </g>
    <g id="xtick_33">
     <g id="line2d_89">
      <path d="M 556.291806 378.658125 
L 556.291806 224.438125 
" clip-path="url(#pcd830203da)" style="fill: none; stroke: #cccccc; stroke-linecap: round"/>
     </g>
     <g id="text_71">
      <!-- 6 -->
      <g style="fill: #262626" transform="translate(552.792431 396.516406) scale(0.11 -0.11)">
       <use xlink:href="#DejaVuSans-36"/>
      </g>
     </g>
    </g>
    <g id="xtick_34">
     <g id="line2d_90">
      <path d="M 587.442654 378.658125 
L 587.442654 224.438125 
" clip-path="url(#pcd830203da)" style="fill: none; stroke: #cccccc; stroke-linecap: round"/>
     </g>
     <g id="text_72">
      <!-- 8 -->
      <g style="fill: #262626" transform="translate(583.943279 396.516406) scale(0.11 -0.11)">
       <use xlink:href="#DejaVuSans-38"/>
      </g>
     </g>
    </g>
    <g id="xtick_35">
     <g id="line2d_91">
      <path d="M 618.593501 378.658125 
L 618.593501 224.438125 
" clip-path="url(#pcd830203da)" style="fill: none; stroke: #cccccc; stroke-linecap: round"/>
     </g>
     <g id="text_73">
      <!-- 10 -->
      <g style="fill: #262626" transform="translate(611.594751 396.516406) scale(0.11 -0.11)">
       <use xlink:href="#DejaVuSans-31"/>
       <use xlink:href="#DejaVuSans-30" x="63.623047"/>
      </g>
     </g>
    </g>
    <g id="xtick_36">
     <g id="line2d_92">
      <path d="M 649.744349 378.658125 
L 649.744349 224.438125 
" clip-path="url(#pcd830203da)" style="fill: none; stroke: #cccccc; stroke-linecap: round"/>
     </g>
     <g id="text_74">
      <!-- 12 -->
      <g style="fill: #262626" transform="translate(642.745599 396.516406) scale(0.11 -0.11)">
       <use xlink:href="#DejaVuSans-31"/>
       <use xlink:href="#DejaVuSans-32" x="63.623047"/>
      </g>
     </g>
    </g>
    <g id="xtick_37">
     <g id="line2d_93">
      <path d="M 680.895196 378.658125 
L 680.895196 224.438125 
" clip-path="url(#pcd830203da)" style="fill: none; stroke: #cccccc; stroke-linecap: round"/>
     </g>
     <g id="text_75">
      <!-- 14 -->
      <g style="fill: #262626" transform="translate(673.896446 396.516406) scale(0.11 -0.11)">
       <use xlink:href="#DejaVuSans-31"/>
       <use xlink:href="#DejaVuSans-34" x="63.623047"/>
      </g>
     </g>
    </g>
    <g id="xtick_38">
     <g id="line2d_94">
      <path d="M 712.046043 378.658125 
L 712.046043 224.438125 
" clip-path="url(#pcd830203da)" style="fill: none; stroke: #cccccc; stroke-linecap: round"/>
     </g>
     <g id="text_76">
      <!-- 16 -->
      <g style="fill: #262626" transform="translate(705.047293 396.516406) scale(0.11 -0.11)">
       <use xlink:href="#DejaVuSans-31"/>
       <use xlink:href="#DejaVuSans-36" x="63.623047"/>
      </g>
     </g>
    </g>
    <g id="xtick_39">
     <g id="line2d_95">
      <path d="M 743.196891 378.658125 
L 743.196891 224.438125 
" clip-path="url(#pcd830203da)" style="fill: none; stroke: #cccccc; stroke-linecap: round"/>
     </g>
     <g id="text_77">
      <!-- 18 -->
      <g style="fill: #262626" transform="translate(736.198141 396.516406) scale(0.11 -0.11)">
       <use xlink:href="#DejaVuSans-31"/>
       <use xlink:href="#DejaVuSans-38" x="63.623047"/>
      </g>
     </g>
    </g>
    <g id="xtick_40">
     <g id="line2d_96">
      <path d="M 774.347738 378.658125 
L 774.347738 224.438125 
" clip-path="url(#pcd830203da)" style="fill: none; stroke: #cccccc; stroke-linecap: round"/>
     </g>
     <g id="text_78">
      <!-- 20 -->
      <g style="fill: #262626" transform="translate(767.348988 396.516406) scale(0.11 -0.11)">
       <use xlink:href="#DejaVuSans-32"/>
       <use xlink:href="#DejaVuSans-30" x="63.623047"/>
      </g>
     </g>
    </g>
    <g id="text_79">
     <!-- Iteration -->
     <g style="fill: #262626" transform="translate(636.754375 411.922187) scale(0.12 -0.12)">
      <use xlink:href="#DejaVuSans-49"/>
      <use xlink:href="#DejaVuSans-74" x="29.492188"/>
      <use xlink:href="#DejaVuSans-65" x="68.701172"/>
      <use xlink:href="#DejaVuSans-72" x="130.224609"/>
      <use xlink:href="#DejaVuSans-61" x="171.337891"/>
      <use xlink:href="#DejaVuSans-74" x="232.617188"/>
      <use xlink:href="#DejaVuSans-69" x="271.826172"/>
      <use xlink:href="#DejaVuSans-6f" x="299.609375"/>
      <use xlink:href="#DejaVuSans-6e" x="360.791016"/>
     </g>
    </g>
   </g>
   <g id="matplotlib.axis_8">
    <g id="ytick_21">
     <g id="line2d_97">
      <path d="M 478.414687 362.513024 
L 845.994687 362.513024 
" clip-path="url(#pcd830203da)" style="fill: none; stroke: #cccccc; stroke-linecap: round"/>
     </g>
     <g id="text_80">
      <!-- 0.52 -->
      <g style="fill: #262626" transform="translate(444.4225 366.692164) scale(0.11 -0.11)">
       <use xlink:href="#DejaVuSans-30"/>
       <use xlink:href="#DejaVuSans-2e" x="63.623047"/>
       <use xlink:href="#DejaVuSans-35" x="95.410156"/>
       <use xlink:href="#DejaVuSans-32" x="159.033203"/>
      </g>
     </g>
    </g>
    <g id="ytick_22">
     <g id="line2d_98">
      <path d="M 478.414687 334.861615 
L 845.994687 334.861615 
" clip-path="url(#pcd830203da)" style="fill: none; stroke: #cccccc; stroke-linecap: round"/>
     </g>
     <g id="text_81">
      <!-- 0.53 -->
      <g style="fill: #262626" transform="translate(444.4225 339.040756) scale(0.11 -0.11)">
       <use xlink:href="#DejaVuSans-30"/>
       <use xlink:href="#DejaVuSans-2e" x="63.623047"/>
       <use xlink:href="#DejaVuSans-35" x="95.410156"/>
       <use xlink:href="#DejaVuSans-33" x="159.033203"/>
      </g>
     </g>
    </g>
    <g id="ytick_23">
     <g id="line2d_99">
      <path d="M 478.414687 307.210206 
L 845.994687 307.210206 
" clip-path="url(#pcd830203da)" style="fill: none; stroke: #cccccc; stroke-linecap: round"/>
     </g>
     <g id="text_82">
      <!-- 0.54 -->
      <g style="fill: #262626" transform="translate(444.4225 311.389347) scale(0.11 -0.11)">
       <use xlink:href="#DejaVuSans-30"/>
       <use xlink:href="#DejaVuSans-2e" x="63.623047"/>
       <use xlink:href="#DejaVuSans-35" x="95.410156"/>
       <use xlink:href="#DejaVuSans-34" x="159.033203"/>
      </g>
     </g>
    </g>
    <g id="ytick_24">
     <g id="line2d_100">
      <path d="M 478.414687 279.558798 
L 845.994687 279.558798 
" clip-path="url(#pcd830203da)" style="fill: none; stroke: #cccccc; stroke-linecap: round"/>
     </g>
     <g id="text_83">
      <!-- 0.55 -->
      <g style="fill: #262626" transform="translate(444.4225 283.737938) scale(0.11 -0.11)">
       <use xlink:href="#DejaVuSans-30"/>
       <use xlink:href="#DejaVuSans-2e" x="63.623047"/>
       <use xlink:href="#DejaVuSans-35" x="95.410156"/>
       <use xlink:href="#DejaVuSans-35" x="159.033203"/>
      </g>
     </g>
    </g>
    <g id="ytick_25">
     <g id="line2d_101">
      <path d="M 478.414687 251.907389 
L 845.994687 251.907389 
" clip-path="url(#pcd830203da)" style="fill: none; stroke: #cccccc; stroke-linecap: round"/>
     </g>
     <g id="text_84">
      <!-- 0.56 -->
      <g style="fill: #262626" transform="translate(444.4225 256.08653) scale(0.11 -0.11)">
       <use xlink:href="#DejaVuSans-30"/>
       <use xlink:href="#DejaVuSans-2e" x="63.623047"/>
       <use xlink:href="#DejaVuSans-35" x="95.410156"/>
       <use xlink:href="#DejaVuSans-36" x="159.033203"/>
      </g>
     </g>
    </g>
   </g>
   <g id="PolyCollection_13">
    <defs>
     <path id="mb217c6d8d2" d="M 493.990111 -127.151696 
L 493.990111 -64.360628 
L 509.565535 -68.393492 
L 525.140959 -54.325358 
L 540.716382 -61.050183 
L 556.291806 -76.731232 
L 571.86723 -55.882269 
L 587.442654 -68.740527 
L 603.018077 -49.969687 
L 618.593501 -51.36165 
L 634.168925 -76.909463 
L 649.744349 -57.176497 
L 665.319772 -91.568427 
L 680.895196 -88.520367 
L 696.47062 -88.13582 
L 712.046043 -74.461594 
L 727.621467 -89.458231 
L 743.196891 -88.576635 
L 758.772315 -98.3868 
L 774.347738 -109.031722 
L 774.347738 -121.411654 
L 774.347738 -121.411654 
L 758.772315 -125.847821 
L 743.196891 -112.192351 
L 727.621467 -110.635677 
L 712.046043 -101.678787 
L 696.47062 -107.718738 
L 680.895196 -114.734 
L 665.319772 -124.853622 
L 649.744349 -104.558043 
L 634.168925 -92.693917 
L 618.593501 -89.111196 
L 603.018077 -94.757206 
L 587.442654 -92.656372 
L 571.86723 -114.818352 
L 556.291806 -112.276736 
L 540.716382 -102.991771 
L 525.140959 -99.924889 
L 509.565535 -111.019954 
L 493.990111 -127.151696 
z
" style="stroke: #f77189; stroke-opacity: 0.2"/>
    </defs>
    <g clip-path="url(#pcd830203da)">
     <use xlink:href="#mb217c6d8d2" x="0" y="421.617812" style="fill: #f77189; fill-opacity: 0.2; stroke: #f77189; stroke-opacity: 0.2"/>
    </g>
   </g>
   <g id="PolyCollection_14">
    <defs>
     <path id="m1fc93bffb0" d="M 493.990111 -153.712178 
L 493.990111 -114.311974 
L 509.565535 -108.046918 
L 525.140959 -112.286098 
L 540.716382 -95.310149 
L 556.291806 -94.203888 
L 571.86723 -89.229607 
L 587.442654 -85.500391 
L 603.018077 -87.685643 
L 618.593501 -97.026877 
L 634.168925 -89.223765 
L 649.744349 -92.337521 
L 665.319772 -98.912 
L 680.895196 -109.791356 
L 696.47062 -115.399886 
L 712.046043 -105.486579 
L 727.621467 -112.80197 
L 743.196891 -110.916846 
L 743.196891 -138.406017 
L 743.196891 -138.406017 
L 727.621467 -135.629869 
L 712.046043 -133.37902 
L 696.47062 -140.216084 
L 680.895196 -128.372841 
L 665.319772 -121.29046 
L 649.744349 -114.47135 
L 634.168925 -117.097483 
L 618.593501 -122.2651 
L 603.018077 -103.826494 
L 587.442654 -121.580458 
L 571.86723 -128.464527 
L 556.291806 -128.980365 
L 540.716382 -150.795376 
L 525.140959 -141.416566 
L 509.565535 -142.588962 
L 493.990111 -153.712178 
z
" style="stroke: #97a431; stroke-opacity: 0.2"/>
    </defs>
    <g clip-path="url(#pcd830203da)">
     <use xlink:href="#m1fc93bffb0" x="0" y="421.617812" style="fill: #97a431; fill-opacity: 0.2; stroke: #97a431; stroke-opacity: 0.2"/>
    </g>
   </g>
   <g id="PolyCollection_15">
    <defs>
     <path id="m3d2883fa68" d="M 493.990111 -147.334586 
L 493.990111 -116.919252 
L 509.565535 -111.048105 
L 525.140959 -125.163145 
L 540.716382 -131.212458 
L 556.291806 -129.452813 
L 571.86723 -129.65558 
L 587.442654 -141.332147 
L 603.018077 -140.835064 
L 618.593501 -138.724869 
L 634.168925 -128.539518 
L 649.744349 -134.80454 
L 665.319772 -131.672029 
L 680.895196 -129.041054 
L 696.47062 -129.121019 
L 712.046043 -132.469207 
L 727.621467 -145.970409 
L 743.196891 -122.771545 
L 743.196891 -156.15998 
L 743.196891 -156.15998 
L 727.621467 -161.716463 
L 712.046043 -161.552801 
L 696.47062 -163.662996 
L 680.895196 -153.89031 
L 665.319772 -151.067321 
L 649.744349 -151.995759 
L 634.168925 -152.689895 
L 618.593501 -158.016987 
L 603.018077 -170.875278 
L 587.442654 -149.200888 
L 571.86723 -157.698102 
L 556.291806 -147.691015 
L 540.716382 -141.57604 
L 525.140959 -145.390821 
L 509.565535 -132.910022 
L 493.990111 -147.334586 
z
" style="stroke: #36ada4; stroke-opacity: 0.2"/>
    </defs>
    <g clip-path="url(#pcd830203da)">
     <use xlink:href="#m3d2883fa68" x="0" y="421.617812" style="fill: #36ada4; fill-opacity: 0.2; stroke: #36ada4; stroke-opacity: 0.2"/>
    </g>
   </g>
   <g id="PolyCollection_16">
    <defs>
     <path id="md7a5b25001" d="M 493.990111 -132.28168 
L 493.990111 -95.554417 
L 509.565535 -95.2355 
L 525.140959 -118.8794 
L 540.716382 -110.363462 
L 556.291806 -132.262859 
L 571.86723 -118.401073 
L 587.442654 -114.546341 
L 603.018077 -125.538331 
L 618.593501 -139.829441 
L 634.168925 -153.76838 
L 649.744349 -159.367582 
L 665.319772 -157.336782 
L 680.895196 -158.96418 
L 696.47062 -161.158893 
L 712.046043 -167.067486 
L 727.621467 -168.924492 
L 743.196891 -164.940883 
L 743.196891 -190.169687 
L 743.196891 -190.169687 
L 727.621467 -187.653898 
L 712.046043 -183.311511 
L 696.47062 -183.133313 
L 680.895196 -181.660854 
L 665.319772 -179.738185 
L 649.744349 -172.094483 
L 634.168925 -166.561042 
L 618.593501 -164.741547 
L 603.018077 -161.434574 
L 587.442654 -132.272286 
L 571.86723 -157.247893 
L 556.291806 -147.215171 
L 540.716382 -142.105226 
L 525.140959 -158.673479 
L 509.565535 -141.083315 
L 493.990111 -132.28168 
z
" style="stroke: #a48cf4; stroke-opacity: 0.2"/>
    </defs>
    <g clip-path="url(#pcd830203da)">
     <use xlink:href="#md7a5b25001" x="0" y="421.617812" style="fill: #a48cf4; fill-opacity: 0.2; stroke: #a48cf4; stroke-opacity: 0.2"/>
    </g>
   </g>
   <g id="line2d_102">
    <path d="M 493.990111 318.044573 
L 509.565535 333.088117 
L 525.140959 344.54894 
L 540.716382 339.981482 
L 556.291806 327.113829 
L 571.86723 336.267502 
L 587.442654 339.981482 
L 603.018077 350.457567 
L 618.593501 348.628711 
L 634.168925 337.580486 
L 649.744349 339.737654 
L 665.319772 316.722162 
L 680.895196 321.899206 
L 696.47062 322.518219 
L 712.046043 333.209982 
L 727.621467 321.280226 
L 743.196891 322.593243 
L 758.772315 309.988207 
L 774.347738 306.396124 
" clip-path="url(#pcd830203da)" style="fill: none; stroke: #f77189; stroke-width: 1.5; stroke-linecap: round"/>
   </g>
   <g id="line2d_103">
    <path d="M 493.990111 288.332605 
L 509.565535 295.779353 
L 525.140959 292.0185 
L 540.716382 298.536679 
L 556.291806 310.738479 
L 571.86723 311.451272 
L 587.442654 321.646017 
L 603.018077 326.682375 
L 618.593501 314.377467 
L 634.168925 317.106643 
L 649.744349 318.344669 
L 665.319772 311.516934 
L 680.895196 302.081921 
L 696.47062 293.894229 
L 712.046043 301.050177 
L 727.621467 297.458161 
L 743.196891 296.004458 
L 758.772315 298.846268 
L 774.347738 293.87544 
" clip-path="url(#pcd830203da)" style="fill: none; stroke: #97a431; stroke-width: 1.5; stroke-linecap: round"/>
   </g>
   <g id="line2d_104">
    <path d="M 493.990111 287.17903 
L 509.565535 300.140496 
L 525.140959 286.86954 
L 540.716382 285.762839 
L 556.291806 282.377072 
L 571.86723 277.940971 
L 587.442654 275.980824 
L 603.018077 267.277293 
L 618.593501 272.33244 
L 634.168925 281.786243 
L 649.744349 277.603364 
L 665.319772 279.488454 
L 680.895196 280.144979 
L 696.47062 274.939752 
L 712.046043 275.089832 
L 727.621467 267.41798 
L 743.196891 278.369293 
" clip-path="url(#pcd830203da)" style="fill: none; stroke: #36ada4; stroke-width: 1.5; stroke-linecap: round"/>
   </g>
   <g id="line2d_105">
    <path d="M 493.990111 309.331682 
L 509.565535 304.267206 
L 525.140959 284.712438 
L 540.716382 296.25768 
L 556.291806 281.017215 
L 571.86723 283.79333 
L 587.442654 296.886087 
L 603.018077 277.275085 
L 618.593501 269.481335 
L 634.168925 261.800087 
L 649.744349 256.266614 
L 665.319772 253.077867 
L 680.895196 250.367415 
L 696.47062 250.161066 
L 712.046043 247.947663 
L 727.621467 244.552568 
L 743.196891 244.660415 
" clip-path="url(#pcd830203da)" style="fill: none; stroke: #a48cf4; stroke-width: 1.5; stroke-linecap: round"/>
   </g>
   <g id="line2d_106"/>
   <g id="line2d_107"/>
   <g id="line2d_108"/>
   <g id="line2d_109"/>
   <g id="patch_15">
    <path d="M 478.414687 378.658125 
L 478.414687 224.438125 
" style="fill: none; stroke: #cccccc; stroke-width: 1.25; stroke-linejoin: miter; stroke-linecap: square"/>
   </g>
   <g id="patch_16">
    <path d="M 478.414687 378.658125 
L 845.994687 378.658125 
" style="fill: none; stroke: #cccccc; stroke-width: 1.25; stroke-linejoin: miter; stroke-linecap: square"/>
   </g>
   <g id="text_85">
    <!-- Labeled Size: 500 -->
    <g style="fill: #262626" transform="translate(608.911562 218.438125) scale(0.12 -0.12)">
     <use xlink:href="#DejaVuSans-4c"/>
     <use xlink:href="#DejaVuSans-61" x="55.712891"/>
     <use xlink:href="#DejaVuSans-62" x="116.992188"/>
     <use xlink:href="#DejaVuSans-65" x="180.46875"/>
     <use xlink:href="#DejaVuSans-6c" x="241.992188"/>
     <use xlink:href="#DejaVuSans-65" x="269.775391"/>
     <use xlink:href="#DejaVuSans-64" x="331.298828"/>
     <use xlink:href="#DejaVuSans-20" x="394.775391"/>
     <use xlink:href="#DejaVuSans-53" x="426.5625"/>
     <use xlink:href="#DejaVuSans-69" x="490.039062"/>
     <use xlink:href="#DejaVuSans-7a" x="517.822266"/>
     <use xlink:href="#DejaVuSans-65" x="570.3125"/>
     <use xlink:href="#DejaVuSans-3a" x="631.835938"/>
     <use xlink:href="#DejaVuSans-20" x="665.527344"/>
     <use xlink:href="#DejaVuSans-35" x="697.314453"/>
     <use xlink:href="#DejaVuSans-30" x="760.9375"/>
     <use xlink:href="#DejaVuSans-30" x="824.560547"/>
    </g>
   </g>
   <g id="legend_4">
    <g id="patch_17">
     <path d="M 778.6025 297.821875 
L 838.294687 297.821875 
Q 840.494687 297.821875 840.494687 295.621875 
L 840.494687 232.138125 
Q 840.494687 229.938125 838.294687 229.938125 
L 778.6025 229.938125 
Q 776.4025 229.938125 776.4025 232.138125 
L 776.4025 295.621875 
Q 776.4025 297.821875 778.6025 297.821875 
z
" style="fill: #ffffff; opacity: 0.8; stroke: #cccccc; stroke-linejoin: miter"/>
    </g>
    <g id="line2d_110">
     <path d="M 780.8025 238.846406 
L 791.8025 238.846406 
L 802.8025 238.846406 
" style="fill: none; stroke: #f77189; stroke-width: 1.5; stroke-linecap: round"/>
    </g>
    <g id="text_86">
     <!-- 0.05 -->
     <g style="fill: #262626" transform="translate(811.6025 242.696406) scale(0.11 -0.11)">
      <use xlink:href="#DejaVuSans-30"/>
      <use xlink:href="#DejaVuSans-2e" x="63.623047"/>
      <use xlink:href="#DejaVuSans-30" x="95.410156"/>
      <use xlink:href="#DejaVuSans-35" x="159.033203"/>
     </g>
    </g>
    <g id="line2d_111">
     <path d="M 780.8025 254.992344 
L 791.8025 254.992344 
L 802.8025 254.992344 
" style="fill: none; stroke: #97a431; stroke-width: 1.5; stroke-linecap: round"/>
    </g>
    <g id="text_87">
     <!-- 0.25 -->
     <g style="fill: #262626" transform="translate(811.6025 258.842344) scale(0.11 -0.11)">
      <use xlink:href="#DejaVuSans-30"/>
      <use xlink:href="#DejaVuSans-2e" x="63.623047"/>
      <use xlink:href="#DejaVuSans-32" x="95.410156"/>
      <use xlink:href="#DejaVuSans-35" x="159.033203"/>
     </g>
    </g>
    <g id="line2d_112">
     <path d="M 780.8025 271.138281 
L 791.8025 271.138281 
L 802.8025 271.138281 
" style="fill: none; stroke: #36ada4; stroke-width: 1.5; stroke-linecap: round"/>
    </g>
    <g id="text_88">
     <!-- 0.75 -->
     <g style="fill: #262626" transform="translate(811.6025 274.988281) scale(0.11 -0.11)">
      <use xlink:href="#DejaVuSans-30"/>
      <use xlink:href="#DejaVuSans-2e" x="63.623047"/>
      <use xlink:href="#DejaVuSans-37" x="95.410156"/>
      <use xlink:href="#DejaVuSans-35" x="159.033203"/>
     </g>
    </g>
    <g id="line2d_113">
     <path d="M 780.8025 287.284219 
L 791.8025 287.284219 
L 802.8025 287.284219 
" style="fill: none; stroke: #a48cf4; stroke-width: 1.5; stroke-linecap: round"/>
    </g>
    <g id="text_89">
     <!-- 1.0 -->
     <g style="fill: #262626" transform="translate(811.6025 291.134219) scale(0.11 -0.11)">
      <use xlink:href="#DejaVuSans-31"/>
      <use xlink:href="#DejaVuSans-2e" x="63.623047"/>
      <use xlink:href="#DejaVuSans-30" x="95.410156"/>
     </g>
    </g>
   </g>
  </g>
 </g>
 <defs>
  <clipPath id="p8b8162a0d3">
   <rect x="63.804688" y="22.318125" width="367.58" height="154.22"/>
  </clipPath>
  <clipPath id="pd154e4b5ea">
   <rect x="478.414687" y="22.318125" width="367.58" height="154.22"/>
  </clipPath>
  <clipPath id="pa76dcffb3e">
   <rect x="63.804688" y="224.438125" width="367.58" height="154.22"/>
  </clipPath>
  <clipPath id="pcd830203da">
   <rect x="478.414687" y="224.438125" width="367.58" height="154.22"/>
  </clipPath>
 </defs>
</svg>
